QalamBadi-BoldItalicContrast.ufo
<glyph name="exclam" format="2">
  <advance width="434"/>
  <unicode hex="0021"/>
  <outline>
    <contour>
      <point x="375.509880957018" y="1289.0006423337952" type="line" smooth="yes"/>
      <point x="324.3663831574859" y="1288.6781856267999"/>
      <point x="274.7134462063951" y="1259.7909474886985"/>
      <point x="266.2914713826789" y="1221.1168042895688" type="curve" smooth="yes"/>
      <point x="189.6191539180708" y="514.2135390182523" type="line" smooth="yes"/>
      <point x="189.87605293343705" y="476.41706091229526"/>
      <point x="243.27870663875655" y="444.2710818916465"/>
      <point x="298.7421159406166" y="443.9999439023689" type="curve" smooth="yes"/>
      <point x="352.57411508993795" y="444.4680418694444"/>
      <point x="406.384914831106" y="471.13416450687083"/>
      <point x="422.5356816401334" y="507.26418706247887" type="curve" smooth="yes"/>
      <point x="596.211051242958" y="1214.19082772272" type="line" smooth="yes"/>
      <point x="606.2329088877591" y="1251.9355647150944"/>
      <point x="561.2243007987091" y="1289.1216549784303"/>
      <point x="506.06764843516737" y="1289.0009868878699" type="curve" smooth="yes"/>
    </contour>
    <contour>
      <point x="69.4940320370336" y="210.2323869042386" type="curve" smooth="yes"/>
      <point x="42.15612238789656" y="56.803711809226456" type="line" smooth="yes"/>
      <point x="38.99545528421276" y="1.6374814072275283"/>
      <point x="115.84411614834877" y="-30.06877108472393"/>
      <point x="215.23186336449382" y="-30.000000245269426" type="curve" smooth="yes"/>
      <point x="313.11555482776373" y="-29.94704814518215"/>
      <point x="390.27417524988925" y="-3.5874816920327284"/>
      <point x="410.3509829471673" y="49.7676130957614" type="curve" smooth="yes"/>
      <point x="437.6888925963044" y="203.19628819077354" type="line" smooth="yes"/>
      <point x="440.84955969998816" y="258.3625185927725"/>
      <point x="364.00089883585207" y="290.06877108472395"/>
      <point x="264.6131516197071" y="290.0000002452694" type="curve" smooth="yes"/>
      <point x="166.72946015643714" y="289.9470481451822"/>
      <point x="89.57083973431165" y="263.5874816920327"/>
    </contour>
  </outline>
</glyph>
<glyph name="numbersign" format="2">
  <advance width="1292"/>
  <unicode hex="0023"/>
  <outline>
    <contour>
      <point x="1080.4603719190902" y="1183.8858241616579" type="curve" smooth="yes"/>
      <point x="964.8892385165856" y="919.532624945241" type="line" smooth="yes"/>
      <point x="964.2942496225965" y="900.8780836136094"/>
      <point x="956.806817721255" y="883.5103187964847"/>
      <point x="952.0015387092042" y="885.0010750680508" type="curve" smooth="yes"/>
      <point x="785.8551216190724" y="885.004544343828" type="line" smooth="yes"/>
      <point x="753.9773834940152" y="889.0346520981598"/>
      <point x="788.8295266167038" y="902.0187565228324"/>
      <point x="813.637149558268" y="903.6308163444039" type="curve" smooth="yes"/>
      <point x="914.600308333138" y="1133.6830156089932" type="line" smooth="yes"/>
      <point x="934.9792195450241" y="1188.706778504992"/>
      <point x="861.482484333847" y="1228.5752472377314"/>
      <point x="801.5071275289921" y="1229.0011127748703" type="curve" smooth="yes"/>
      <point x="763.9169149196379" y="1228.7871280489533"/>
      <point x="711.2594805572844" y="1213.4683228711172"/>
      <point x="686.4603719190904" y="1183.8858241616579" type="curve" smooth="yes"/>
      <point x="570.8892385165856" y="919.532624945241" type="line" smooth="yes"/>
      <point x="570.2942496225965" y="900.8780836136094"/>
      <point x="562.806817721255" y="883.5103187964847"/>
      <point x="557.9765777693111" y="885.0009149462355" type="curve" smooth="yes"/>
      <point x="377.3635320682802" y="885.0002627973731" type="line" smooth="yes"/>
      <point x="312.7519389908512" y="884.6333583363495"/>
      <point x="256.9510053298469" y="851.5747320684113"/>
      <point x="242.73301130896627" y="796.4908015343664" type="curve" smooth="yes"/>
      <point x="233.54914958778517" y="741.945835091522"/>
      <point x="283.737988700741" y="701.0325538274255"/>
      <point x="351.8995484367435" y="700.9994416560118" type="curve" smooth="yes"/>
      <point x="495.61641323958384" y="700.994009646451" type="line" smooth="yes"/>
      <point x="527.3960499633919" y="696.9653472318854"/>
      <point x="492.5439075076414" y="683.981243912481"/>
      <point x="467.80626437628194" y="682.2866030342578" type="curve" smooth="yes"/>
      <point x="401.13631686269065" y="530.5861200269424" type="line" smooth="yes"/>
      <point x="400.58370091137255" y="511.8780836522617"/>
      <point x="393.0962681367417" y="494.5103188449667"/>
      <point x="388.32297271763076" y="496.0012991045514" type="curve" smooth="yes"/>
      <point x="238.74801543414628" y="496.00034916576055" type="line" smooth="yes"/>
      <point x="174.16074349525832" y="495.6333583363495"/>
      <point x="118.35980983425401" y="462.5747320684114"/>
      <point x="104.14181581337337" y="407.4908015343663" type="curve" smooth="yes"/>
      <point x="94.95795409219225" y="352.94583509152193"/>
      <point x="145.14679320514819" y="312.03255382742543"/>
      <point x="213.26520178371638" y="311.999214851119" type="curve" smooth="yes"/>
      <point x="326.10238278710625" y="311.99051198499296" type="line" smooth="yes"/>
      <point x="357.6854680096108" y="307.9653494950261"/>
      <point x="322.83332330091184" y="294.9812424419716"/>
      <point x="298.01996680911793" y="293.37601609737555" type="curve" smooth="yes"/>
      <point x="192.70754232110602" y="53.30635487834781" type="line" smooth="yes"/>
      <point x="172.32092161907286" y="-1.7067554894279633"/>
      <point x="245.81764176710095" y="-41.57524723773143"/>
      <point x="305.79299857195593" y="-42.0011127748702" type="curve" smooth="yes"/>
      <point x="343.38321118131006" y="-41.78712804895312"/>
      <point x="396.04065303553534" y="-26.468326400168152"/>
      <point x="420.84281666501573" y="3.11058484018775" type="curve" smooth="yes"/>
      <point x="540.7714343106543" y="277.47011376111965" type="line" smooth="yes"/>
      <point x="541.3686049158581" y="296.1219164554016"/>
      <point x="548.8560352579972" y="313.48968129007665"/>
      <point x="553.6613140269609" y="311.9989249322229" type="curve" smooth="yes"/>
      <point x="719.8077614956441" y="311.9954556575169" type="line" smooth="yes"/>
      <point x="751.6855013481272" y="307.96534572312515"/>
      <point x="716.8333603943427" y="294.98124489282105"/>
      <point x="692.0199950735702" y="293.37601895474955" type="curve" smooth="yes"/>
      <point x="586.7075440641738" y="53.306356313907884" type="line" smooth="yes"/>
      <point x="566.3209214918276" y="-1.7067556838503828"/>
      <point x="639.817641767101" y="-41.57524723773144"/>
      <point x="699.792998571956" y="-42.0011127748702" type="curve" smooth="yes"/>
      <point x="737.3832111813101" y="-41.78712804895312"/>
      <point x="790.0406527744474" y="-26.468326277182456"/>
      <point x="814.8428149158781" y="3.1105834447296425" type="curve" smooth="yes"/>
      <point x="934.7714589653724" y="277.47011338824944" type="line" smooth="yes"/>
      <point x="935.3686310573277" y="296.1219162915662"/>
      <point x="942.8560651010847" y="313.4896810845759"/>
      <point x="947.682259084524" y="311.99905997330364" type="curve" smooth="yes"/>
      <point x="1125.7016460923826" y="311.9997312895404" type="line" smooth="yes"/>
      <point x="1190.3114569171814" y="312.3666416636505"/>
      <point x="1246.1123905781856" y="345.4252679315887"/>
      <point x="1260.3303845990663" y="400.5091984656337" type="curve" smooth="yes"/>
      <point x="1269.5142463202474" y="455.05416490847796"/>
      <point x="1219.3254072072918" y="495.9674461725745"/>
      <point x="1151.1669274402243" y="496.00057325430555" type="curve" smooth="yes"/>
      <point x="1010.0331639692955" y="496.006201361637" type="line" smooth="yes"/>
      <point x="978.2668027317499" y="500.03465276811465"/>
      <point x="1013.1189451875006" y="513.018756087519"/>
      <point x="1037.85658831886" y="514.7133969657422" type="curve" smooth="yes"/>
      <point x="1104.5265358324511" y="666.4138799730576" type="line" smooth="yes"/>
      <point x="1105.0791517837692" y="685.1219163477383"/>
      <point x="1112.5665845584003" y="702.4896811550333"/>
      <point x="1117.3341199385775" y="700.9986582962806" type="curve" smooth="yes"/>
      <point x="1264.3177524648802" y="700.999641755224" type="line" smooth="yes"/>
      <point x="1328.9026524127742" y="701.3666416636505"/>
      <point x="1384.7035860737785" y="734.4252679315886"/>
      <point x="1398.9215800946592" y="789.5091984656337" type="curve" smooth="yes"/>
      <point x="1408.1054418158403" y="844.054164908478"/>
      <point x="1357.9166027028843" y="884.9674461725745"/>
      <point x="1289.80253580115" y="885.0008101044956" type="curve" smooth="yes"/>
      <point x="1179.5393559843483" y="885.0099114180913" type="line" smooth="yes"/>
      <point x="1147.9773834940152" y="889.0346520981595"/>
      <point x="1182.8295266167036" y="902.0187565228324"/>
      <point x="1207.6371495582678" y="903.6308163444039" type="curve" smooth="yes"/>
      <point x="1308.600308333138" y="1133.6830156089932" type="line" smooth="yes"/>
      <point x="1328.979219545024" y="1188.706778504992"/>
      <point x="1255.482484333847" y="1228.5752472377314"/>
      <point x="1195.507127528992" y="1229.0011127748703" type="curve" smooth="yes"/>
      <point x="1157.9169149196377" y="1228.7871280489533"/>
      <point x="1105.2594805572844" y="1213.4683228711172"/>
    </contour>
    <contour>
      <point x="710.5265435144536" y="666.4138804444134" type="line" smooth="yes"/>
      <point x="711.0791575173647" y="685.1219165623963"/>
      <point x="718.5665854421204" y="702.4896814242812"/>
      <point x="723.3718636937604" y="700.9989249317101" type="curve" smooth="yes"/>
      <point x="889.5182808253116" y="700.9954556560951" type="line" smooth="yes"/>
      <point x="921.396019445814" y="696.9653472318854"/>
      <point x="886.5438769900634" y="683.981243912481"/>
      <point x="861.8062338587038" y="682.2866030342578" type="curve" smooth="yes"/>
      <point x="795.1362863451125" y="530.5861200269424" type="line" smooth="yes"/>
      <point x="794.5836703937945" y="511.8780836522617"/>
      <point x="787.0962376191636" y="494.5103188449667"/>
      <point x="782.2909584951874" y="496.0010750683658" type="curve" smooth="yes"/>
      <point x="616.1445717905567" y="496.0045443449927" type="line" smooth="yes"/>
      <point x="584.266836553858" y="500.0346483496012"/>
      <point x="619.1189834082207" y="513.018758958513"/>
      <point x="643.8566162064826" y="514.7134003263008" type="curve" smooth="yes"/>
    </contour>
  </outline>
</glyph>
<glyph name="dollar" format="2">
  <advance width="1040"/>
  <unicode hex="0024"/>
  <outline>
    <contour>
      <point x="176.67106392771504" y="820.4290440733225" type="curve" smooth="yes"/>
      <point x="155.00412032230406" y="691.2228544359461"/>
      <point x="229.72157138966188" y="612.6294137328429"/>
      <point x="325.65764792879975" y="573.7468920023817" type="curve" smooth="yes"/>
      <point x="473.0263692057963" y="513.1968693435475"/>
      <point x="684.3426716182533" y="523.112235685139"/>
      <point x="777.7915493614655" y="481.3674858329039" type="curve" smooth="yes"/>
      <point x="824.1737688570821" y="463.01990021563705"/>
      <point x="824.3817336182296" y="440.87266183086155"/>
      <point x="813.9989212321171" y="391.5140956764472" type="curve" smooth="yes"/>
      <point x="805.4595527766353" y="300.6048439691369"/>
      <point x="745.5502222760335" y="239.2933353241931"/>
      <point x="582.5391190537966" y="240.00003892821266" type="curve" smooth="yes"/>
      <point x="459.83574153793705" y="239.79200708196717"/>
      <point x="354.5131917179587" y="274.2671304273591"/>
      <point x="268.17474141572944" y="333.68181054234725" type="curve" smooth="yes"/>
      <point x="220.73078859036693" y="354.0119779173906"/>
      <point x="142.2311665509121" y="346.57068886001497"/>
      <point x="93.5501023058092" y="292.19130119234796" type="curve" smooth="yes"/>
      <point x="52.97302706072122" y="239.8609201778662"/>
      <point x="66.24617713389699" y="186.6639467481711"/>
      <point x="118.1414686284517" y="161.95264695937925" type="curve" smooth="yes"/>
      <point x="212.38756936073946" y="105.87296696226208"/>
      <point x="328.583168396991" y="71.75959881073366"/>
      <point x="406.64194318984374" y="64.23079277189711" type="curve" smooth="yes"/>
      <point x="413.7304901434821" y="66.63621496616935"/>
      <point x="395.9939006221105" y="46.38940480662327"/>
      <point x="391.18075186981366" y="34.5042893889955" type="curve" smooth="yes"/>
      <point x="357.3546749781233" y="-156.43226054504592" type="line" smooth="yes"/>
      <point x="349.9980723494245" y="-206.6058573177116"/>
      <point x="405.45454859357716" y="-245.07232213775984"/>
      <point x="474.9637400848802" y="-245.00002441697015" type="curve" smooth="yes"/>
      <point x="541.4389834190623" y="-244.7596823902721"/>
      <point x="600.8376115233224" y="-213.7788486069942"/>
      <point x="615.5357824764342" y="-163.39416435602" type="curve" smooth="yes"/>
      <point x="648.5370030492535" y="23.045733321988237" type="line" smooth="yes"/>
      <point x="645.7702183094891" y="40.17483327878014"/>
      <point x="643.6876040184201" y="58.05643263446882"/>
      <point x="648.5377193612973" y="56.71062998822255" type="curve" smooth="yes"/>
      <point x="868.8450141171884" y="66.22627730262751"/>
      <point x="1046.9552065188514" y="198.97161776271437"/>
      <point x="1086.187764327736" y="384.53142717068454" type="curve" smooth="yes"/>
      <point x="1110.8655634861625" y="532.0930134112475"/>
      <point x="1024.4218178923825" y="615.7598755851787"/>
      <point x="917.8725252629794" y="656.5055945661339" type="curve" smooth="yes"/>
      <point x="765.1128697335973" y="713.8281406408892"/>
      <point x="558.216340296674" y="703.8924200042215"/>
      <point x="473.04306597967405" y="743.579581518424" type="curve" smooth="yes"/>
      <point x="434.4276825024656" y="758.6022581809515"/>
      <point x="440.68542020794115" y="776.8010093220154"/>
      <point x="448.86901829106904" y="813.4158891577218" type="curve" smooth="yes"/>
      <point x="456.56550048284237" y="906.8323292476945"/>
      <point x="518.2304221340952" y="955.609351680819"/>
      <point x="650.5461443635803" y="954.9999645241553" type="curve" smooth="yes"/>
      <point x="765.8467936662107" y="955.1797632482925"/>
      <point x="861.8096594359641" y="925.5361476855302"/>
      <point x="948.2133270931753" y="871.8311414220381" type="curve" smooth="yes"/>
      <point x="997.8460546015588" y="852.7203482098848"/>
      <point x="1075.9452203118835" y="861.9752994660296"/>
      <point x="1121.1229081989145" y="917.3903639483453" type="curve" smooth="yes"/>
      <point x="1160.1322637969492" y="970.5752208102506"/>
      <point x="1144.6598353587895" y="1023.659593465696"/>
      <point x="1091.5510985462804" y="1047.4387765434813" type="curve" smooth="yes"/>
      <point x="1002.7666523226663" y="1095.2976162658179"/>
      <point x="897.2927202722076" y="1123.9111565621602"/>
      <point x="829.7834650477872" y="1130.58361014331" type="curve" smooth="yes"/>
      <point x="821.3298661322435" y="1127.8180858419473"/>
      <point x="843.2857536296325" y="1147.9879769695135"/>
      <point x="848.1881361457168" y="1156.4657095813577" type="curve" smooth="yes"/>
      <point x="881.317675158224" y="1343.430718679928" type="line" smooth="yes"/>
      <point x="888.6737933049994" y="1393.6058573177118"/>
      <point x="833.2173170608467" y="1432.0723221377598"/>
      <point x="763.7081255695437" y="1432.00002441697" type="curve" smooth="yes"/>
      <point x="697.2328822353616" y="1431.759682390272"/>
      <point x="637.8342541311015" y="1400.7788486069942"/>
      <point x="623.1369960110169" y="1350.391468556917" type="curve" smooth="yes"/>
      <point x="591.5464297014158" y="1171.9780026614876" type="line" smooth="yes"/>
      <point x="594.3157379425663" y="1154.8090306160127"/>
      <point x="596.1846082305657" y="1136.8477025908546"/>
      <point x="591.3486912950066" y="1138.1042673783743" type="curve" smooth="yes"/>
      <point x="415.84239347680847" y="1129.9148220977563"/>
      <point x="219.4287119713678" y="1016.0823489890622"/>
    </contour>
  </outline>
</glyph>
<glyph name="percent" format="2">
  <advance width="1312"/>
  <unicode hex="0025"/>
  <outline>
    <contour>
      <point x="657.3356075061574" y="255.50471179654227" type="curve" smooth="yes"/>
      <point x="632.1052328028137" y="96.08663866693195"/>
      <point x="764.2397752816265" y="-40.13727010941091"/>
      <point x="942.0553738979348" y="-42.00004433425459" type="curve" smooth="yes"/>
      <point x="1116.4147832091542" y="-40.52276066378238"/>
      <point x="1288.534822909805" y="90.52382163918558"/>
      <point x="1323.5331907709087" y="248.4952882034577" type="curve" smooth="yes"/>
      <point x="1348.7635654742528" y="407.91336133306805"/>
      <point x="1216.62902299544" y="544.1372701094109"/>
      <point x="1038.8134243791314" y="546.0000443342545" type="curve" smooth="yes"/>
      <point x="864.4540150679121" y="544.5227606637824"/>
      <point x="692.3339753672617" y="413.4761783608144"/>
    </contour>
    <contour>
      <point x="197.76693533003902" y="938.5047117965423" type="curve" smooth="yes"/>
      <point x="172.5365606266952" y="779.0866386669319"/>
      <point x="304.67110310550805" y="642.8627298905891"/>
      <point x="482.4867017218164" y="640.9999556657455" type="curve" smooth="yes"/>
      <point x="656.8461110330359" y="642.4772393362176"/>
      <point x="828.9661507336863" y="773.5238216391856"/>
      <point x="863.9645185947905" y="931.4952882034578" type="curve" smooth="yes"/>
      <point x="889.1948932981342" y="1090.9133613330682"/>
      <point x="757.0603508193216" y="1227.137270109411"/>
      <point x="579.2447522030131" y="1229.0000443342547" type="curve" smooth="yes"/>
      <point x="404.8853428917938" y="1227.5227606637823"/>
      <point x="232.76530319114318" y="1096.4761783608146"/>
    </contour>
    <contour>
      <point x="173.50318523728035" y="244.52652446785075" type="line" smooth="yes"/>
      <point x="121.74347927619208" y="210.52512124695448"/>
      <point x="112.07409557035916" y="158.7835119704179"/>
      <point x="148.3017339905236" y="121.7340808664116" type="curve" smooth="yes"/>
      <point x="190.91510269241078" y="85.02758542670836"/>
      <point x="271.01864414133036" y="79.99067458553792"/>
      <point x="327.5787174649539" y="113.4923715688801" type="curve" smooth="yes"/>
      <point x="1347.973267844376" y="943.4734755321492" type="line" smooth="yes"/>
      <point x="1399.7329738054646" y="977.4748787530456"/>
      <point x="1409.4023575112972" y="1029.2164880295823"/>
      <point x="1373.1747190911328" y="1066.2659191335886" type="curve" smooth="yes"/>
      <point x="1330.5613503892457" y="1102.9724145732916"/>
      <point x="1250.457808940326" y="1108.0093254144622"/>
      <point x="1193.8977356167024" y="1074.5076284311199" type="curve" smooth="yes"/>
    </contour>
    <contour>
      <point x="1075.3728227528254" y="255.39223492608534" type="curve" smooth="yes"/>
      <point x="1069.3220371558605" y="183.95551100682053"/>
      <point x="1021.5345124225735" y="126.31411047336105"/>
      <point x="964.8748174293909" y="128.00029399341705" type="curve" smooth="yes"/>
      <point x="910.6943053030244" y="125.5330549628427"/>
      <point x="890.8009954318811" y="179.32287165956558"/>
      <point x="905.4959755242411" y="248.60776507391466" type="curve" smooth="yes"/>
      <point x="911.5467611212058" y="320.04448899317947"/>
      <point x="959.3342858544928" y="377.68588952663896"/>
      <point x="1015.9939808476754" y="375.9997060065829" type="curve" smooth="yes"/>
      <point x="1070.174492974042" y="378.46694503715736"/>
      <point x="1090.067802845185" y="324.6771283404344"/>
    </contour>
    <contour>
      <point x="615.8041505767069" y="938.3922349260854" type="curve" smooth="yes"/>
      <point x="609.7533649797422" y="866.9555110068205"/>
      <point x="561.9658402464551" y="809.3141104733611"/>
      <point x="505.30614525327246" y="811.000293993417" type="curve" smooth="yes"/>
      <point x="451.12563312690594" y="808.5330549628427"/>
      <point x="431.23232325576276" y="862.3228716595655"/>
      <point x="445.9273033481226" y="931.6077650739146" type="curve" smooth="yes"/>
      <point x="451.97808894508734" y="1003.0444889931795"/>
      <point x="499.7656136783744" y="1060.6858895266391"/>
      <point x="556.425308671557" y="1058.999706006583" type="curve" smooth="yes"/>
      <point x="610.6058207979235" y="1061.4669450371573"/>
      <point x="630.4991306690669" y="1007.6771283404345"/>
    </contour>
  </outline>
</glyph>
<glyph name="ampersand" format="2">
  <advance width="1119"/>
  <unicode hex="0026"/>
  <outline>
    <contour>
      <point x="302.1525884794674" y="923.4119710623867" type="curve" smooth="yes"/>
      <point x="282.6890578922177" y="814.8951153323268"/>
      <point x="305.8621165742951" y="728.6067145751728"/>
      <point x="338.1236592399713" y="682.9487560324452" type="curve" smooth="yes"/>
      <point x="343.86876917450104" y="682.9607260819643"/>
      <point x="348.6003909856619" y="658.71138510678"/>
      <point x="339.2093627958306" y="654.9133579619084" type="curve" smooth="yes"/>
      <point x="236.57088165872057" y="592.0321197606796"/>
      <point x="121.59577613435461" y="481.3104017613749"/>
      <point x="89.32346459663373" y="323.5120831317958" type="curve" smooth="yes"/>
      <point x="57.38240654973343" y="132.33941145445704"/>
      <point x="192.70450040521703" y="-40.20393749787389"/>
      <point x="446.96143338086375" y="-42.00026301780952" type="curve" smooth="yes"/>
      <point x="590.3193574831658" y="-41.43319267478153"/>
      <point x="724.3561303094285" y="21.56127507526298"/>
      <point x="796.6832578918813" y="85.00834849778633" type="curve" smooth="yes"/>
      <point x="805.2065480480474" y="97.31909637344744"/>
      <point x="769.1943010184975" y="95.01286442259638"/>
      <point x="769.7138923313402" y="88.20592611329046" type="curve" smooth="yes"/>
      <point x="841.7277432884397" y="-7.724391091990729" type="line" smooth="yes"/>
      <point x="882.2929816982562" y="-40.557338243049806"/>
      <point x="952.8511284065876" y="-42.62534173414967"/>
      <point x="1011.3663178617508" y="-17.845485133266884" type="curve" smooth="yes"/>
      <point x="1078.4126068862063" y="10.562210833392667"/>
      <point x="1108.1188311802598" y="61.82468901353951"/>
      <point x="1072.3974825976031" y="102.01857438110356" type="curve" smooth="yes"/>
      <point x="973.00200723663" y="235.92151822186548" type="line" smooth="yes"/>
      <point x="969.9357281329933" y="245.7440825986744"/>
      <point x="970.1789007734619" y="272.53187677979"/>
      <point x="977.6217906317487" y="287.23256342785936" type="curve" smooth="yes"/>
      <point x="1022.6385316508075" y="344.210460917209"/>
      <point x="1089.2327926566047" y="460.03264748143874"/>
      <point x="1146.715128706073" y="582.5750373755947" type="curve" smooth="yes"/>
      <point x="1172.3285496975777" y="629.4126595501756"/>
      <point x="1144.2663975676446" y="682.7872189670836"/>
      <point x="1061.1442396244995" y="692.8035760864268" type="curve" smooth="yes"/>
      <point x="996.3241619973178" y="701.0787887873809"/>
      <point x="930.8646180780938" y="684.9849182192729"/>
      <point x="899.1672284069343" y="636.1411953851712" type="curve" smooth="yes"/>
      <point x="859.3226362516257" y="546.2911667621778"/>
      <point x="815.2238628180489" y="459.0326680338582"/>
      <point x="787.0073479732333" y="416.2268986765822" type="curve" smooth="yes"/>
      <point x="792.4989013877907" y="427.4040728024187"/>
      <point x="823.6412949437902" y="430.27373857096336"/>
      <point x="844.886481357689" y="410.8732388387704" type="curve" smooth="yes"/>
      <point x="623.609227257597" y="710.8305390974259" type="line" smooth="yes"/>
      <point x="576.4511570568084" y="778.5878236553543"/>
      <point x="559.6152483926749" y="833.5121396146496"/>
      <point x="574.3286140422937" y="916.4672603085825" type="curve" smooth="yes"/>
      <point x="587.4108145191304" y="1018.1508793539477"/>
      <point x="646.9026487545214" y="1102.76074097802"/>
      <point x="749.3459905486008" y="1100.9989623155325" type="curve" smooth="yes"/>
      <point x="824.0669841339331" y="1101.291810667502"/>
      <point x="877.493474408393" y="1077.3010701429334"/>
      <point x="930.4922459441073" y="1034.0720620008171" type="curve" smooth="yes"/>
      <point x="976.0071823348063" y="1012.5061283055378"/>
      <point x="1056.4361742938454" y="1015.8165612577923"/>
      <point x="1107.4356299722128" y="1069.4668231590085" type="curve" smooth="yes"/>
      <point x="1151.240116070667" y="1122.880232634452"/>
      <point x="1141.0357759081123" y="1173.3560046966925"/>
      <point x="1093.0416319831436" y="1198.470332726668" type="curve" smooth="yes"/>
      <point x="1009.0433507707952" y="1253.7781229381017"/>
      <point x="897.4253049803687" y="1288.7584665764477"/>
      <point x="776.6073440367509" y="1289.0002379697878" type="curve" smooth="yes"/>
      <point x="537.1314068092236" y="1287.618047217787"/>
      <point x="343.79102748092555" y="1125.7382511155956"/>
    </contour>
    <contour>
      <point x="643.468454536562" y="261.1411992938585" type="line" smooth="yes"/>
      <point x="645.2649420995407" y="257.1767503324624"/>
      <point x="646.9359274514084" y="235.38308151030284"/>
      <point x="640.6363736138832" y="227.26809296113228" type="curve" smooth="yes"/>
      <point x="605.7513686953463" y="187.74715690045107"/>
      <point x="545.4482836726165" y="145.2828060322967"/>
      <point x="473.03021363564636" y="146.0003620552372" type="curve" smooth="yes"/>
      <point x="374.2548449421021" y="144.19633550514376"/>
      <point x="340.3932898557153" y="209.9650290149579"/>
      <point x="361.4653816223578" y="316.66850244456646" type="curve" smooth="yes"/>
      <point x="374.3058570099462" y="409.32100857861025"/>
      <point x="418.5102942376602" y="471.3669296493474"/>
      <point x="473.52318015099195" y="509.34074493810084" type="curve" smooth="yes"/>
      <point x="480.47141778159033" y="521.0161339169761"/>
      <point x="466.23714422459716" y="518.6620725744814"/>
      <point x="461.48446346863346" y="507.31250324857496" type="curve" smooth="yes"/>
    </contour>
  </outline>
</glyph>
<glyph name="quotesingle" format="2">
  <advance width="409"/>
  <unicode hex="0027"/>
  <outline>
    <contour>
      <point x="346.1954704534559" y="1289.0004133450425" type="line" smooth="yes"/>
      <point x="295.3155206883968" y="1288.7128808229627"/>
      <point x="244.2701107781554" y="1259.8696931572094"/>
      <point x="236.67358131687226" y="1220.042509366423" type="curve" smooth="yes"/>
      <point x="212.3131839430966" y="770.162474295131" type="line" smooth="yes"/>
      <point x="214.8609975493525" y="729.5739721571755"/>
      <point x="270.1827024912455" y="695.4419223020069"/>
      <point x="330.62641977431815" y="694.999927464199" type="curve" smooth="yes"/>
      <point x="389.22621472410145" y="695.5617734122108"/>
      <point x="446.5971271301916" y="724.2520085846668"/>
      <point x="465.7047077455243" y="763.328379750429" type="curve" smooth="yes"/>
      <point x="600.1071044925716" y="1213.2400864377455" type="line" smooth="yes"/>
      <point x="611.9105133256511" y="1252.0215243513233"/>
      <point x="565.4869964170595" y="1289.1645900602646"/>
      <point x="510.64220861091036" y="1289.0006314902712" type="curve" smooth="yes"/>
    </contour>
  </outline>
</glyph>
<glyph name="parenleft" format="2">
  <advance width="709"/>
  <unicode hex="0028"/>
  <outline>
    <contour>
      <point x="113.07049826816878" y="520.4793410454688" type="curve" smooth="yes"/>
      <point x="38.45260349640097" y="90.6944831471411"/>
      <point x="250.99526129308373" y="-216.64495002923007"/>
      <point x="462.723785285977" y="-353.4833128758672" type="curve" smooth="yes"/>
      <point x="525.633121509457" y="-373.9568042461374"/>
      <point x="594.0157448333817" y="-347.32687296108776"/>
      <point x="625.9517382282243" y="-315.2537016827628" type="curve" smooth="yes"/>
      <point x="655.2730484985273" y="-283.1071181602736"/>
      <point x="675.3278226719632" y="-233.07924367236976"/>
      <point x="633.8705138083031" y="-203.59467318417796" type="curve" smooth="yes"/>
      <point x="465.7500816007019" y="-76.44461218732452"/>
      <point x="313.94142413870907" y="149.40092789599547"/>
      <point x="379.24703552861587" y="513.5345936408231" type="curve" smooth="yes"/>
      <point x="438.87360060931815" y="878.7671820858225"/>
      <point x="673.8036897000387" y="1112.2977120299524"/>
      <point x="888.732436403936" y="1240.6212804601646" type="curve" smooth="yes"/>
      <point x="936.1448837259444" y="1264.0013572700445"/>
      <point x="940.3687135623652" y="1315.388613629672"/>
      <point x="923.6655759751343" y="1348.7576932002885" type="curve" smooth="yes"/>
      <point x="901.6121086313852" y="1382.0198023174328"/>
      <point x="835.1443498255114" y="1412.0383182812961"/>
      <point x="769.2593613065342" y="1392.5068165527844" type="curve" smooth="yes"/>
      <point x="512.5611383892387" y="1256.7241067789366"/>
      <point x="193.56986131786698" y="949.2292562235463"/>
    </contour>
  </outline>
</glyph>
<glyph name="parenright" format="2">
  <advance width="709"/>
  <unicode hex="0029"/>
  <outline>
    <contour>
      <point x="286.9858320554155" y="1353.253701682763" type="curve" smooth="yes"/>
      <point x="257.66452178511247" y="1321.1071181602736"/>
      <point x="237.60974761167643" y="1271.0792436723698"/>
      <point x="279.06943930068593" y="1241.5957130178842" type="curve" smooth="yes"/>
      <point x="446.917340733105" y="1114.536653300721"/>
      <point x="598.2700957735261" y="884.6441886321893"/>
      <point x="532.9849610269414" y="520.4662156112104" type="curve" smooth="yes"/>
      <point x="473.4071195576321" y="155.26486508264054"/>
      <point x="239.35193635672178" y="-74.24263947568551"/>
      <point x="24.20388519319324" y="-202.6208655589906" type="curve" smooth="yes"/>
      <point x="-23.207313442304667" y="-226.00135727004465"/>
      <point x="-27.43114327872538" y="-277.38861362967197"/>
      <point x="-10.728005691494499" y="-310.7576932002883" type="curve" smooth="yes"/>
      <point x="11.325461652254468" y="-344.01980231743266"/>
      <point x="77.79322045812832" y="-374.0383182812962"/>
      <point x="143.6765748378924" y="-354.50635710159474" type="curve" smooth="yes"/>
      <point x="400.1961934574087" y="-218.77257188922582"/>
      <point x="718.6201276903956" y="84.74436802103381"/>
      <point x="799.1615759729492" y="513.5212349156376" type="curve" smooth="yes"/>
      <point x="873.798984819404" y="943.2698610197605"/>
      <point x="662.160495383908" y="1254.5623252925109"/>
      <point x="450.2172744983917" y="1391.4845121902363" type="curve" smooth="yes"/>
      <point x="387.30444877418256" y="1411.9568042461374"/>
      <point x="318.921825450258" y="1385.3268729610877"/>
    </contour>
  </outline>
</glyph>
<glyph name="asterisk" format="2">
  <advance width="1200"/>
  <unicode hex="002A"/>
  <outline>
    <contour>
      <point x="1161.9878215384977" y="627.3724461393635" type="line" smooth="yes"/>
      <point x="1241.5816581826118" y="642.1844421808025"/>
      <point x="1302.602817289296" y="697.0380014238133"/>
      <point x="1295.3480939072595" y="767.8155015345435" type="curve" smooth="yes"/>
      <point x="1275.7321827882668" y="838.3264378100683"/>
      <point x="1184.4496827413368" y="867.9822024933405"/>
      <point x="1103.230650242489" y="842.4089130255622" type="curve" smooth="yes"/>
      <point x="793.595608996417" y="711.9431007261738" type="line" smooth="yes"/>
      <point x="769.1457126491199" y="720.4913564831669"/>
      <point x="803.9291902914088" y="716.6769058087548"/>
      <point x="841.4706926865219" y="715.7427582938639" type="curve" smooth="yes"/>
      <point x="932.3465082809814" y="1024.3277152931262" type="line" smooth="yes"/>
      <point x="950.4165012451792" y="1089.263453539047"/>
      <point x="891.205658971542" y="1146.1525434007854"/>
      <point x="798.8971209526803" y="1147.0000970683448" type="curve" smooth="yes"/>
      <point x="710.276717103946" y="1146.1327028734952"/>
      <point x="637.9324973859281" y="1096.3781922180215"/>
      <point x="628.815094616127" y="1031.127082619218" type="curve" smooth="yes"/>
      <point x="609.974526605171" y="722.5926763601378" type="line" smooth="yes"/>
      <point x="624.872403191635" y="724.5807407296842"/>
      <point x="671.1022407883481" y="720.7050564954593"/>
      <point x="653.8986065381849" y="711.5003972178815" type="curve" smooth="yes"/>
      <point x="390.8025734072059" y="841.8776836066916" type="line" smooth="yes"/>
      <point x="315.98380816587746" y="867.9579796266531"/>
      <point x="223.44558391662622" y="842.2999839001552"/>
      <point x="180.20757952710633" y="773.9229171109698" type="curve" smooth="yes"/>
      <point x="141.92597646753512" y="704.8488937085319"/>
      <point x="184.34744461251313" y="642.7871307007027"/>
      <point x="264.4338031904394" y="627.4188965972095" type="curve" smooth="yes"/>
      <point x="560.492315471465" y="565.4901664668035" type="line" smooth="yes"/>
      <point x="598.5822157080355" y="557.5130305181184"/>
      <point x="581.1887128840768" y="559.9643419891463"/>
      <point x="538.6907234144539" y="554.5173937576326" type="curve" smooth="yes"/>
      <point x="276.8355390259569" y="312.72355396889714" type="line" smooth="yes"/>
      <point x="216.66398817593966" y="265.1097748336496"/>
      <point x="211.02038795242893" y="196.90839549030846"/>
      <point x="275.4737135918912" y="151.57702054856856" type="curve" smooth="yes"/>
      <point x="348.93738105811417" y="108.75882922334475"/>
      <point x="445.29775447356764" y="127.47132308786527"/>
      <point x="499.1750128737936" y="182.01155249929855" type="curve" smooth="yes"/>
      <point x="707.4365034173372" y="460.4102924959713" type="line" smooth="yes"/>
      <point x="715.3926781529215" y="458.32224897228576"/>
      <point x="671.2155468274814" y="453.3943450819597"/>
      <point x="650.9403788894133" y="464.9006781465829" type="curve" smooth="yes"/>
      <point x="761.6264137733802" y="186.68599938643675" type="line" smooth="yes"/>
      <point x="797.4702445298243" y="129.86468385908296"/>
      <point x="894.220134331642" y="107.70619733122568"/>
      <point x="977.8908244736798" y="150.20009218036196" type="curve" smooth="yes"/>
      <point x="1053.5132804544933" y="192.2551843277359"/>
      <point x="1077.8679726574067" y="259.25034672439847"/>
      <point x="1035.2190670555783" y="309.87778376788367" type="curve" smooth="yes"/>
      <point x="858.6072557354869" y="551.3770662892007" type="line" smooth="yes"/>
      <point x="815.4962350763199" y="549.7943788801072"/>
      <point x="808.3211046208529" y="561.8807382211846"/>
      <point x="844.4625480476193" y="565.3091919191297" type="curve" smooth="yes"/>
    </contour>
  </outline>
</glyph>
<glyph name="plus" format="2">
  <advance width="1132"/>
  <unicode hex="002B"/>
  <outline>
    <contour>
      <point x="300.19932135022066" y="674.0001454676566" type="line" smooth="yes"/>
      <point x="235.54694606136505" y="673.6333583363495"/>
      <point x="179.74601240036077" y="640.5747320684113"/>
      <point x="165.52801837948016" y="585.4908015343664" type="curve" smooth="yes"/>
      <point x="156.34415665829903" y="530.945835091522"/>
      <point x="206.53299577125495" y="490.03255382742543"/>
      <point x="274.78123433515964" y="489.99978070188814" type="curve" smooth="yes"/>
      <point x="536.2858157991059" y="489.9986649560828" type="line" smooth="yes"/>
      <point x="550.0465653864195" y="493.55925057352414"/>
      <point x="522.6202054447871" y="473.49847776671066"/>
      <point x="516.4346079582789" y="465.29634348595687" type="curve" smooth="yes"/>
      <point x="470.33013116315703" y="204.54467696809306" type="line" smooth="yes"/>
      <point x="463.16324697060793" y="155.65690072818245"/>
      <point x="518.8455426954264" y="117.82037154776535"/>
      <point x="590.2960944237202" y="117.9999858017926" type="curve" smooth="yes"/>
      <point x="658.8324216772935" y="118.15003190398366"/>
      <point x="718.0052540496299" y="148.3970297625589"/>
      <point x="732.5107380540884" y="197.58570255996446" type="curve" smooth="yes"/>
      <point x="778.5938251135302" y="458.39413865020845" type="line" smooth="yes"/>
      <point x="775.873071765545" y="475.1206234027648"/>
      <point x="771.4839313325774" y="492.22236010790306"/>
      <point x="775.6589607136914" y="489.99925735336626" type="curve" smooth="yes"/>
      <point x="1037.0452841944325" y="489.9998545323434" type="line" smooth="yes"/>
      <point x="1101.6976594832881" y="490.3666416636505"/>
      <point x="1157.4985931442923" y="523.4252679315887"/>
      <point x="1171.716587165173" y="578.5091984656337" type="curve" smooth="yes"/>
      <point x="1180.900448886354" y="633.054164908478"/>
      <point x="1130.7116097733985" y="673.9674461725745"/>
      <point x="1062.4633712094937" y="674.0002192981119" type="curve" smooth="yes"/>
      <point x="800.9587897455474" y="674.0013350439172" type="line" smooth="yes"/>
      <point x="787.1980401582335" y="670.4407494264759"/>
      <point x="814.624400099866" y="690.5015222332894"/>
      <point x="820.8099975863744" y="698.703656514043" type="curve" smooth="yes"/>
      <point x="866.9144743814961" y="959.455323031907" type="line" smooth="yes"/>
      <point x="874.0813585740453" y="1008.3430992718176"/>
      <point x="818.3990628492268" y="1046.1796284522347"/>
      <point x="746.948511120933" y="1046.0000141982073" type="curve" smooth="yes"/>
      <point x="678.4121838673597" y="1045.8499680960165"/>
      <point x="619.2393514950232" y="1015.6029702374411"/>
      <point x="604.7338674905648" y="966.4142974400355" type="curve" smooth="yes"/>
      <point x="558.650780431123" y="705.6058613497916" type="line" smooth="yes"/>
      <point x="561.3715337791082" y="688.8793765972351"/>
      <point x="565.7606742120759" y="671.7776398920969"/>
      <point x="561.5856448309619" y="674.0007426466337" type="curve" smooth="yes"/>
    </contour>
  </outline>
</glyph>
<glyph name="comma" format="2">
  <advance width="560"/>
  <unicode hex="002C"/>
  <outline>
    <contour>
      <point x="291.2863181740061" y="314.0002160882843" type="line" smooth="yes"/>
      <point x="245.4583647727625" y="313.52476888594225"/>
      <point x="195.60145902915792" y="291.59194174465097"/>
      <point x="176.1539120511591" y="260.92289841941596" type="curve" smooth="yes"/>
      <point x="-2.9059311895511435" y="-220.98465107536936" type="line" smooth="yes"/>
      <point x="-21.413281739074584" y="-268.2691233203271"/>
      <point x="33.10956731628365" y="-313.946597618772"/>
      <point x="111.48992902459773" y="-314.00070315168455" type="curve" smooth="yes"/>
      <point x="168.95882581581097" y="-313.8333851256833"/>
      <point x="226.63207362188248" y="-295.76829716382116"/>
      <point x="256.0798464212216" y="-263.4319930781929" type="curve" smooth="yes"/>
      <point x="553.4932590023061" y="220.5094908541134" type="line" smooth="yes"/>
      <point x="582.375230265189" y="258.51722053987714"/>
      <point x="556.8870955961196" y="311.4477542901249"/>
      <point x="486.12613264355923" y="314.0050077819368" type="curve" smooth="yes"/>
    </contour>
  </outline>
</glyph>
<glyph name="period" format="2">
  <advance width="454"/>
  <unicode hex="002E"/>
  <outline>
    <contour>
      <point x="74.7823399774251" y="240.23654906217078" type="curve" smooth="yes"/>
      <point x="42.15620624204689" y="56.803414268862056" type="line" smooth="yes"/>
      <point x="39.850856007126254" y="0.6968337018404887"/>
      <point x="119.75014912655097" y="-30.050980182486807"/>
      <point x="225.23310973131186" y="-30.000000135731057" type="curve" smooth="yes"/>
      <point x="329.37851515974205" y="-29.95071080800649"/>
      <point x="409.3027270227455" y="-4.15280924612075"/>
      <point x="430.3524844280298" y="49.76345093782922" type="curve" smooth="yes"/>
      <point x="462.978618163408" y="233.19658573113793" type="line" smooth="yes"/>
      <point x="465.2839683983286" y="289.3031662981595"/>
      <point x="385.3846752789039" y="320.0509801824868"/>
      <point x="279.901714674143" y="320.00000013573106" type="curve" smooth="yes"/>
      <point x="175.7563092457128" y="319.9507108080065"/>
      <point x="95.83209738270932" y="294.15280924612074"/>
    </contour>
  </outline>
</glyph>
<glyph name="slash" format="2">
  <advance width="1017"/>
  <unicode hex="002F"/>
  <outline>
    <contour>
      <point x="955.1008240303053" y="1368.0968940787725" type="curve" smooth="yes"/>
      <point x="-6.681395578315755" y="-274.8475177350798" type="line" smooth="yes"/>
      <point x="-36.316828251932876" y="-327.7690386190872"/>
      <point x="38.71178729328873" y="-374.7061879783432"/>
      <point x="121.73083135684266" y="-375.0000793984616" type="curve" smooth="yes"/>
      <point x="169.55630889490726" y="-374.50474006182793"/>
      <point x="220.35454245691847" y="-354.46466192774625"/>
      <point x="244.93185762149707" y="-329.09689407877255" type="curve" smooth="yes"/>
      <point x="1206.714077230118" y="1313.8475177350797" type="line" smooth="yes"/>
      <point x="1236.349509903735" y="1366.7690386190873"/>
      <point x="1161.3208943585137" y="1413.7061879783432"/>
      <point x="1078.3018502949596" y="1414.0000793984616" type="curve" smooth="yes"/>
      <point x="1030.476372756895" y="1413.504740061828"/>
      <point x="979.6781391948838" y="1393.4646619277462"/>
    </contour>
  </outline>
</glyph>
<glyph name="zero" format="2">
  <advance width="1080"/>
  <unicode hex="0030"/>
  <outline>
    <contour>
      <point x="161.4723080202756" y="596.4764057042945" type="curve" smooth="yes"/>
      <point x="95.61126578593098" y="221.45476304963668"/>
      <point x="243.32030408181492" y="-38.9380408360729"/>
      <point x="536.0496018791622" y="-42.00005250100207" type="curve" smooth="yes"/>
      <point x="824.1275143393673" y="-39.75262274897386"/>
      <point x="1058.0825295185048" y="215.0153565124355"/>
      <point x="1127.651451393529" y="589.5237157240479" type="curve" smooth="yes"/>
      <point x="1193.51529281667" y="964.5378862900553"/>
      <point x="1046.0797193455057" y="1225.9146405619042"/>
      <point x="753.2511677896896" y="1229.0000534543321" type="curve" smooth="yes"/>
      <point x="465.0940270359061" y="1226.7379712785403"/>
      <point x="231.0319396131219" y="970.9785516710738"/>
    </contour>
    <contour>
      <point x="336.1350744086579" y="444.6102718739416" type="line" smooth="yes"/>
      <point x="346.6948574289136" y="466.0360612556752"/>
      <point x="376.5382009790774" y="454.2227102459878"/>
      <point x="418.06850281933197" y="438.58745201866424" type="curve" smooth="yes"/>
      <point x="417.7873908053755" y="465.27375308788066"/>
      <point x="422.29999226991464" y="523.7866478009958"/>
      <point x="433.6602533793086" y="589.4966430263335" type="curve" smooth="yes"/>
      <point x="482.59982585416924" y="883.1197807860434"/>
      <point x="599.4655080014209" y="1043.6603037469954"/>
      <point x="726.750798938678" y="1040.9988577031527" type="curve" smooth="yes"/>
      <point x="792.4484071602053" y="1042.1224919865047"/>
      <point x="825.860281167014" y="1000.0593194905147"/>
      <point x="835.464591785142" y="954.4873271816012" type="curve" smooth="yes"/>
      <point x="839.0157317110564" y="942.6718016962552"/>
      <point x="837.8357444296183" y="917.529887466925"/>
      <point x="830.3721999644089" y="906.2408478285168" type="curve" smooth="yes"/>
    </contour>
    <contour>
      <point x="855.4635000999012" y="596.5034981740903" type="curve" smooth="yes"/>
      <point x="806.5330256836619" y="302.88963737524045"/>
      <point x="689.9598023998471" y="143.36052666271536"/>
      <point x="562.5480213531758" y="146.00113333192166" type="curve" smooth="yes"/>
      <point x="496.8809038311046" y="144.8943744317213"/>
      <point x="463.4902064882271" y="186.5208367372186"/>
      <point x="453.91886220366604" y="231.7253768676801" type="curve" smooth="yes"/>
      <point x="450.4184243081732" y="243.37082767581416"/>
      <point x="451.48771769475564" y="268.3110992546938"/>
      <point x="458.85369577432726" y="279.4839213453077" type="curve" smooth="yes"/>
      <point x="953.0277035713821" y="741.2487042079022" type="line" smooth="yes"/>
      <point x="942.4745032868451" y="719.8277692252896"/>
      <point x="912.5934953713147" y="731.6621251260681"/>
      <point x="871.0694391795755" y="747.2872009440631" type="curve" smooth="yes"/>
      <point x="871.3297140588722" y="720.5834473405088"/>
      <point x="866.8050039369223" y="662.1045516686287"/>
    </contour>
  </outline>
</glyph>
<glyph name="one" format="2">
  <advance width="1080"/>
  <unicode hex="0031"/>
  <outline>
    <contour>
      <point x="481.21689580633745" y="981.5803695704809" type="line" smooth="yes"/>
      <point x="457.0653403284049" y="958.5711198589761"/>
      <point x="440.9062343640182" y="917.1266310354329"/>
      <point x="442.0283469711024" y="869.4166994088517" type="curve" smooth="yes"/>
      <point x="451.4676992342108" y="822.888627143781"/>
      <point x="535.7365061232393" y="808.5753568625872"/>
      <point x="575.3907551694547" y="826.9967881823392" type="curve" smooth="yes"/>
      <point x="662.2387920514398" y="940.3343172833102" type="line" smooth="yes"/>
      <point x="668.4710503237674" y="936.4796888039889"/>
      <point x="611.7490177408386" y="950.1331336626232"/>
      <point x="578.3453809497413" y="949.427244169191" type="curve" smooth="yes"/>
      <point x="444.1574245629159" y="188.67492804271546" type="line" smooth="yes"/>
      <point x="446.88200157246865" y="176.38588414590137"/>
      <point x="457.122806512882" y="161.56709009008995"/>
      <point x="455.97122622537273" y="164.0130304677372" type="curve" smooth="yes"/>
      <point x="396.1159083064069" y="164.03747207926043" type="line" smooth="yes"/>
      <point x="345.3694285932088" y="159.9950066506012"/>
      <point x="314.1236390370077" y="128.20687708918095"/>
      <point x="303.283834049764" y="75.47397285561657" type="curve" smooth="yes"/>
      <point x="293.33751549965666" y="23.295198176865387"/>
      <point x="312.86895680013345" y="-14.114758238990694"/>
      <point x="371.92352454259185" y="-20.005108611195062" type="curve" smooth="yes"/>
      <point x="713.9740528291297" y="-20.002315071388058" type="line" smooth="yes"/>
      <point x="766.1487436881138" y="-15.995006650601217"/>
      <point x="797.3945332443151" y="15.793122910819001"/>
      <point x="808.2343382315588" y="68.52602714438345" type="curve" smooth="yes"/>
      <point x="818.180656781666" y="120.70480182313464"/>
      <point x="798.6492154811893" y="158.1147582389907"/>
      <point x="741.7084300428643" y="164.08236223240394" type="curve" smooth="yes"/>
      <point x="683.3729734006808" y="164.0280288696291" type="line" smooth="yes"/>
      <point x="656.7698342776939" y="167.80895561372125"/>
      <point x="692.275855105751" y="184.7438415692992"/>
      <point x="711.955769500847" y="179.5889248088636" type="curve" smooth="yes"/>
      <point x="883.7456678680361" y="1153.4224800484399" type="line" smooth="yes"/>
      <point x="884.6068491776185" y="1219.9944319285423"/>
      <point x="780.7408834958343" y="1243.769415318803"/>
      <point x="699.4499214830354" y="1214.0724733996794" type="curve" smooth="yes"/>
    </contour>
  </outline>
</glyph>
<glyph name="two" format="2">
  <advance width="1080"/>
  <unicode hex="0032"/>
  <outline>
    <contour>
      <point x="335.06468378805863" y="1111.9634267894528" type="curve" smooth="yes"/>
      <point x="285.9198671527879" y="1086.77185300382"/>
      <point x="256.82531557287973" y="1039.3988293081682"/>
      <point x="281.8366299370448" y="987.9777638160205" type="curve" smooth="yes"/>
      <point x="319.0196799234155" y="936.2798294941435"/>
      <point x="402.4800612018194" y="926.9687381712831"/>
      <point x="455.4518336586799" y="950.1784721761421" type="curve" smooth="yes"/>
      <point x="542.6872134047744" y="1007.8963274306102"/>
      <point x="632.6372243227063" y="1041.3257887905309"/>
      <point x="711.2746399065852" y="1040.9996194058817" type="curve" smooth="yes"/>
      <point x="839.8163770558867" y="1042.5825606550277"/>
      <point x="866.0159847333043" y="975.6294840272981"/>
      <point x="844.4082106565469" y="862.3777792486765" type="curve" smooth="yes"/>
      <point x="831.5705458157794" y="768.5496208128252"/>
      <point x="781.8392149226754" y="701.3744574750142"/>
      <point x="646.0203779481642" y="583.159756650509" type="curve" smooth="yes"/>
      <point x="127.32775988820566" y="137.16650039704808" type="line" smooth="yes"/>
      <point x="105.44714866624741" y="122.79244707176301"/>
      <point x="89.20380961458378" y="99.24146180850988"/>
      <point x="82.85492208952108" y="71.6206409158249" type="curve" smooth="yes"/>
      <point x="74.2619982842758" y="18.76843599000054"/>
      <point x="126.15366489693733" y="-20.152762102808428"/>
      <point x="192.94993973678828" y="-20.000025950038356" type="curve" smooth="yes"/>
      <point x="887.0499858908754" y="-20.000025872989895" type="line" smooth="yes"/>
      <point x="951.770899321971" y="-19.633358336349513"/>
      <point x="1007.5718329829754" y="13.425267931588648"/>
      <point x="1021.789827003856" y="68.5091984656337" type="curve" smooth="yes"/>
      <point x="1030.9736887250372" y="123.054164908478"/>
      <point x="980.7848496120812" y="163.9674461725745"/>
      <point x="912.4795928656797" y="164.00008111742568" type="curve" smooth="yes"/>
      <point x="447.0445206845555" y="164.0005442485666" type="line" smooth="yes"/>
      <point x="412.18288557792187" y="174.26362400338104"/>
      <point x="430.6225487081515" y="155.07123851820543"/>
      <point x="478.0268780308874" y="163.08381769868276" type="curve" smooth="yes"/>
      <point x="825.2572960940383" y="461.84282340339854" type="line" smooth="yes"/>
      <point x="979.9655698187643" y="593.5444607087783"/>
      <point x="1086.0554980662089" y="705.457381388908"/>
      <point x="1116.573163537943" y="855.4657078968581" type="curve" smooth="yes"/>
      <point x="1154.4090531804281" y="1084.4866079070157"/>
      <point x="990.1592390613027" y="1227.981488996677"/>
      <point x="736.2863241475555" y="1229.0001185651436" type="curve" smooth="yes"/>
      <point x="607.1608823356579" y="1228.7286303458864"/>
      <point x="455.781423381622" y="1184.1815521912163"/>
    </contour>
  </outline>
</glyph>
<glyph name="three" format="2">
  <advance width="1080"/>
  <unicode hex="0033"/>
  <outline>
    <contour>
      <point x="365.0004750356212" y="1130.6573681043076" type="curve" smooth="yes"/>
      <point x="314.0742121724716" y="1108.4446437873175"/>
      <point x="280.73914337371275" y="1061.632259613782"/>
      <point x="301.75408735881115" y="1007.238023925992" type="curve" smooth="yes"/>
      <point x="334.7155614707085" y="954.2516600432485"/>
      <point x="416.16642154308056" y="943.7368803182713"/>
      <point x="468.82883538810637" y="963.5027409618165" type="curve" smooth="yes"/>
      <point x="562.0230677721415" y="1016.526285646337"/>
      <point x="639.8142158041026" y="1041.2149365286193"/>
      <point x="718.4895011787364" y="1040.999732329959" type="curve" smooth="yes"/>
      <point x="846.4872739749163" y="1042.2786095752422"/>
      <point x="873.5660129214705" y="984.6684338251189"/>
      <point x="853.1698998783897" y="882.4092361570905" type="curve" smooth="yes"/>
      <point x="838.6823689765033" y="767.7328021379197"/>
      <point x="785.3589542770874" y="710.1747791067082"/>
      <point x="647.2421914857217" y="711.000247017791" type="curve" smooth="yes"/>
      <point x="591.8032141565434" y="711.0008383277141" type="line" smooth="yes"/>
      <point x="528.6433712409397" y="710.7802264954641"/>
      <point x="472.26337011239684" y="679.743368041948"/>
      <point x="458.00202340989273" y="626.4944953153533" type="curve" smooth="yes"/>
      <point x="449.3692708856731" y="573.7684359900005"/>
      <point x="501.26093749833467" y="534.8472378971916"/>
      <point x="567.8139720230186" y="534.9991091778642" type="curve" smooth="yes"/>
      <point x="641.2756224031965" y="534.9997065182399" type="line" smooth="yes"/>
      <point x="780.7102141962089" y="536.0734797351079"/>
      <point x="821.3847882164688" y="477.62165353200703"/>
      <point x="796.0148549407086" y="348.39866611807514" type="curve" smooth="yes"/>
      <point x="779.3611400997811" y="223.33687335347847"/>
      <point x="711.8613515301348" y="144.9272281238898"/>
      <point x="560.5573418481381" y="146.00009216819336" type="curve" smooth="yes"/>
      <point x="466.293281543154" y="145.5759757821508"/>
      <point x="386.360124178354" y="185.12335451248597"/>
      <point x="320.1479280180564" y="246.9083285011621" type="curve" smooth="yes"/>
      <point x="270.0862492338614" y="272.95156715966755"/>
      <point x="188.45596443066236" y="264.6324100330332"/>
      <point x="137.10842893219095" y="215.444995937722" type="curve" smooth="yes"/>
      <point x="91.78584292902937" y="166.24614517607307"/>
      <point x="98.69563395337505" y="115.25853640073555"/>
      <point x="140.9658370240781" y="88.57758883394617" type="curve" smooth="yes"/>
      <point x="240.6516638542594" y="10.642976547735406"/>
      <point x="390.09856549405293" y="-41.66252442032403"/>
      <point x="534.4456013502426" y="-42.00006462035502" type="curve" smooth="yes"/>
      <point x="816.1886834592498" y="-40.97473793585896"/>
      <point x="1022.546810221149" y="118.13530211486925"/>
      <point x="1068.1607063410308" y="341.5463956805043" type="curve" smooth="yes"/>
      <point x="1093.0370414933755" y="486.2570055714536"/>
      <point x="1022.2678742903414" y="596.1460136652727"/>
      <point x="930.9611193731407" y="632.2314703586325" type="curve" smooth="yes"/>
      <point x="890.0824985059066" y="638.9234900135866"/>
      <point x="891.8952147079746" y="624.3613701335474"/>
      <point x="937.3032117737116" y="633.199549486301" type="curve" smooth="yes"/>
      <point x="1009.1796183641135" y="663.4128751204352"/>
      <point x="1099.330123973202" y="751.5032775686781"/>
      <point x="1125.352313313761" y="875.4442512382087" type="curve" smooth="yes"/>
      <point x="1159.274063959342" y="1084.9768693584704"/>
      <point x="995.4655835161979" y="1227.9619656055718"/>
      <point x="743.5453838616867" y="1229.0001497747185" type="curve" smooth="yes"/>
      <point x="620.8987978146541" y="1228.8058363258767"/>
      <point x="489.0669832371348" y="1194.5088447159055"/>
    </contour>
  </outline>
</glyph>
<glyph name="four" format="2">
  <advance width="1080"/>
  <unicode hex="0034"/>
  <outline>
    <contour>
      <point x="733.6039181368677" y="1160.906418178877" type="curve" smooth="yes"/>
      <point x="122.12892225103333" y="437.9237537327987" type="line" smooth="yes"/>
      <point x="107.66011021093033" y="425.51170197060185"/>
      <point x="93.72015583760357" y="402.6270065773535"/>
      <point x="88.16091468753356" y="379.6295099646638" type="curve" smooth="yes"/>
      <point x="79.41135404715564" y="326.22278279719444"/>
      <point x="128.7272811926055" y="282.49067926358254"/>
      <point x="199.1239758523844" y="281.9998335810366" type="curve" smooth="yes"/>
      <point x="629.471886087706" y="281.9994936094242" type="line" smooth="yes"/>
      <point x="643.3705533990591" y="285.55925057352414"/>
      <point x="615.9441934574265" y="265.4984777667106"/>
      <point x="609.7771518077133" y="257.24418089663305" type="curve" smooth="yes"/>
      <point x="574.5875097962833" y="58.541159183187695" type="line" smooth="yes"/>
      <point x="566.8588941394946" y="9.628199108010396"/>
      <point x="620.2569174089415" y="-30.186073578853424"/>
      <point x="695.7829353343188" y="-30.002132571322733" type="curve" smooth="yes"/>
      <point x="698.6227045336803" y="-30.001542737874367" type="line" smooth="yes"/>
      <point x="771.147875446765" y="-29.84486675793068"/>
      <point x="828.895667372007" y="2.1251305757712364"/>
      <point x="842.767526368296" y="51.58413034400778" type="curve" smooth="yes"/>
      <point x="877.9297640536647" y="250.35512900862932" type="line" smooth="yes"/>
      <point x="875.1970597781842" y="267.1206234027648"/>
      <point x="870.8079193452169" y="284.22236010790306"/>
      <point x="874.6703892900971" y="281.9965118213105" type="curve" smooth="yes"/>
      <point x="989.4724903743396" y="281.99949083804296" type="line" smooth="yes"/>
      <point x="1054.0216474959275" y="282.3666416636505"/>
      <point x="1109.8225811569316" y="315.4252679315887"/>
      <point x="1124.0405751778123" y="370.5091984656337" type="curve" smooth="yes"/>
      <point x="1133.2244368989934" y="425.05416490847796"/>
      <point x="1083.035597786038" y="465.9674461725745"/>
      <point x="1014.9133062621405" y="466.00076316077013" type="curve" smooth="yes"/>
      <point x="899.8571778306214" y="466.0063768820324" type="line" smooth="yes"/>
      <point x="886.522028170873" y="462.44074942647586"/>
      <point x="913.9483881125054" y="482.50152223328934"/>
      <point x="920.1693392906377" y="490.6011588932236" type="curve" smooth="yes"/>
      <point x="1032.525101616835" y="1127.4937560743654" type="line" smooth="yes"/>
      <point x="1040.387864796487" y="1179.0497816943393"/>
      <point x="986.297277465474" y="1228.3704852721044"/>
      <point x="900.4410094290242" y="1229.000709146194" type="curve" smooth="yes"/>
      <point x="833.9360120525254" y="1228.5832320055556"/>
      <point x="774.4947674996508" y="1203.6553212693082"/>
    </contour>
    <contour>
      <point x="653.0495414924604" y="497.81569194292945" type="line" smooth="yes"/>
      <point x="655.6262279644964" y="480.95002096799146"/>
      <point x="659.2589322931881" y="463.828686600659"/>
      <point x="655.1452942430744" y="466.00078698534986" type="curve" smooth="yes"/>
      <point x="404.1746689416431" y="466.00226009129256" type="line" smooth="yes"/>
      <point x="370.3629696214642" y="475.6371185423067"/>
      <point x="392.7171345387298" y="468.53816325901437"/>
      <point x="436.0623139486653" y="473.6052297509205" type="curve" smooth="yes"/>
      <point x="820.0409277621704" y="938.967406429315" type="line" smooth="yes"/>
      <point x="827.8797277108242" y="934.4150792057465"/>
      <point x="773.0515539961112" y="948.1970011550164"/>
      <point x="738.8601336058848" y="947.6675369014921" type="curve" smooth="yes"/>
    </contour>
  </outline>
</glyph>
<glyph name="five" format="2">
  <advance width="1080"/>
  <unicode hex="0035"/>
  <outline>
    <contour>
      <point x="502.29080342035337" y="1207.0000198070404" type="line" smooth="yes"/>
      <point x="429.31667488673054" y="1206.8214130570318"/>
      <point x="373.0113527982012" y="1175.1281377257953"/>
      <point x="357.24168460434277" y="1126.2135061352164" type="curve" smooth="yes"/>
      <point x="249.0523716857735" y="626.2779567224876" type="line" smooth="yes"/>
      <point x="238.97025886548542" y="576.1919949521825"/>
      <point x="295.95015404729395" y="536.8116388138336"/>
      <point x="370.96554417690766" y="536.999170669733" type="curve" smooth="yes"/>
      <point x="399.315653647932" y="537.032932423625"/>
      <point x="430.2895002248993" y="541.1444593785584"/>
      <point x="454.1430770140288" y="549.9741366236626" type="curve" smooth="yes"/>
      <point x="522.6228747197318" y="593.9905027557387"/>
      <point x="576.5940650574645" y="618.2547835382301"/>
      <point x="662.8370176287856" y="617.9990304190842" type="curve" smooth="yes"/>
      <point x="789.8592110711907" y="620.0966686300917"/>
      <point x="831.1267558437421" y="529.3206095806623"/>
      <point x="805.0143761200572" y="389.4540633964106" type="curve" smooth="yes"/>
      <point x="784.0542610069145" y="240.1216060035222"/>
      <point x="697.1933450144031" y="144.67806453438786"/>
      <point x="552.3989203855682" y="146.00022470231843" type="curve" smooth="yes"/>
      <point x="460.80172940559373" y="145.59792682854757"/>
      <point x="381.71608821083527" y="183.32823543227374"/>
      <point x="315.8996938261837" y="241.21368329179018" type="curve" smooth="yes"/>
      <point x="266.7246206413226" y="266.9423556683595"/>
      <point x="185.1866170447149" y="258.6324100330332"/>
      <point x="133.8110666984185" y="209.46394870929055" type="curve" smooth="yes"/>
      <point x="88.04371151547599" y="159.73414341066868"/>
      <point x="97.77063878486254" y="108.04512151651794"/>
      <point x="140.3921035078187" y="81.33526565727081" type="curve" smooth="yes"/>
      <point x="239.7984902339863" y="7.474734408562885"/>
      <point x="385.28337819470886" y="-41.68610154947493"/>
      <point x="526.2659228729086" y="-42.000126904531456" type="curve" smooth="yes"/>
      <point x="806.0145564201487" y="-40.710300171663576"/>
      <point x="1028.7418990371334" y="142.18593926593832"/>
      <point x="1077.1859039020273" y="382.52455743491083" type="curve" smooth="yes"/>
      <point x="1118.0828659264848" y="622.1883106531566"/>
      <point x="971.6161727424237" y="804.2763234465284"/>
      <point x="701.849044077213" y="806.0005086212625" type="curve" smooth="yes"/>
      <point x="614.8550561415994" y="805.8395582894362"/>
      <point x="527.2868374115131" y="784.8540146641889"/>
      <point x="477.65786809142946" y="763.310402863604" type="curve" smooth="yes"/>
      <point x="471.69436036343467" y="781.1335432328782"/>
      <point x="498.23300126292685" y="766.0998812813043"/>
      <point x="541.9692256526992" y="756.8223583670647" type="curve" smooth="yes"/>
      <point x="592.9118024109259" y="990.6639576506303" type="line" smooth="yes"/>
      <point x="590.5653439949439" y="1007.9188016323313"/>
      <point x="588.2903852797687" y="1025.0809987975854"/>
      <point x="592.4550344173564" y="1022.9997199760155" type="curve" smooth="yes"/>
      <point x="1011.0225654236845" y="1022.9999351911667" type="line" smooth="yes"/>
      <point x="1075.7143530074025" y="1023.3666416636505"/>
      <point x="1131.5152866684068" y="1056.4252679315887"/>
      <point x="1145.7332806892875" y="1111.5091984656337" type="curve" smooth="yes"/>
      <point x="1154.9171424104686" y="1166.054164908478"/>
      <point x="1104.7283032975126" y="1206.9674461725747"/>
      <point x="1036.4127105044388" y="1207.000063277643" type="curve" smooth="yes"/>
    </contour>
  </outline>
</glyph>
<glyph name="six" format="2">
  <advance width="1080"/>
  <unicode hex="0036"/>
  <outline>
    <contour>
      <point x="155.69964948270962" y="515.4465422180114" type="curve" smooth="yes"/>
      <point x="129.5417825113954" y="369.5293217436976"/>
      <point x="137.4692891390415" y="254.77262463618402"/>
      <point x="175.483783758992" y="165.52941987881772" type="curve" smooth="yes"/>
      <point x="239.17716868020892" y="29.98234288906045"/>
      <point x="386.6140945390481" y="-41.46094868128745"/>
      <point x="543.6854672959573" y="-42.00004329473878" type="curve" smooth="yes"/>
      <point x="811.3387723314017" y="-40.856304771502"/>
      <point x="1030.6509082091502" y="125.77114970155716"/>
      <point x="1076.8392241407296" y="349.50453038247525" type="curve" smooth="yes"/>
      <point x="1115.848700855388" y="585.712371734523"/>
      <point x="943.0966569446979" y="749.5977416800115"/>
      <point x="698.5294596444185" y="751.0001871501736" type="curve" smooth="yes"/>
      <point x="571.4630518519506" y="750.553626511967"/>
      <point x="437.75413532885125" y="697.9047677859844"/>
      <point x="375.276394773556" y="640.93520632737" type="curve" smooth="yes"/>
      <point x="363.67977372513286" y="645.6087059927457"/>
      <point x="418.6155208264778" y="627.4881392317835"/>
      <point x="455.35048699485895" y="630.7302089446364" type="curve" smooth="yes"/>
      <point x="516.9810146864302" y="849.5697669826899"/>
      <point x="695.849381930575" y="1024.1456610741839"/>
      <point x="1049.8582136533266" y="1042.0232523065433" type="curve" smooth="yes"/>
      <point x="1100.721540334568" y="1044.24662216104"/>
      <point x="1148.09298089146" y="1078.408912651885"/>
      <point x="1156.6479564223098" y="1140.1286519619089" type="curve" smooth="yes"/>
      <point x="1158.7747189256975" y="1199.559918943303"/>
      <point x="1099.5117049703895" y="1230.2984460696844"/>
      <point x="1048.928616754415" y="1228.9814615727407" type="curve" smooth="yes"/>
      <point x="497.3203860472287" y="1203.0601878375583"/>
      <point x="217.11483200405254" y="842.226842761413"/>
    </contour>
    <contour>
      <point x="804.6629276152569" y="356.44875362079614" type="curve" smooth="yes"/>
      <point x="788.3091277314492" y="226.8319303593807"/>
      <point x="704.3341646077781" y="144.86951860723107"/>
      <point x="569.6260238509303" y="146.00008608174585" type="curve" smooth="yes"/>
      <point x="438.07459371563976" y="144.1250700132541"/>
      <point x="392.1918095091734" y="232.33504612148985"/>
      <point x="417.47884162525634" y="364.5207754122773" type="curve" smooth="yes"/>
      <point x="430.92046387546134" y="483.6471853871773"/>
      <point x="520.3732301564045" y="564.0806027932349"/>
      <point x="650.3505551796943" y="562.9999720802243" type="curve" smooth="yes"/>
      <point x="787.2819052932903" y="564.5859087731204"/>
      <point x="829.6552479183122" y="486.4102211504704"/>
    </contour>
  </outline>
</glyph>
<glyph name="seven" format="2">
  <advance width="1080"/>
  <unicode hex="0037"/>
  <outline>
    <contour>
      <point x="436.96696597552335" y="1207.0000557300539" type="line" smooth="yes"/>
      <point x="376.41682145952944" y="1206.420338145762"/>
      <point x="324.95442079734204" y="1172.957137505042"/>
      <point x="311.51235101790417" y="1118.4844961845135" type="curve" smooth="yes"/>
      <point x="302.0405962204645" y="1064.6905530443673"/>
      <point x="346.8787377059692" y="1023.277261867242"/>
      <point x="411.5304082748486" y="1022.9998537703594" type="curve" smooth="yes"/>
      <point x="888.9327066291504" y="1022.9993713543009" type="line" smooth="yes"/>
      <point x="922.6905728401757" y="1015.9156479418579"/>
      <point x="892.5010399723411" y="1009.4998092268913"/>
      <point x="859.4342966851899" y="1007.6150735515357" type="curve" smooth="yes"/>
      <point x="341.91029599251306" y="65.63862990225192" type="line" smooth="yes"/>
      <point x="313.8249005221717" y="18.300699780806664"/>
      <point x="353.2929544756451" y="-29.868400315859482"/>
      <point x="413.6310843740443" y="-39.580897728046935" type="curve" smooth="yes"/>
      <point x="471.45915677166886" y="-48.00420277523512"/>
      <point x="539.1599646202095" y="-26.8193512294971"/>
      <point x="570.4569151322563" y="14.478020982473712" type="curve" smooth="yes"/>
      <point x="1143.5719433798895" y="1069.4555448139688" type="line" smooth="yes"/>
      <point x="1150.5520576892447" y="1079.5728495489936"/>
      <point x="1158.1041407176576" y="1097.0961475853917"/>
      <point x="1162.140493528193" y="1115.3946495429989" type="curve" smooth="yes"/>
      <point x="1171.065637498905" y="1167.410218161046"/>
      <point x="1124.3479137202942" y="1207.0015021247223"/>
      <point x="1061.3358741397153" y="1207.000059731296" type="curve" smooth="yes"/>
    </contour>
  </outline>
</glyph>
<glyph name="eight" format="2">
  <advance width="1080"/>
  <unicode hex="0038"/>
  <outline>
    <contour>
      <point x="268.9116981768407" y="882.4464009686199" type="curve" smooth="yes"/>
      <point x="249.03245202729153" y="762.7314708082785"/>
      <point x="317.99163548117656" y="666.3992249754928"/>
      <point x="382.32749574634965" y="634.1761189483663" type="curve" smooth="yes"/>
      <point x="424.76067258728204" y="629.0231172191451"/>
      <point x="425.01348593888963" y="638.3731051619457"/>
      <point x="380.65827992969236" y="630.0547946108675" type="curve" smooth="yes"/>
      <point x="284.8695486453168" y="593.1618435169688"/>
      <point x="166.91438395585072" y="485.2439212860873"/>
      <point x="136.8400965490961" y="343.5430553731271" type="curve" smooth="yes"/>
      <point x="101.69312691255526" y="125.66959629323968"/>
      <point x="279.00209698923334" y="-40.657949505911134"/>
      <point x="536.0924812158983" y="-42.00000830802327" type="curve" smooth="yes"/>
      <point x="790.448699016902" y="-40.89708623331635"/>
      <point x="1017.3645679045845" y="120.25892207002302"/>
      <point x="1063.0318065641097" y="336.5508335965117" type="curve" smooth="yes"/>
      <point x="1086.972261870916" y="479.21202802406924"/>
      <point x="1005.4097804203423" y="591.3795790543718"/>
      <point x="916.7597677725489" y="629.5849541025716" type="curve" smooth="yes"/>
      <point x="875.3890227214212" y="635.7739435586394"/>
      <point x="877.7356014908011" y="624.981548726299"/>
      <point x="922.7414000626966" y="633.1903315093011" type="curve" smooth="yes"/>
      <point x="993.3550711159482" y="664.2333637602125"/>
      <point x="1094.9555069095927" y="756.64856951515"/>
      <point x="1121.1050153592723" y="875.4489922610254" type="curve" smooth="yes"/>
      <point x="1152.0096993857214" y="1069.3207694491978"/>
      <point x="989.1971701427235" y="1227.542049606565"/>
      <point x="753.2140038968719" y="1229.0000124570558" type="curve" smooth="yes"/>
      <point x="520.1368947910305" y="1227.812331301629"/>
      <point x="310.35145704644276" y="1074.7393415934305"/>
    </contour>
    <contour>
      <point x="791.0585252004834" y="344.41417912343843" type="curve" smooth="yes"/>
      <point x="777.4419137333463" y="226.203326780194"/>
      <point x="690.7109336826342" y="144.868538087704"/>
      <point x="562.1735624343789" y="146.00001971805648" type="curve" smooth="yes"/>
      <point x="435.2463335846073" y="144.45586216708074"/>
      <point x="385.6970106939465" y="221.50300458873076"/>
      <point x="409.19862856739024" y="337.5793978993596" type="curve" smooth="yes"/>
      <point x="422.71523677614636" y="455.7410339559809"/>
      <point x="508.81069092660556" y="535.0919084458253"/>
      <point x="637.7261379780097" y="533.9999826011095" type="curve" smooth="yes"/>
      <point x="765.1318331257102" y="535.4867595922365"/>
      <point x="814.6195125508632" y="460.40808781536924"/>
    </contour>
    <contour>
      <point x="850.3965542299098" y="879.404977378279" type="curve" smooth="yes"/>
      <point x="841.3778615356658" y="784.466928672265"/>
      <point x="765.9740258639159" y="711.7806437130129"/>
      <point x="662.1347150644998" y="713.0000371323753" type="curve" smooth="yes"/>
      <point x="560.0425967510001" y="711.3145012761981"/>
      <point x="518.7435591996111" y="779.940529702782"/>
      <point x="538.5251378138302" y="872.604437296151" type="curve" smooth="yes"/>
      <point x="549.6704522133958" y="978.5438803158689"/>
      <point x="621.2433129193561" y="1042.0218626533974"/>
      <point x="727.1259506407249" y="1040.9999808320613" type="curve" smooth="yes"/>
      <point x="831.854710107474" y="1042.4017389555802"/>
      <point x="871.9826808944684" y="983.0388370219143"/>
    </contour>
  </outline>
</glyph>
<glyph name="nine" format="2">
  <advance width="1080"/>
  <unicode hex="0039"/>
  <outline>
    <contour>
      <point x="212.46090196021845" y="837.4954696175248" type="curve" smooth="yes"/>
      <point x="173.45142524555993" y="601.287628265477"/>
      <point x="346.20346915625004" y="437.4022583199884"/>
      <point x="590.7706664565294" y="435.9998128498264" type="curve" smooth="yes"/>
      <point x="717.8370742489973" y="436.44637348803303"/>
      <point x="851.5459907720966" y="489.09523221401565"/>
      <point x="914.0237313273918" y="546.06479367263" type="curve" smooth="yes"/>
      <point x="925.6203523758151" y="541.3912940072543"/>
      <point x="870.6846052744701" y="559.5118607682165"/>
      <point x="833.949639106089" y="556.2697910553636" type="curve" smooth="yes"/>
      <point x="772.3191114145178" y="337.4302330173101"/>
      <point x="593.450744170373" y="162.85433892581614"/>
      <point x="239.44191244762118" y="144.97674769345647" type="curve" smooth="yes"/>
      <point x="188.5785857663799" y="142.75337783895998"/>
      <point x="141.20714520948783" y="108.5910873481151"/>
      <point x="132.65216967863813" y="46.871348038091" type="curve" smooth="yes"/>
      <point x="130.52540717525045" y="-12.559918943302973"/>
      <point x="189.78842113055842" y="-43.29844606968424"/>
      <point x="240.37150934653272" y="-41.98146157274077" type="curve" smooth="yes"/>
      <point x="791.9797400537192" y="-16.060187837558416"/>
      <point x="1072.1852940968954" y="344.773157238587"/>
      <point x="1133.6004766182384" y="671.5534577819888" type="curve" smooth="yes"/>
      <point x="1159.7583435895524" y="817.4706782563024"/>
      <point x="1151.8308369619062" y="932.227375363816"/>
      <point x="1113.816342341956" y="1021.4705801211823" type="curve" smooth="yes"/>
      <point x="1050.122957420739" y="1157.0176571109396"/>
      <point x="902.6860315618999" y="1228.4609486812874"/>
      <point x="745.6146588049907" y="1229.0000432947388" type="curve" smooth="yes"/>
      <point x="477.96135376954624" y="1227.856304771502"/>
      <point x="258.64921789179783" y="1061.228850298443"/>
    </contour>
    <contour>
      <point x="871.8212844756916" y="822.4792245877227" type="curve" smooth="yes"/>
      <point x="858.3796622254868" y="703.3528146128226"/>
      <point x="768.9268959445435" y="622.9193972067651"/>
      <point x="638.9495709212537" y="624.0000279197757" type="curve" smooth="yes"/>
      <point x="502.0182208076577" y="622.4140912268796"/>
      <point x="459.6448781826357" y="700.5897788495297"/>
      <point x="484.63719848569104" y="830.5512463792039" type="curve" smooth="yes"/>
      <point x="500.9909983694987" y="960.1680696406194"/>
      <point x="584.9659614931697" y="1042.130481392769"/>
      <point x="719.6741022500175" y="1040.9999139182542" type="curve" smooth="yes"/>
      <point x="851.2255323853082" y="1042.8749299867459"/>
      <point x="897.1083165917745" y="954.6649538785102"/>
    </contour>
  </outline>
</glyph>
<glyph name="less" format="2">
  <advance width="1172"/>
  <unicode hex="003C"/>
  <outline>
    <contour>
      <point x="507.0645009595152" y="579.9258095848319" type="line" smooth="yes"/>
      <point x="463.4989090395172" y="585.3687678883731"/>
      <point x="465.6409550291362" y="577.7652701389615"/>
      <point x="510.90507221594504" y="585.4684115078272" type="curve" smooth="yes"/>
      <point x="1192.852105653924" y="886.6967472662539" type="line" smooth="yes"/>
      <point x="1253.752864162706" y="908.509507303861"/>
      <point x="1289.086488910324" y="955.292696199801"/>
      <point x="1271.4229172884225" y="1006.1783367376189" type="curve" smooth="yes"/>
      <point x="1246.9077137399784" y="1054.0009546590438"/>
      <point x="1171.9445492164139" y="1077.8956611066558"/>
      <point x="1104.3968610842167" y="1056.2188034380424" type="curve" smooth="yes"/>
      <point x="260.14113368120314" y="675.22932438722" type="line" smooth="yes"/>
      <point x="216.2981093570225" y="658.32414926322"/>
      <point x="177.41745392504683" y="630.300723730468"/>
      <point x="165.70220747230405" y="586.497389164536" type="curve" smooth="yes"/>
      <point x="158.28836758431595" y="542.742016879762"/>
      <point x="189.12647921265358" y="508.52956425344433"/>
      <point x="230.33735978468684" y="491.37613241398685" type="curve" smooth="yes"/>
      <point x="940.2734970496257" y="110.39806963291169" type="line" smooth="yes"/>
      <point x="1002.921783440337" y="88.12772149452067"/>
      <point x="1076.9948619412467" y="108.30937342312075"/>
      <point x="1117.0084451003927" y="154.76522623004504" type="curve" smooth="yes"/>
      <point x="1155.962239634779" y="203.54690392112354"/>
      <point x="1140.64994423878" y="255.81402606928185"/>
      <point x="1082.9077554503533" y="278.74192777002077" type="curve" smooth="yes"/>
    </contour>
  </outline>
</glyph>
<glyph name="greater" format="2">
  <advance width="1172"/>
  <unicode hex="003E"/>
  <outline>
    <contour>
      <point x="870.5981451756156" y="586.0741904151681" type="line" smooth="yes"/>
      <point x="914.1637370956139" y="580.6312321116269"/>
      <point x="912.0216911059948" y="588.2347298610387"/>
      <point x="866.7575739191859" y="580.5315884921728" type="curve" smooth="yes"/>
      <point x="184.81054048120708" y="279.30325273374615" type="line" smooth="yes"/>
      <point x="123.90978197242521" y="257.49049269613903"/>
      <point x="88.57615722480675" y="210.70730380019904"/>
      <point x="106.23972884670843" y="159.82166326238112" type="curve" smooth="yes"/>
      <point x="130.75493239515262" y="111.9990453409561"/>
      <point x="205.71809691871704" y="88.10433889334433"/>
      <point x="273.26578505091425" y="109.78119656195771" type="curve" smooth="yes"/>
      <point x="1117.521512453928" y="490.77067561277994" type="line" smooth="yes"/>
      <point x="1161.3645367781085" y="507.6758507367801"/>
      <point x="1200.245192210084" y="535.6992762695319"/>
      <point x="1211.9604386628268" y="579.5026108354641" type="curve" smooth="yes"/>
      <point x="1219.374278550815" y="623.257983120238"/>
      <point x="1188.5361669224774" y="657.4704357465557"/>
      <point x="1147.325286350444" y="674.6238675860131" type="curve" smooth="yes"/>
      <point x="437.38914908550544" y="1055.6019303670882" type="line" smooth="yes"/>
      <point x="374.7408626947939" y="1077.8722785054792"/>
      <point x="300.6677841938845" y="1057.6906265768791"/>
      <point x="260.65420103473826" y="1011.2347737699549" type="curve" smooth="yes"/>
      <point x="221.7004065003519" y="962.4530960788765"/>
      <point x="237.01270189635073" y="910.1859739307182"/>
      <point x="294.7548906847776" y="887.2580722299792" type="curve" smooth="yes"/>
    </contour>
  </outline>
</glyph>
<glyph name="question" format="2">
  <advance width="888"/>
  <unicode hex="003F"/>
  <outline>
    <contour>
      <point x="313.5278035548991" y="1208.9549786117702" type="curve" smooth="yes"/>
      <point x="260.0396553578772" y="1187.5007870598922"/>
      <point x="222.11084051016442" y="1143.5640378342114"/>
      <point x="238.71215613287364" y="1085.9267153586543" type="curve" smooth="yes"/>
      <point x="266.9151973961257" y="1027.4716023953977"/>
      <point x="350.5488780575803" y="1018.8814659530142"/>
      <point x="399.9395593171181" y="1036.008306888772" type="curve" smooth="yes"/>
      <point x="486.61096181356726" y="1079.2146642411806"/>
      <point x="563.2952250604989" y="1101.165555556391"/>
      <point x="647.071992068688" y="1100.9993662511424" type="curve" smooth="yes"/>
      <point x="752.7967735048486" y="1102.6441521811191"/>
      <point x="768.9809673260967" y="1047.0912187404901"/>
      <point x="751.6517749182159" y="959.4438652078355" type="curve" smooth="yes"/>
      <point x="741.7309343096726" y="866.7522920709099"/>
      <point x="693.2425461237516" y="823.9621434338744"/>
      <point x="534.0481965010009" y="762.6939437885461" type="curve" smooth="yes"/>
      <point x="460.08222087830626" y="734.771634126855" type="line" smooth="yes"/>
      <point x="420.68703150994577" y="723.9674234887947"/>
      <point x="390.01349201908386" y="696.431327895726"/>
      <point x="382.9482403139514" y="667.5913949998526" type="curve" smooth="yes"/>
      <point x="353.2001094090774" y="442.7534116459861" type="line" smooth="yes"/>
      <point x="353.714289733857" y="403.6640207053391"/>
      <point x="409.92999172381553" y="369.3540872656095"/>
      <point x="472.68243881022386" y="368.9999480707952" type="curve" smooth="yes"/>
      <point x="532.6158156252768" y="369.50431456863845"/>
      <point x="591.4803892620237" y="398.06031145351335"/>
      <point x="609.0529584832715" y="435.6014630900365" type="curve" smooth="yes"/>
      <point x="638.122522912126" y="558.3576692000377" type="line" smooth="yes"/>
      <point x="637.3962178860166" y="578.0073874752434"/>
      <point x="649.377635436943" y="603.8394945501971"/>
      <point x="659.7286230858398" y="610.4603409719825" type="curve" smooth="yes"/>
      <point x="839.3537052310458" y="677.0978504999539"/>
      <point x="985.329236783789" y="770.000737356883"/>
      <point x="1023.8259584826576" y="952.5060532079036" type="curve" smooth="yes"/>
      <point x="1055.5824787421418" y="1145.0827756527249"/>
      <point x="914.6435889564729" y="1287.7807220899674"/>
      <point x="672.0801925265146" y="1289.0002624303359" type="curve" smooth="yes"/>
      <point x="550.1993608585492" y="1288.8818076327273"/>
      <point x="427.2689519511521" y="1262.8047091049905"/>
    </contour>
    <contour>
      <point x="259.610351525599" y="170.21213719560393" type="curve" smooth="yes"/>
      <point x="239.31224470700758" y="56.824887865743" type="line" smooth="yes"/>
      <point x="235.3377390016852" y="2.6237695933939165"/>
      <point x="308.96424134374877" y="-30.08958286571671"/>
      <point x="402.392097527464" y="-30.000000463688277" type="curve" smooth="yes"/>
      <point x="494.1259337685265" y="-29.941787878860005"/>
      <point x="568.4208698443631" y="-2.9818373919380683"/>
      <point x="587.5057023277006" y="49.78786280439607" type="curve" smooth="yes"/>
      <point x="607.803809146292" y="163.175112134257" type="line" smooth="yes"/>
      <point x="611.7783148516146" y="217.37623040660606"/>
      <point x="538.1518125095508" y="250.08958286571672"/>
      <point x="444.7239563258356" y="250.00000046368828" type="curve" smooth="yes"/>
      <point x="352.9901200847731" y="249.94178787886003"/>
      <point x="278.6951840089365" y="222.98183739193806"/>
    </contour>
  </outline>
</glyph>
<glyph name="at" format="2">
  <advance width="1304"/>
  <unicode hex="0040"/>
  <outline>
    <contour>
      <point x="101.50134553364552" y="392.4771961516135" type="curve" smooth="yes"/>
      <point x="42.556710601131" y="50.80201143768341"/>
      <point x="232.55031245392445" y="-171.4639606192006"/>
      <point x="576.8665115282986" y="-173.00025026200385" type="curve" smooth="yes"/>
      <point x="692.7743897038107" y="-172.91151348200827"/>
      <point x="812.9070412400926" y="-151.24915929965104"/>
      <point x="895.120666538141" y="-119.57783055342887" type="curve" smooth="yes"/>
      <point x="934.7818969421529" y="-108.29862509922367"/>
      <point x="966.3096747198628" y="-73.59151560861139"/>
      <point x="962.1616404917677" y="-33.41905602273241" type="curve" smooth="yes"/>
      <point x="951.7566967061016" y="5.464997361174405"/>
      <point x="896.5611938314327" y="34.199337641783984"/>
      <point x="842.0390301937274" y="26.066583942103104" type="curve" smooth="yes"/>
      <point x="774.4052113324798" y="5.522814009345899"/>
      <point x="687.7245303114261" y="-10.071176178197687"/>
      <point x="596.4777064427825" y="-9.999440311128533" type="curve" smooth="yes"/>
      <point x="371.7194304153883" y="-11.99156708704565"/>
      <point x="297.8840586856886" y="136.516035799053"/>
      <point x="342.6790621253507" y="385.5288635739828" type="curve" smooth="yes"/>
      <point x="393.1194562491758" y="700.4159796866359"/>
      <point x="613.603798677257" y="936.9133712596741"/>
      <point x="865.3797722418309" y="934.9999983834928" type="curve" smooth="yes"/>
      <point x="1084.736705973221" y="936.9188161313731"/>
      <point x="1171.4613122145975" y="788.0092027178378"/>
      <point x="1125.5564732095368" y="534.4266603240185" type="curve" smooth="yes"/>
      <point x="1100.6688890867238" y="379.7377013880192"/>
      <point x="1046.5744551603684" y="280.0323921705092"/>
      <point x="976.1559611061701" y="283.0004922782993" type="curve" smooth="yes"/>
      <point x="944.4896997572688" y="277.89760216009495"/>
      <point x="954.801344440926" y="317.8643767111465"/>
      <point x="988.2914399645956" y="396.1201467472054" type="curve" smooth="yes"/>
      <point x="1118.765855058747" y="697.8555111234672" type="line" smooth="yes"/>
      <point x="1130.2806443569073" y="729.992035950494"/>
      <point x="1090.387661660073" y="760.631010819811"/>
      <point x="1054.9966671939264" y="770.5684475887593" type="curve" smooth="yes"/>
      <point x="1020.488780062909" y="780.4856554770416"/>
      <point x="961.9375979665643" y="781.0174262075863"/>
      <point x="924.2994489362464" y="758.2231155314812" type="curve" smooth="yes"/>
      <point x="896.2812886237245" y="720.9112804579509" type="line" smooth="yes"/>
      <point x="914.2319957877372" y="738.4498397961781"/>
      <point x="947.0942398312588" y="734.7196467192896"/>
      <point x="983.4027552526173" y="715.9874922929091" type="curve" smooth="yes"/>
      <point x="968.3747217185847" y="752.7560501789046"/>
      <point x="908.8355871761015" y="803.5804361835724"/>
      <point x="820.1093714005789" y="805.0009779474819" type="curve" smooth="yes"/>
      <point x="606.4226393316931" y="801.4328293393559"/>
      <point x="405.8353160673551" y="544.8214096177046"/>
      <point x="368.85252165879405" y="360.4967356185772" type="curve" smooth="yes"/>
      <point x="343.80278371162535" y="211.24634198009767"/>
      <point x="438.08856250406717" y="113.86912994204063"/>
      <point x="564.0587921458393" y="111.99951521388294" type="curve" smooth="yes"/>
      <point x="674.1405798653016" y="113.09543257204068"/>
      <point x="762.0847404469253" y="172.36113078217477"/>
      <point x="812.829037836024" y="222.10385503602316" type="curve" smooth="yes"/>
      <point x="812.2172517300645" y="209.3895199324103"/>
      <point x="778.8883780611849" y="212.2271747307764"/>
      <point x="744.6171095388013" y="226.40863999736285" type="curve" smooth="yes"/>
      <point x="764.09346181199" y="170.99998716306885"/>
      <point x="849.2743215879733" y="117.79622481786153"/>
      <point x="955.358597955288" y="116.99957829661427" type="curve" smooth="yes"/>
      <point x="1150.8118606582057" y="119.15839977721546"/>
      <point x="1318.4929747178414" y="287.7600823208763"/>
      <point x="1364.7262518402617" y="527.5019849574718" type="curve" smooth="yes"/>
      <point x="1421.0843934156971" y="855.4522256092765"/>
      <point x="1228.5082139138374" y="1096.140362804073"/>
      <point x="892.0948322092152" y="1098.0000021314438" type="curve" smooth="yes"/>
      <point x="516.4119339756791" y="1096.278568547334"/>
      <point x="177.26509173450972" y="790.5938027597301"/>
    </contour>
    <contour>
      <point x="793.8396514384682" y="564.4466029157949" type="curve" smooth="yes"/>
      <point x="775.3015423257505" y="438.5448221188963"/>
      <point x="679.4637681036721" y="282.0584049634282"/>
      <point x="613.827880410215" y="286.0088609786306" type="curve" smooth="yes"/>
      <point x="587.3739009104759" y="282.9357209821694"/>
      <point x="611.3372582052305" y="300.1120182763926"/>
      <point x="622.3927070575754" y="355.51829930410224" type="curve" smooth="yes"/>
      <point x="642.7124098601546" y="498.5976964011249"/>
      <point x="756.8178260066738" y="641.7534409290406"/>
      <point x="793.1077311345737" y="637.9913198175695" type="curve" smooth="yes"/>
      <point x="822.1220444022176" y="641.4645498367572"/>
      <point x="804.2457611589995" y="617.4040860857169"/>
    </contour>
  </outline>
</glyph>
<glyph name="A" format="2">
  <advance width="1149"/>
  <unicode hex="0041"/>
  <outline>
    <contour>
      <point x="611.4902992425802" y="1153.5959737199205" type="curve" smooth="yes"/>
      <point x="30.562324609555418" y="93.620635487015" type="line" smooth="yes"/>
      <point x="0.2617962675481529" y="46.726006120058074"/>
      <point x="30.23962998198612" y="-1.8912049337466605"/>
      <point x="98.82065181456073" y="-20.833328341726713" type="curve" smooth="yes"/>
      <point x="166.93960578059966" y="-39.90248059684339"/>
      <point x="238.35205696287986" y="-20.367725616322893"/>
      <point x="272.36070393616745" y="26.448702915818625" type="curve" smooth="yes"/>
      <point x="408.68073356603674" y="275.329154367385" type="line" smooth="yes"/>
      <point x="411.0550313349277" y="294.04943825905474"/>
      <point x="422.58955092777677" y="311.2719186125752"/>
      <point x="428.4834691113005" y="309.9998490518516" type="curve" smooth="yes"/>
      <point x="836.7022291391337" y="309.9997534654288" type="line" smooth="yes"/>
      <point x="842.3892440628128" y="312.0070757863228"/>
      <point x="837.8427204791976" y="296.0476016200523"/>
      <point x="834.3531513824995" y="281.0254101855349" type="curve" smooth="yes"/>
      <point x="882.8552164313676" y="32.2766726077696" type="line" smooth="yes"/>
      <point x="899.9952828304208" y="-15.746266038981165"/>
      <point x="973.2830458606578" y="-39.95052167153987"/>
      <point x="1047.1630319733429" y="-21.055739727434336" type="curve" smooth="yes"/>
      <point x="1118.045811504885" y="-2.220538711063554"/>
      <point x="1162.393241762866" y="38.89228907569717"/>
      <point x="1154.0975908819798" y="87.8502621114575" type="curve" smooth="yes"/>
      <point x="946.9894996278019" y="1147.8046033574387" type="line" smooth="yes"/>
      <point x="930.1288528471994" y="1199.969501721133"/>
      <point x="864.3167904070831" y="1228.9139280420873"/>
      <point x="787.5820177810018" y="1229.0000021872947" type="curve" smooth="yes"/>
      <point x="712.5030838962517" y="1228.8118813509138"/>
      <point x="646.3405511679941" y="1204.1366028620043"/>
    </contour>
    <contour>
      <point x="505.8413792658469" y="494.0015055766779" type="line" smooth="yes"/>
      <point x="472.3613793111086" y="500.5569885512529"/>
      <point x="503.61516602100164" y="508.41588894574784"/>
      <point x="535.0532605092466" y="510.1306135963926" type="curve" smooth="yes"/>
      <point x="810.439464101968" y="1032.270650297147" type="line"/>
      <point x="700.8685037522262" y="1037.844836516887" type="line"/>
      <point x="790.525413467069" y="516.0848622507734" type="line" smooth="yes"/>
      <point x="797.6393228614421" y="511.53509793154893"/>
      <point x="824.6036614291398" y="490.8590357865376"/>
      <point x="809.6530640056387" y="494.00079896985795" type="curve" smooth="yes"/>
    </contour>
  </outline>
</glyph>
<glyph name="C" format="2">
  <advance width="1060"/>
  <unicode hex="0043"/>
  <outline>
    <contour>
      <point x="113.64774728031352" y="597.4791221265522" type="curve" smooth="yes"/>
      <point x="48.295209265319585" y="221.15764847650453"/>
      <point x="240.9302465119724" y="-39.83844046658557"/>
      <point x="577.9176896778672" y="-42.00042721789279" type="curve" smooth="yes"/>
      <point x="718.5916198590783" y="-41.8526042865476"/>
      <point x="857.5769576558354" y="-8.606733363469267"/>
      <point x="996.7326575730705" y="61.21878475711786" type="curve" smooth="yes"/>
      <point x="1053.706565428978" y="85.73069097030455"/>
      <point x="1085.360825776995" y="133.9744673002846"/>
      <point x="1068.8209643239818" y="188.18569599015515" type="curve" smooth="yes"/>
      <point x="1036.9699001646627" y="247.93336942666176"/>
      <point x="949.6015507233292" y="251.78757594294095"/>
      <point x="901.7190283368291" y="233.58225034937223" type="curve" smooth="yes"/>
      <point x="799.5811668508377" y="176.46943082364112"/>
      <point x="706.6162917581809" y="145.78232417399104"/>
      <point x="603.8926214592559" y="146.00109095470546" type="curve" smooth="yes"/>
      <point x="415.38581530492263" y="143.34289110366035"/>
      <point x="335.5459506766777" y="308.9608331514241"/>
      <point x="385.82452219961357" y="590.5336523784945" type="curve" smooth="yes"/>
      <point x="431.70790602396164" y="873.1382787048631"/>
      <point x="576.7430162089698" y="1042.8796699420195"/>
      <point x="768.8571906672167" y="1040.9994723321217" type="curve" smooth="yes"/>
      <point x="871.0849558019246" y="1041.2464528126486"/>
      <point x="949.8205440572549" y="1011.0088917166869"/>
      <point x="1030.1459642171283" y="954.4026679396301" type="curve" smooth="yes"/>
      <point x="1074.261273166021" y="935.3794292596017"/>
      <point x="1156.7098244762478" y="936.7508388655624"/>
      <point x="1206.5077021500413" y="993.3598990282636" type="curve" smooth="yes"/>
      <point x="1245.2985462152674" y="1046.011489592006"/>
      <point x="1235.2317197486254" y="1098.6657141674186"/>
      <point x="1182.8598725365803" y="1124.9653858264978" type="curve" smooth="yes"/>
      <point x="1066.259708769192" y="1195.181373013028"/>
      <point x="936.0266367412485" y="1228.8418360391922"/>
      <point x="795.0328053049656" y="1229.0002222876042" type="curve" smooth="yes"/>
      <point x="461.85181697243655" y="1227.3506821502958"/>
      <point x="184.6237951184284" y="972.9750226362215"/>
    </contour>
  </outline>
</glyph>
<glyph name="D" format="2">
  <advance width="1065"/>
  <unicode hex="0044"/>
  <outline>
    <contour>
      <point x="342.2206397364765" y="1207.0000654240803" type="line" smooth="yes"/>
      <point x="278.855755364139" y="1206.7802264954641"/>
      <point x="222.4757542355961" y="1175.7433680419479"/>
      <point x="208.22537028416278" y="1122.4609499479338" type="curve" smooth="yes"/>
      <point x="22.897110126627762" y="71.48723540406034" type="line" smooth="yes"/>
      <point x="14.261998284275801" y="18.768435990000533"/>
      <point x="66.15366489693733" y="-20.152762102808428"/>
      <point x="132.90408104178658" y="-20.00009527122034" type="curve" smooth="yes"/>
      <point x="469.09294440750926" y="-20.000089453895562" type="line" smooth="yes"/>
      <point x="806.2333047503621" y="-18.651388539841708"/>
      <point x="1087.1752125316752" y="213.71766012355243"/>
      <point x="1158.652764417891" y="589.5196969693624" type="curve" smooth="yes"/>
      <point x="1223.7715615959812" y="966.2548788461465"/>
      <point x="1018.8595154541505" y="1205.2853452225868"/>
      <point x="678.4219270591409" y="1207.000153622609" type="curve" smooth="yes"/>
    </contour>
    <contour>
      <point x="886.476306908133" y="596.4642077789437" type="curve" smooth="yes"/>
      <point x="839.5827143769963" y="304.41378048735936"/>
      <point x="692.407524700888" y="162.72912813324467"/>
      <point x="475.5203588141205" y="164.00017305081997" type="curve" smooth="yes"/>
      <point x="292.8842900259316" y="164.00265985266526" type="line" smooth="yes"/>
      <point x="279.27127999691663" y="160.44074942647583"/>
      <point x="306.69763993854895" y="180.5015222332893"/>
      <point x="312.923681616872" y="188.58604104489686" type="curve" smooth="yes"/>
      <point x="454.5482583498953" y="991.4824971147235" type="line" smooth="yes"/>
      <point x="451.85535248315676" y="1008.1206234027649"/>
      <point x="447.4662120501892" y="1025.2223601079031"/>
      <point x="451.5321541606507" y="1022.9985290570619" type="curve" smooth="yes"/>
      <point x="634.0770559323588" y="1022.9997076842157" type="line" smooth="yes"/>
      <point x="848.7124012638876" y="1024.7372897541302"/>
      <point x="938.7876218850137" y="887.260638600035"/>
    </contour>
  </outline>
</glyph>
<glyph name="E" format="2">
  <advance width="849"/>
  <unicode hex="0045"/>
  <outline>
    <contour>
      <point x="351.24968422502786" y="1207.0000263471845" type="line" smooth="yes"/>
      <point x="287.855755364139" y="1206.7802264954641"/>
      <point x="231.4757542355961" y="1175.7433680419479"/>
      <point x="217.22537028416278" y="1122.4609499479338" type="curve" smooth="yes"/>
      <point x="31.897110126627762" y="71.48723540406034" type="line" smooth="yes"/>
      <point x="23.2619982842758" y="18.768435990000533"/>
      <point x="75.15366489693733" y="-20.152762102808428"/>
      <point x="141.9406498217318" y="-20.000036475055833" type="curve" smooth="yes"/>
      <point x="718.8783915281138" y="-20.000076159056512" type="line" smooth="yes"/>
      <point x="778.398467866493" y="-19.33838868270404"/>
      <point x="828.603174059956" y="14.206130508979216"/>
      <point x="841.8373122185948" y="68.5169238124471" type="curve" smooth="yes"/>
      <point x="851.3772356980775" y="122.12141502364184"/>
      <point x="808.098528921258" y="163.61774275426174"/>
      <point x="744.3234412182939" y="164.00020216179925" type="curve" smooth="yes"/>
      <point x="302.1757198676054" y="164.0004802976636" type="line" smooth="yes"/>
      <point x="288.2712799969166" y="160.44074942647583"/>
      <point x="315.6976399385489" y="180.50152223328934"/>
      <point x="321.8910031767079" y="188.6815022815515" type="curve" smooth="yes"/>
      <point x="374.87848498520447" y="488.4107393910244" type="line" smooth="yes"/>
      <point x="372.16288118679887" y="505.12062340276486"/>
      <point x="367.7737407538313" y="522.2223601079031"/>
      <point x="371.9988760153631" y="519.9995092614813" type="curve" smooth="yes"/>
      <point x="696.1799569130814" y="519.9997850854843" type="line" smooth="yes"/>
      <point x="755.6417291783873" y="520.661611317296"/>
      <point x="805.8464353718505" y="554.2061305089792"/>
      <point x="819.0805735304892" y="608.5169238124471" type="curve" smooth="yes"/>
      <point x="828.6204970099719" y="662.1214150236418"/>
      <point x="785.3417902331523" y="703.6177427542617"/>
      <point x="721.6108253565898" y="704.0003500023976" type="curve" smooth="yes"/>
      <point x="397.31617150986114" y="704.0008798169619" type="line" smooth="yes"/>
      <point x="383.48784957948754" y="700.4407494264759"/>
      <point x="410.91420952111986" y="720.5015222332894"/>
      <point x="417.10026092116726" y="728.7023669502088" type="curve" smooth="yes"/>
      <point x="463.57580729411677" y="991.3951044163646" type="line" smooth="yes"/>
      <point x="460.8553524831567" y="1008.1206234027649"/>
      <point x="456.4662120501892" y="1025.2223601079031"/>
      <point x="460.7419587410966" y="1022.9997109214453" type="curve" smooth="yes"/>
      <point x="886.5426328802499" y="1022.9998674461168" type="line" smooth="yes"/>
      <point x="946.0353282942943" y="1023.661611317296"/>
      <point x="996.240034487757" y="1057.2061305089794"/>
      <point x="1009.4741726463959" y="1111.516923812447" type="curve" smooth="yes"/>
      <point x="1019.0140961258786" y="1165.121415023642"/>
      <point x="975.735389349059" y="1206.6177427542618"/>
      <point x="911.9331189924073" y="1207.0001311537799" type="curve" smooth="yes"/>
    </contour>
  </outline>
</glyph>
<glyph name="F" format="2">
  <advance width="831"/>
  <unicode hex="0046"/>
  <outline>
    <contour>
      <point x="342.25062540802696" y="1207.0000253731446" type="line" smooth="yes"/>
      <point x="282.055168842365" y="1206.7384840958646"/>
      <point x="223.30437683801986" y="1176.581595836433"/>
      <point x="208.22657963276083" y="1122.4572784508036" type="curve" smooth="yes"/>
      <point x="20.604466697896243" y="58.48844216721303" type="line" smooth="yes"/>
      <point x="12.858894139494588" y="9.628199108010433"/>
      <point x="66.25691740894148" y="-30.186073578853424"/>
      <point x="141.7829353343188" y="-30.002132571322733" type="curve" smooth="yes"/>
      <point x="144.6227045336803" y="-30.001542737874367" type="line" smooth="yes"/>
      <point x="217.1478754467651" y="-29.84486675793068"/>
      <point x="274.8956673720069" y="2.125130575771217"/>
      <point x="288.7758821198546" y="51.55908766369241" type="curve" smooth="yes"/>
      <point x="358.81677021563587" y="448.43830658492755" type="line" smooth="yes"/>
      <point x="356.10980195846025" y="465.12062340276486"/>
      <point x="351.7206615254928" y="482.22236010790306"/>
      <point x="355.9579879517239" y="479.99956268745683" type="curve" smooth="yes"/>
      <point x="700.0299743624054" y="479.9998263230056" type="line" smooth="yes"/>
      <point x="760.1526292135039" y="480.6076330831245"/>
      <point x="811.1675674549399" y="514.101784200353"/>
      <point x="824.5348156267416" y="568.516027721882" type="curve" smooth="yes"/>
      <point x="834.0315551493935" y="622.2411107221101"/>
      <point x="789.7478119044398" y="663.687426623843"/>
      <point x="725.4558898730174" y="664.0002796593292" type="curve" smooth="yes"/>
      <point x="381.27950584266324" y="664.0007835182391" type="line" smooth="yes"/>
      <point x="367.4347703511489" y="660.4407494264759"/>
      <point x="394.86113029278135" y="680.5015222332893"/>
      <point x="401.05500854062007" y="688.6800261004962" type="curve" smooth="yes"/>
      <point x="454.5706115853329" y="991.4118462296692" type="line" smooth="yes"/>
      <point x="451.8553524831567" y="1008.1206234027649"/>
      <point x="447.4662120501892" y="1025.2223601079031"/>
      <point x="451.7473847613644" y="1022.9997293924995" type="curve" smooth="yes"/>
      <point x="892.2162728492465" y="1022.9998880509021" type="line" smooth="yes"/>
      <point x="952.3644588079678" y="1023.6076330831245"/>
      <point x="1003.3793970494039" y="1057.101784200353"/>
      <point x="1016.7466452212057" y="1111.516027721882" type="curve" smooth="yes"/>
      <point x="1026.2433847438574" y="1165.24111072211"/>
      <point x="981.9596414989038" y="1206.6874266238428"/>
      <point x="917.606929744057" y="1207.000111028651" type="curve" smooth="yes"/>
    </contour>
  </outline>
</glyph>
<glyph name="G" format="2">
  <advance width="1109"/>
  <unicode hex="0047"/>
  <outline>
    <contour>
      <point x="113.64887740478343" y="597.4756644939961" type="curve" smooth="yes"/>
      <point x="48.35788388777403" y="221.03181346449975"/>
      <point x="245.38388904756448" y="-39.915963769878715"/>
      <point x="587.9321579694538" y="-42.00036852212384" type="curve" smooth="yes"/>
      <point x="748.5514683935407" y="-41.890002510643754"/>
      <point x="916.6126781187231" y="-7.881406882138812"/>
      <point x="1045.7703965663761" y="56.227451604264594" type="curve" smooth="yes"/>
      <point x="1083.3765559930089" y="71.59594635328125"/>
      <point x="1115.7630430327274" y="103.88193487156532"/>
      <point x="1125.2950689541276" y="139.5518081207936" type="curve" smooth="yes"/>
      <point x="1192.848110913372" y="522.4911756202806" type="line" smooth="yes"/>
      <point x="1201.4762282565523" y="575.2315640099995"/>
      <point x="1149.584561643891" y="614.1527621028084"/>
      <point x="1082.8299220726224" y="614.00008706609" type="curve" smooth="yes"/>
      <point x="728.646666506931" y="614.0000868089653" type="line" smooth="yes"/>
      <point x="663.9673272188572" y="613.6333583363495"/>
      <point x="608.1663935578529" y="580.5747320684113"/>
      <point x="593.9483995369723" y="525.4908015343663" type="curve" smooth="yes"/>
      <point x="584.7645378157912" y="470.94583509152204"/>
      <point x="634.953376928747" y="430.0325538274255"/>
      <point x="703.1793774373075" y="429.99970855755885" type="curve" smooth="yes"/>
      <point x="922.7720528184317" y="429.99813027680807" type="line" smooth="yes"/>
      <point x="936.4669465439116" y="433.55925057352414"/>
      <point x="909.0405866022792" y="413.49847776671066"/>
      <point x="902.8822065689858" y="405.2201918767785" type="curve" smooth="yes"/>
      <point x="871.180801814714" y="226.51684392485103" type="line" smooth="yes"/>
      <point x="873.286879485693" y="211.33079154052453"/>
      <point x="866.8513980753971" y="189.85043963612858"/>
      <point x="860.5597028041957" y="184.17087084517172" type="curve" smooth="yes"/>
      <point x="814.2620772972258" y="162.0029014279786"/>
      <point x="722.6764191587026" y="145.93837508659524"/>
      <point x="613.8981156780859" y="146.00105433216697" type="curve" smooth="yes"/>
      <point x="419.7196860563018" y="143.46697901207983"/>
      <point x="335.4693303532966" y="309.16641176720304"/>
      <point x="385.82632945606423" y="590.5281424617119" type="curve" smooth="yes"/>
      <point x="430.77813475463216" y="872.5508161157643"/>
      <point x="595.7433976519342" y="1042.721788760151"/>
      <point x="788.8668480345103" y="1040.9995165161804" type="curve" smooth="yes"/>
      <point x="893.1005276628794" y="1041.1520211498655"/>
      <point x="973.5564793132431" y="1017.636601056854"/>
      <point x="1053.811188633561" y="963.1570024899801" type="curve" smooth="yes"/>
      <point x="1099.0442377275194" y="944.2214836742601"/>
      <point x="1181.6328457611107" y="947.0649963894394"/>
      <point x="1230.2162889038364" y="1004.7766469188915" type="curve" smooth="yes"/>
      <point x="1266.603142312239" y="1057.403934008687"/>
      <point x="1255.4071939189037" y="1110.0253019632132"/>
      <point x="1201.1765127327471" y="1135.2604812420163" type="curve" smooth="yes"/>
      <point x="1082.4361241481365" y="1202.4840115405927"/>
      <point x="954.4017003292663" y="1228.9031827170327"/>
      <point x="815.0361291742224" y="1229.0002123161657" type="curve" smooth="yes"/>
      <point x="482.5661739606076" y="1227.4493781792846"/>
      <point x="185.32950484986344" y="973.4377320190932"/>
    </contour>
  </outline>
</glyph>
<glyph name="H" format="2">
  <advance width="1046"/>
  <unicode hex="0048"/>
  <outline>
    <contour>
      <point x="1096.6774215672676" y="1217.0015427378744" type="line" smooth="yes"/>
      <point x="1024.1522506541828" y="1216.8448667579307"/>
      <point x="966.404458728941" y="1184.8748694242288"/>
      <point x="952.5241737501716" y="1135.441123936451" type="curve" smooth="yes"/>
      <point x="881.9545784920449" y="735.5610476511644" type="line" smooth="yes"/>
      <point x="884.6613432003621" y="718.8793765972351"/>
      <point x="889.0504836333298" y="701.7776398920969"/>
      <point x="884.7556311717684" y="704.0002267459734" type="curve" smooth="yes"/>
      <point x="402.40989091189505" y="704.0004049968354" type="line" smooth="yes"/>
      <point x="388.48784957948754" y="700.4407494264759"/>
      <point x="415.91420952111986" y="720.5015222332894"/>
      <point x="422.1205926914271" y="728.6439112854182" type="curve" smooth="yes"/>
      <point x="492.7029727697403" y="1128.4889681373022" type="line" smooth="yes"/>
      <point x="500.4412319614533" y="1177.3718008919896"/>
      <point x="447.04320869200643" y="1217.1860735788534"/>
      <point x="371.51719076662914" y="1217.0021325713228" type="curve" smooth="yes"/>
      <point x="368.67742156726763" y="1217.0015427378744" type="line" smooth="yes"/>
      <point x="296.15225065418286" y="1216.8448667579307"/>
      <point x="238.40445872894102" y="1184.8748694242288"/>
      <point x="224.5178758940782" y="1135.4601757356374" type="curve" smooth="yes"/>
      <point x="34.60452452866613" y="58.4882644055565" type="line" smooth="yes"/>
      <point x="26.858894139494588" y="9.628199108010431"/>
      <point x="80.25691740894148" y="-30.186073578853424"/>
      <point x="155.7829353343188" y="-30.002132571322733" type="curve" smooth="yes"/>
      <point x="158.6227045336803" y="-30.001542737874367" type="line" smooth="yes"/>
      <point x="231.1478754467651" y="-29.84486675793068"/>
      <point x="288.8956673720069" y="2.125130575771217"/>
      <point x="302.77674759195196" y="51.556478755403305" type="curve" smooth="yes"/>
      <point x="379.867355030272" y="488.44620758725944" type="line" smooth="yes"/>
      <point x="377.16288118679887" y="505.12062340276486"/>
      <point x="372.7737407538313" y="522.2223601079031"/>
      <point x="377.06859321539275" y="519.9997732540266" type="curve" smooth="yes"/>
      <point x="859.4143334752661" y="519.9995950031646" type="line" smooth="yes"/>
      <point x="873.3363748076737" y="523.5592505735241"/>
      <point x="845.910014866041" y="503.4984777667107"/>
      <point x="839.700319570045" y="495.365743356123" type="curve" smooth="yes"/>
      <point x="762.5980762997552" y="58.508168875493475" type="line" smooth="yes"/>
      <point x="754.8588941394946" y="9.628199108010396"/>
      <point x="808.2569174089415" y="-30.186073578853424"/>
      <point x="883.7829353343188" y="-30.002132571322733" type="curve" smooth="yes"/>
      <point x="886.6227045336803" y="-30.001542737874367" type="line" smooth="yes"/>
      <point x="959.147875446765" y="-29.84486675793068"/>
      <point x="1016.895667372007" y="2.125130575771238"/>
      <point x="1030.7822502068698" y="51.539824264362544" type="curve" smooth="yes"/>
      <point x="1220.6956015722817" y="1128.5117355944435" type="line" smooth="yes"/>
      <point x="1228.4412319614532" y="1177.3718008919896"/>
      <point x="1175.0432086920064" y="1217.1860735788534"/>
      <point x="1099.5171907666293" y="1217.0021325713228" type="curve" smooth="yes"/>
    </contour>
  </outline>
</glyph>
<glyph name="I" format="2">
  <advance width="504"/>
  <unicode hex="0049"/>
  <outline>
    <contour>
      <point x="117.51375310273815" y="164.07430050472976" type="line" smooth="yes"/>
      <point x="67.50700194234234" y="158.53422501185688"/>
      <point x="40.09318857261405" y="128.05986096211552"/>
      <point x="29.60689336205766" y="75.47352572183627" type="curve" smooth="yes"/>
      <point x="19.70212764002568" y="23.31834643196892"/>
      <point x="34.58350872025294" y="-11.5375335467659"/>
      <point x="93.81997270556789" y="-20.00990417478891" type="curve" smooth="yes"/>
      <point x="410.1450320627101" y="-20.00427952971637" type="line" smooth="yes"/>
      <point x="462.18408327967654" y="-14.534225011856885"/>
      <point x="489.59789664940484" y="15.940139037884464"/>
      <point x="500.08419185996127" y="68.52647427816373" type="curve" smooth="yes"/>
      <point x="509.98895758199325" y="120.68165356803108"/>
      <point x="495.1075765017659" y="155.53753354676596"/>
      <point x="438.7883486639745" y="164.15799201222268" type="curve" smooth="yes"/>
      <point x="385.211137083316" y="164.03814037697097" type="line" smooth="yes"/>
      <point x="358.4606663421016" y="175.79371251557177"/>
      <point x="382.8985834606135" y="183.56127462835056"/>
      <point x="417.70929789809793" y="175.1724020328006" type="curve" smooth="yes"/>
      <point x="564.5047515670632" y="1007.4020526172137" type="line" smooth="yes"/>
      <point x="562.7819442456197" y="1011.0795534604281"/>
      <point x="537.7216367224711" y="1025.771505243291"/>
      <point x="541.6132403020916" y="1022.9758226747385" type="curve" smooth="yes"/>
      <point x="590.2326614668114" y="1022.9192224696018" type="line" smooth="yes"/>
      <point x="640.1255725361867" y="1028.4657749881433"/>
      <point x="667.5393859059149" y="1058.9401390378844"/>
      <point x="678.0256811164713" y="1111.5264742781637" type="curve" smooth="yes"/>
      <point x="687.9304468385033" y="1163.681653568031"/>
      <point x="673.049065758276" y="1198.537533546766"/>
      <point x="613.8465536605703" y="1207.0106041703038" type="curve" smooth="yes"/>
      <point x="309.40002083591077" y="1207.0045861278793" type="line" smooth="yes"/>
      <point x="257.38359444369024" y="1201.534225011857"/>
      <point x="229.96978107396188" y="1171.0598609621156"/>
      <point x="219.48348586340546" y="1118.4735257218363" type="curve" smooth="yes"/>
      <point x="209.57872014137348" y="1066.3183464319688"/>
      <point x="224.4601012216009" y="1031.462466453234"/>
      <point x="280.62404786821656" y="1022.8290804194927" type="curve" smooth="yes"/>
      <point x="331.094656524074" y="1022.9535071859452" type="line" smooth="yes"/>
      <point x="355.07154709292894" y="1008.2054791630247"/>
      <point x="336.9707336984647" y="1005.7050340898824"/>
      <point x="296.332799813829" y="1014.3338782512717" type="curve" smooth="yes"/>
      <point x="149.5373376278485" y="182.10425017839358" type="line" smooth="yes"/>
      <point x="151.6825197331076" y="175.20316097441096"/>
      <point x="170.6739047922306" y="161.23356404855366"/>
      <point x="169.34174684527238" y="164.01998066548825" type="curve" smooth="yes"/>
    </contour>
  </outline>
</glyph>
<glyph name="J" format="2">
  <advance width="683"/>
  <unicode hex="004A"/>
  <outline>
    <contour>
      <point x="445.6287165649104" y="1207.0007396199335" type="line" smooth="yes"/>
      <point x="391.0719158199613" y="1205.4760671528732"/>
      <point x="349.10074963426473" y="1171.9080416491752"/>
      <point x="337.06032986578487" y="1118.4770048986718" type="curve" smooth="yes"/>
      <point x="327.2136027773809" y="1065.8045726400655"/>
      <point x="360.1993464343664" y="1024.6556329286739"/>
      <point x="419.9054084464893" y="1022.996278201986" type="curve" smooth="yes"/>
      <point x="585.36728430099" y="1022.9967726309204" type="line" smooth="yes"/>
      <point x="598.9288461040315" y="1026.5592505735242"/>
      <point x="571.502486162399" y="1006.4984777667107"/>
      <point x="565.2817297249502" y="998.3982646337239" type="curve" smooth="yes"/>
      <point x="453.8156887185294" y="366.4807332214643" type="line" smooth="yes"/>
      <point x="429.01386760896276" y="217.06963781492183"/>
      <point x="400.57585538660794" y="143.122807198905"/>
      <point x="341.2212385055069" y="146.00454251820761" type="curve" smooth="yes"/>
      <point x="295.624888348322" y="145.0471383951529"/>
      <point x="270.0823065065493" y="174.13776159215524"/>
      <point x="239.2382295032572" y="232.181436433849" type="curve" smooth="yes"/>
      <point x="206.14011043256534" y="255.76759130440456"/>
      <point x="120.60930911663975" y="258.33139434739417"/>
      <point x="77.21758905848856" y="206.59253430436408" type="curve" smooth="yes"/>
      <point x="47.407129803255906" y="158.1529797183501"/>
      <point x="43.49137695461334" y="112.94137282129724"/>
      <point x="66.97922838458052" y="81.45550130046148" type="curve" smooth="yes"/>
      <point x="122.97566679110157" y="2.778261324694995"/>
      <point x="220.64901467928655" y="-41.41930147185852"/>
      <point x="314.0347491732595" y="-42.0002660117953" type="curve" smooth="yes"/>
      <point x="481.3419176658147" y="-40.540037268069945"/>
      <point x="669.3822953023648" y="94.34548942321341"/>
      <point x="716.6969869643058" y="329.5524375943239" type="curve" smooth="yes"/>
      <point x="855.3066272463175" y="1115.5016430990595" type="line" smooth="yes"/>
      <point x="863.5858786596001" y="1169.355573706031"/>
      <point x="808.7756314299967" y="1207.0775698789832"/>
      <point x="745.306889612675" y="1207.000118031758" type="curve" smooth="yes"/>
    </contour>
  </outline>
</glyph>
<glyph name="K" format="2">
  <advance width="1004"/>
  <unicode hex="004B"/>
  <outline>
    <contour>
      <point x="346.67742156726763" y="1217.0015427378744" type="line" smooth="yes"/>
      <point x="274.15225065418286" y="1216.8448667579307"/>
      <point x="216.40445872894102" y="1184.8748694242288"/>
      <point x="202.5178758940782" y="1135.4601757356374" type="curve" smooth="yes"/>
      <point x="12.604524528666133" y="58.4882644055565" type="line" smooth="yes"/>
      <point x="4.858894139494588" y="9.628199108010431"/>
      <point x="58.256917408941476" y="-30.186073578853424"/>
      <point x="133.7829353343188" y="-30.002132571322733" type="curve" smooth="yes"/>
      <point x="136.6227045336803" y="-30.001542737874367" type="line" smooth="yes"/>
      <point x="209.1478754467651" y="-29.84486675793068"/>
      <point x="266.8956673720069" y="2.125130575771217"/>
      <point x="280.7713584409199" y="51.5726778459388" type="curve" smooth="yes"/>
      <point x="327.1006168614293" y="314.0746363755804" type="line" smooth="yes"/>
      <point x="327.9066247843068" y="335.27878230182546"/>
      <point x="342.74271913354556" y="370.0622175593107"/>
      <point x="355.451887746669" y="385.59127469121074" type="curve" smooth="yes"/>
      <point x="484.0045110701271" y="499.8095116406407" type="line" smooth="yes"/>
      <point x="494.9554377363429" y="510.47672892409065"/>
      <point x="451.40311804722086" y="502.64323575358026"/>
      <point x="453.3438046830621" y="501.3710525420182" type="curve" smooth="yes"/>
      <point x="749.346017189191" y="-4.024104457184264" type="line" smooth="yes"/>
      <point x="790.3600188096522" y="-43.35752297951406"/>
      <point x="867.3960049751631" y="-43.512772410724054"/>
      <point x="926.6919921283911" y="-17.788177195589782" type="curve" smooth="yes"/>
      <point x="994.5542661265675" y="11.588408580586204"/>
      <point x="1022.1182444068114" y="60.51984551899204"/>
      <point x="993.0258931981878" y="102.15039865635438" type="curve" smooth="yes"/>
      <point x="681.5830715866275" y="632.8373354800653" type="line" smooth="yes"/>
      <point x="677.6142429371258" y="643.2633709930858"/>
      <point x="677.1694047546661" y="669.1454187375889"/>
      <point x="686.5112756146866" y="680.9517754200976" type="curve" smooth="yes"/>
      <point x="1132.8413003493754" y="1079.0487217984737" type="line" smooth="yes"/>
      <point x="1182.8568219199851" y="1113.9496618484934"/>
      <point x="1186.273823001123" y="1168.707204823336"/>
      <point x="1128.2164244661383" y="1203.1526722352057" type="curve" smooth="yes"/>
      <point x="1077.7030970410174" y="1231.2274129923237"/>
      <point x="1002.2364734950205" y="1234.67990044538"/>
      <point x="953.0221474082607" y="1205.867664790971" type="curve" smooth="yes"/>
      <point x="313.9287761759725" y="633.7945904866385" type="line" smooth="yes"/>
      <point x="300.9478705324498" y="640.6245606762142"/>
      <point x="346.7005908366937" y="630.3990237168388"/>
      <point x="382.47595730925525" y="628.5307473875358" type="curve" smooth="yes"/>
      <point x="470.7007577545739" y="1128.4958330573022" type="line" smooth="yes"/>
      <point x="478.4412319614533" y="1177.3718008919896"/>
      <point x="425.04320869200643" y="1217.1860735788534"/>
      <point x="349.51719076662914" y="1217.0021325713228" type="curve" smooth="yes"/>
    </contour>
  </outline>
</glyph>
<glyph name="L" format="2">
  <advance width="849"/>
  <unicode hex="004C"/>
  <outline>
    <contour>
      <point x="363.67742156726763" y="1217.0015427378744" type="line" smooth="yes"/>
      <point x="291.15225065418286" y="1216.8448667579307"/>
      <point x="233.40445872894102" y="1184.8748694242288"/>
      <point x="219.51792483429952" y="1135.4600270946673" type="curve" smooth="yes"/>
      <point x="31.89765640175673" y="71.48555765078105" type="line" smooth="yes"/>
      <point x="23.16181232025936" y="19.145592229319533"/>
      <point x="74.06244923105997" y="-20.178576426313985"/>
      <point x="141.9405943868306" y="-20.000036543225402" type="curve" smooth="yes"/>
      <point x="717.2847488789598" y="-20.0000687691593" type="line" smooth="yes"/>
      <point x="777.4554179290388" y="-19.39236691687552"/>
      <point x="828.4703561704749" y="14.101784200353016"/>
      <point x="841.8376043422767" y="68.51602772188208" type="curve" smooth="yes"/>
      <point x="851.3343438649284" y="122.2411107221101"/>
      <point x="807.0506006199748" y="163.68742662384298"/>
      <point x="742.7263743812193" y="164.00018051836767" type="curve" smooth="yes"/>
      <point x="302.17495949253015" y="164.00048369521468" type="line" smooth="yes"/>
      <point x="288.2712799969166" y="160.44074942647583"/>
      <point x="315.6976399385489" y="180.50152223328934"/>
      <point x="321.92653014470716" y="188.57753993361118" type="curve" smooth="yes"/>
      <point x="487.69628669054833" y="1128.5096287939216" type="line" smooth="yes"/>
      <point x="495.4412319614533" y="1177.3718008919896"/>
      <point x="442.04320869200643" y="1217.1860735788534"/>
      <point x="366.51719076662914" y="1217.0021325713228" type="curve" smooth="yes"/>
    </contour>
  </outline>
</glyph>
<glyph name="M" format="2">
  <advance width="1090"/>
  <unicode hex="004D"/>
  <outline>
    <contour>
      <point x="1117.6366598051545" y="1217.0022475845772" type="line" smooth="yes"/>
      <point x="1055.4773335731688" y="1216.5415907828672"/>
      <point x="995.7353917950973" y="1190.3280102294248"/>
      <point x="959.1487684629373" y="1142.7873139799722" type="curve" smooth="yes"/>
      <point x="621.4783773995197" y="616.3718733922286" type="line" smooth="yes"/>
      <point x="620.4866297713277" y="620.8459289027332"/>
      <point x="665.2763619013585" y="621.5550088091775"/>
      <point x="689.2874604279252" y="611.1967771341027" type="curve" smooth="yes"/>
      <point x="537.2747223751608" y="1137.5256467569398" type="line" smooth="yes"/>
      <point x="517.4065650535322" y="1186.0432490944143"/>
      <point x="460.2138801620725" y="1216.5977365313438"/>
      <point x="395.66463688237064" y="1217.0032722005956" type="curve" smooth="yes"/>
      <point x="392.8131262778721" y="1217.0008673072882" type="line" smooth="yes"/>
      <point x="332.38051690057233" y="1216.9416466458183"/>
      <point x="265.6439390487129" y="1191.6757783821838"/>
      <point x="246.85973204124676" y="1135.9694129683362" type="curve" smooth="yes"/>
      <point x="26.940949226076043" y="59.012792924343046" type="line" smooth="yes"/>
      <point x="17.7574172687547" y="9.974776308601601"/>
      <point x="71.20578423015803" y="-30.209261568343827"/>
      <point x="146.82206941772498" y="-30.002132571322733" type="curve" smooth="yes"/>
      <point x="149.67096791462217" y="-30.0016165847465" type="line" smooth="yes"/>
      <point x="222.3595736449247" y="-29.834231796221516"/>
      <point x="278.90788903351745" y="2.149418265296588"/>
      <point x="293.54472676424473" y="51.055639927875696" type="curve" smooth="yes"/>
      <point x="448.21179373154825" y="816.0240074039154" type="line" smooth="yes"/>
      <point x="431.3564569059388" y="815.2434278587261"/>
      <point x="371.1033924725859" y="812.6648593005648"/>
      <point x="353.9167174162662" y="818.8439809915251" type="curve" smooth="yes"/>
      <point x="469.80929847004506" y="416.48617716114745" type="line" smooth="yes"/>
      <point x="490.02850327795863" y="366.34868923917384"/>
      <point x="546.0806096065498" y="338.23297898334187"/>
      <point x="608.1254392321499" y="337.99998444810126" type="curve" smooth="yes"/>
      <point x="668.0347322813321" y="338.3449715941974"/>
      <point x="724.6341277243843" y="362.03340997340644"/>
      <point x="761.9529498345976" y="411.21912580736114" type="curve" smooth="yes"/>
      <point x="1019.7729473558106" y="813.639998799258" type="line" smooth="yes"/>
      <point x="1023.0799165888599" y="811.1129103579711"/>
      <point x="962.1948753178351" y="824.3700432769233"/>
      <point x="930.5484790975238" y="822.9541029010657" type="curve" smooth="yes"/>
      <point x="815.4023777902993" y="57.99854557933252" type="line" smooth="yes"/>
      <point x="808.9167702194165" y="9.66161090083428"/>
      <point x="861.0902981422088" y="-30.176622635384316"/>
      <point x="936.8104568738108" y="-30.002243121049098" type="curve" smooth="yes"/>
      <point x="939.6618386170866" y="-30.001542737874367" type="line" smooth="yes"/>
      <point x="1012.2537495027742" y="-29.857849359337237"/>
      <point x="1070.2588001097004" y="2.3896823715915083"/>
      <point x="1083.0803930867285" y="52.07228248993714" type="curve" smooth="yes"/>
      <point x="1242.9963967189742" y="1129.0242568301808" type="line" smooth="yes"/>
      <point x="1248.396049470678" y="1184.9842009472113"/>
      <point x="1183.5312943051663" y="1217.226944480866"/>
      <point x="1120.4401768356802" y="1217.0011805789786" type="curve" smooth="yes"/>
    </contour>
  </outline>
</glyph>
<glyph name="N" format="2">
  <advance width="1046"/>
  <unicode hex="004E"/>
  <outline>
    <contour>
      <point x="1098.6462622314095" y="1217.001801896327" type="line" smooth="yes"/>
      <point x="1027.8035778434396" y="1216.8230169202068"/>
      <point x="970.3860606198043" y="1184.8915376211523"/>
      <point x="956.5189618011728" y="1135.4568798136256" type="curve" smooth="yes"/>
      <point x="807.2948106595139" y="291.58109390057723" type="line"/>
      <point x="917.6182495715466" y="296.303999945599" type="line"/>
      <point x="508.5366986443533" y="1177.3866607493967" type="line" smooth="yes"/>
      <point x="486.74554881411996" y="1200.6807405257525"/>
      <point x="439.87937305703525" y="1216.7962188151387"/>
      <point x="397.3559765010727" y="1217.0008864538395" type="curve" smooth="yes"/>
      <point x="369.78982759247396" y="1217.0007749879635" type="line" smooth="yes"/>
      <point x="297.386662494688" y="1216.8424775021333"/>
      <point x="238.70075753927918" y="1185.1630180076077"/>
      <point x="224.51830815782978" y="1135.4588631889296" type="curve" smooth="yes"/>
      <point x="34.60452452866613" y="58.4882644055565" type="line" smooth="yes"/>
      <point x="26.8443917167234" y="9.602136576493404"/>
      <point x="79.8411048486312" y="-30.166401021257066"/>
      <point x="153.74459606610134" y="-30.002508171408728" type="curve" smooth="yes"/>
      <point x="156.65386386953836" y="-30.00180189632688" type="line" smooth="yes"/>
      <point x="227.4965482575084" y="-29.823016920206797"/>
      <point x="284.9140654811436" y="2.108462378847725"/>
      <point x="298.78128523623707" y="51.54275334921473" type="curve" smooth="yes"/>
      <point x="451.7040923061572" y="916.4466096017126" type="line"/>
      <point x="341.41451093366595" y="911.6838012134608" type="line"/>
      <point x="754.4102670929367" y="24.576669671296553" type="line" smooth="yes"/>
      <point x="775.8008759293359" y="-11.220308533335178"/>
      <point x="823.5610702316163" y="-41.07312229197112"/>
      <point x="882.9919424943807" y="-42.00017195577089" type="curve" smooth="yes"/>
      <point x="954.1931213178175" y="-41.44887873663005"/>
      <point x="1013.5802246353414" y="-6.99091649007104"/>
      <point x="1027.6049159239874" y="33.55027569948154" type="curve" smooth="yes"/>
      <point x="1220.6955236505153" y="1128.5119750909853" type="line" smooth="yes"/>
      <point x="1228.4557343842246" y="1177.3978634235066"/>
      <point x="1175.4590212523167" y="1217.166401021257"/>
      <point x="1101.5555300348467" y="1217.0025081714086" type="curve" smooth="yes"/>
    </contour>
  </outline>
</glyph>
<glyph name="O" format="2">
  <advance width="1184"/>
  <unicode hex="004F"/>
  <outline>
    <contour>
      <point x="113.47125141290297" y="596.4796392745627" type="curve" smooth="yes"/>
      <point x="48.18731595033479" y="220.02212011948941"/>
      <point x="245.47693630227607" y="-39.93270388420956"/>
      <point x="588.0845456969502" y="-42.00001361521741" type="curve" smooth="yes"/>
      <point x="927.0923414067851" y="-40.40255493124472"/>
      <point x="1208.5349721928205" y="213.93237824194208"/>
      <point x="1279.6524869273426" y="589.5205468529688" type="curve" smooth="yes"/>
      <point x="1344.9422422131738" y="965.9681865355003"/>
      <point x="1147.9162370533834" y="1226.9159637698788"/>
      <point x="805.2159416773778" y="1229.0000138878718" type="curve" smooth="yes"/>
      <point x="466.13394049770767" y="1227.3914208755282"/>
      <point x="184.5763596233702" y="972.0602579497602"/>
    </contour>
    <contour>
      <point x="1007.4757181110982" y="596.4659998531037" type="curve" smooth="yes"/>
      <point x="961.3715562255535" y="311.95780173312687"/>
      <point x="814.3020901296823" y="144.22773097277195"/>
      <point x="614.1568047534294" y="146.00003777037116" type="curve" smooth="yes"/>
      <point x="417.2834478568706" y="143.53228508994735"/>
      <point x="334.9692331770112" y="306.1087636052073"/>
      <point x="385.6479866241428" y="589.5342875103407" type="curve" smooth="yes"/>
      <point x="431.7653853530773" y="874.0528599403074"/>
      <point x="579.107497679952" y="1042.7872596604298"/>
      <point x="779.1441802235937" y="1040.9999611477222" type="curve" smooth="yes"/>
      <point x="975.874388747585" y="1043.490372503033"/>
      <point x="1058.150234492232" y="879.9066122530752"/>
    </contour>
  </outline>
</glyph>
<glyph name="P" format="2">
  <advance width="885"/>
  <unicode hex="0050"/>
  <outline>
    <contour>
      <point x="342.2144772192507" y="1207.000075961917" type="line" smooth="yes"/>
      <point x="278.855755364139" y="1206.7802264954641"/>
      <point x="222.4757542355961" y="1175.7433680419479"/>
      <point x="208.2253244747309" y="1122.461089134019" type="curve" smooth="yes"/>
      <point x="20.604466697896243" y="58.48844216721303" type="line" smooth="yes"/>
      <point x="12.858894139494588" y="9.628199108010433"/>
      <point x="66.25691740894148" y="-30.186073578853424"/>
      <point x="141.7829353343188" y="-30.002132571322733" type="curve" smooth="yes"/>
      <point x="144.6227045336803" y="-30.001542737874367" type="line" smooth="yes"/>
      <point x="217.1478754467651" y="-29.84486675793068"/>
      <point x="274.8956673720069" y="2.125130575771217"/>
      <point x="288.7725701512531" y="51.56904514481385" type="curve" smooth="yes"/>
      <point x="339.9596159129362" y="341.4068912295892" type="line" smooth="yes"/>
      <point x="337.24281502265444" y="358.1206234027648"/>
      <point x="332.85367458968716" y="375.22236010790306"/>
      <point x="336.9011571807212" y="372.99838142931594" type="curve" smooth="yes"/>
      <point x="510.3868611727366" y="372.99977916578547" type="line" smooth="yes"/>
      <point x="775.3212526080719" y="374.3464799263205"/>
      <point x="966.0388904316359" y="544.0992337595319"/>
      <point x="1013.2869722363456" y="784.5183285610193" type="curve" smooth="yes"/>
      <point x="1054.982987691452" y="1026.6282641999305"/>
      <point x="919.0923497782122" y="1205.258536539912"/>
      <point x="650.3939555242091" y="1207.000231458855" type="curve" smooth="yes"/>
    </contour>
    <contour>
      <point x="362.0969709454217" y="557.0036126034288" type="line" smooth="yes"/>
      <point x="348.56778341534323" y="553.4407494264759"/>
      <point x="375.9941433569756" y="573.5015222332893"/>
      <point x="382.2014804492779" y="581.641134544896" type="curve" smooth="yes"/>
      <point x="454.56145919156216" y="991.4410386186305" type="line" smooth="yes"/>
      <point x="451.8553524831567" y="1008.1206234027649"/>
      <point x="447.4662120501892" y="1025.2223601079031"/>
      <point x="451.47054157226756" y="1022.9980087763028" type="curve" smooth="yes"/>
      <point x="606.8487804258893" y="1022.9996229003032" type="line" smooth="yes"/>
      <point x="757.2609456192373" y="1024.6538734064377"/>
      <point x="789.7683139270307" y="944.7170413260633"/>
      <point x="761.6793115945961" y="791.4572639234716" type="curve" smooth="yes"/>
      <point x="739.3116104315297" y="638.7318060377597"/>
      <point x="669.8496259370431" y="555.8421083412787"/>
      <point x="517.5813495916015" y="557.0002172739346" type="curve" smooth="yes"/>
    </contour>
  </outline>
</glyph>
<glyph name="Q" format="2">
  <advance width="1184"/>
  <unicode hex="0051"/>
  <outline>
    <contour>
      <point x="573.3849523803806" y="291.5190452230226" type="curve" smooth="yes"/>
      <point x="668.2806842616419" y="86.61367292826438" type="line"/>
      <point x="687.1607626901292" y="45.535074059308855" type="line"/>
      <point x="776.0016894679721" y="-143.43393549876038" type="line" smooth="yes"/>
      <point x="808.8200274305116" y="-185.56195675573323"/>
      <point x="887.4964452899169" y="-197.6325411285075"/>
      <point x="955.3755434164822" y="-166.38934453001113" type="curve" smooth="yes"/>
      <point x="1021.3480684507521" y="-134.9795549795562"/>
      <point x="1048.4879655780455" y="-87.64204450847326"/>
      <point x="1024.88778860897" y="-45.508939364944396" type="curve" smooth="yes"/>
      <point x="822.5483748723699" y="389.3901049016557" type="line" smooth="yes"/>
      <point x="790.2439304562974" y="432.31697237804195"/>
      <point x="711.107399069886" y="444.6283202660472"/>
      <point x="642.6551085327535" y="413.2763716959135" type="curve" smooth="yes"/>
      <point x="578.0668564277846" y="380.95602634504985"/>
      <point x="550.001554795602" y="335.01412218600905"/>
    </contour>
    <component base="O"/>
  </outline>
</glyph>
<glyph name="R" format="2">
  <advance width="954"/>
  <unicode hex="0052"/>
  <outline>
    <contour>
      <point x="342.21767956952647" y="1207.0000703877713" type="line" smooth="yes"/>
      <point x="278.855755364139" y="1206.7802264954641"/>
      <point x="222.4757542355961" y="1175.7433680419479"/>
      <point x="208.2253244747309" y="1122.461089134019" type="curve" smooth="yes"/>
      <point x="20.604466697896243" y="58.48844216721303" type="line" smooth="yes"/>
      <point x="12.858894139494588" y="9.628199108010433"/>
      <point x="66.25691740894148" y="-30.186073578853424"/>
      <point x="141.7829353343188" y="-30.002132571322733" type="curve" smooth="yes"/>
      <point x="144.6227045336803" y="-30.001542737874367" type="line" smooth="yes"/>
      <point x="217.1478754467651" y="-29.84486675793068"/>
      <point x="274.8956673720069" y="2.125130575771217"/>
      <point x="288.77520504351264" y="51.56112667912418" type="curve" smooth="yes"/>
      <point x="354.057914464599" y="421.432038540119" type="line" smooth="yes"/>
      <point x="351.3489734793317" y="438.12062340276486"/>
      <point x="346.9598330463643" y="455.22236010790306"/>
      <point x="350.87215019360843" y="452.99708534969307" type="curve" smooth="yes"/>
      <point x="477.55951105745766" y="452.99893111837804" type="line" smooth="yes"/>
      <point x="484.9179078828934" y="454.2150359931916"/>
      <point x="491.7215046527205" y="439.3293777322195"/>
      <point x="489.9307665246943" y="424.1284398462128" type="curve" smooth="yes"/>
      <point x="688.0798847075785" y="4.5554421267444045" type="line" smooth="yes"/>
      <point x="721.3131413410019" y="-34.39812103845888"/>
      <point x="795.7246770260166" y="-41.08728159571447"/>
      <point x="860.1979247294584" y="-18.484537921838818" type="curve" smooth="yes"/>
      <point x="930.1908469521882" y="5.713366346694997"/>
      <point x="963.4512312027742" y="52.92471113941922"/>
      <point x="939.6927681151866" y="96.68582764689376" type="curve" smooth="yes"/>
      <point x="765.675692326086" y="458.76965221993385" type="line" smooth="yes"/>
      <point x="749.8076234128669" y="457.2151448480138"/>
      <point x="736.7900256513237" y="483.10078667001716"/>
      <point x="755.0872933311335" y="482.8321874285063" type="curve" smooth="yes"/>
      <point x="904.4737664377318" y="517.2124894605547"/>
      <point x="1036.8919445288166" y="648.9451700917452"/>
      <point x="1072.101193799739" y="824.4839246088297" type="curve" smooth="yes"/>
      <point x="1109.5025024032063" y="1047.8465708071742"/>
      <point x="955.831657323719" y="1205.9100146183619"/>
      <point x="664.3909733790595" y="1207.0000854626803" type="curve" smooth="yes"/>
    </contour>
    <contour>
      <point x="454.5677748620831" y="991.420934530402" type="line" smooth="yes"/>
      <point x="451.8553524831567" y="1008.1206234027649"/>
      <point x="447.4662120501892" y="1025.2223601079031"/>
      <point x="451.4982663523437" y="1022.9982526276665" type="curve" smooth="yes"/>
      <point x="618.0031210665027" y="1022.9999083464871" type="line" smooth="yes"/>
      <point x="790.5174630406246" y="1023.9529119377888"/>
      <point x="825.2498820121872" y="963.0315081908911"/>
      <point x="799.9209715038463" y="831.440521736031" type="curve" smooth="yes"/>
      <point x="782.8552625355601" y="699.8701378359775"/>
      <point x="716.2479782583584" y="636.3143501350341"/>
      <point x="542.8684403621592" y="637.0000577716975" type="curve" smooth="yes"/>
      <point x="376.24088220020997" y="637.0031654720062" type="line" smooth="yes"/>
      <point x="362.6739418720204" y="633.4407494264759"/>
      <point x="390.1003018136527" y="653.5015222332894"/>
      <point x="396.29839578630094" y="661.6679095189327" type="curve" smooth="yes"/>
    </contour>
  </outline>
</glyph>
<glyph name="S" format="2">
  <advance width="1015"/>
  <unicode hex="0053"/>
  <outline>
    <contour>
      <point x="158.52343902912787" y="866.4368071441266" type="curve" smooth="yes"/>
      <point x="133.8691483405083" y="721.451002379577"/>
      <point x="210.75511435560907" y="635.1043738859827"/>
      <point x="310.18208016592865" y="590.0601371595087" type="curve" smooth="yes"/>
      <point x="450.7348100587688" y="526.3868885333943"/>
      <point x="642.9671553612849" y="524.3161083512969"/>
      <point x="742.0430090587896" y="473.817178575987" type="curve" smooth="yes"/>
      <point x="800.2289329829749" y="445.4716500724854"/>
      <point x="815.20234961915" y="409.31750495456964"/>
      <point x="799.9925312206316" y="330.49664342588574" type="curve" smooth="yes"/>
      <point x="787.0687989026026" y="220.02750612387052"/>
      <point x="717.3679561632641" y="145.18184745268258"/>
      <point x="537.7042212674944" y="146.0000339186721" type="curve" smooth="yes"/>
      <point x="417.2050144270952" y="145.6707944269512"/>
      <point x="316.5578451562664" y="188.75249595044758"/>
      <point x="239.33702547503583" y="248.121665708543" type="curve" smooth="yes"/>
      <point x="194.89458879578305" y="268.59641489237987"/>
      <point x="112.45711397003123" y="266.4201102969768"/>
      <point x="60.372756730657066" y="210.35759509608909" type="curve" smooth="yes"/>
      <point x="19.22898463998894" y="159.49132468856135"/>
      <point x="25.699298164180128" y="105.35743816131537"/>
      <point x="76.48366154004627" y="77.47695101959009" type="curve" smooth="yes"/>
      <point x="190.75235881297166" y="2.909631072560485"/>
      <point x="349.81786928890546" y="-41.79861451403746"/>
      <point x="511.61511343967373" y="-42.0000431035168" type="curve" smooth="yes"/>
      <point x="823.5281602856309" y="-41.17636282138023"/>
      <point x="1028.134515310978" y="110.9568892154157"/>
      <point x="1072.1742314437922" y="323.53601430093914" type="curve" smooth="yes"/>
      <point x="1103.189240387302" y="505.90572292440135"/>
      <point x="1005.6182594011564" y="603.5589479073094"/>
      <point x="885.0867794972557" y="652.3449140219774" type="curve" smooth="yes"/>
      <point x="731.5788645434949" y="714.6958098245701"/>
      <point x="535.3304244913335" y="713.6643264743665"/>
      <point x="457.64744002162524" y="765.527595092819" type="curve" smooth="yes"/>
      <point x="421.85172557345027" y="785.9206535724142"/>
      <point x="421.3714570722748" y="811.3185766498664"/>
      <point x="430.71503765262963" y="859.4443612362503" type="curve" smooth="yes"/>
      <point x="444.0278836412194" y="973.858372470555"/>
      <point x="514.294106033367" y="1041.880062185329"/>
      <point x="658.4204098834297" y="1040.9999117712396" type="curve" smooth="yes"/>
      <point x="781.2936078231667" y="1041.2040527502927"/>
      <point x="875.0853551551978" y="1008.8341377422831"/>
      <point x="954.2630140605021" y="952.4167083803253" type="curve" smooth="yes"/>
      <point x="1000.1454458581059" y="933.0796141815957"/>
      <point x="1082.7315032872687" y="936.826453263975"/>
      <point x="1131.9410870128013" y="993.3569189518046" type="curve" smooth="yes"/>
      <point x="1170.5547908512297" y="1045.8919385330598"/>
      <point x="1162.4809415131865" y="1099.20850953667"/>
      <point x="1109.4809877667294" y="1125.9706722491353" type="curve" smooth="yes"/>
      <point x="991.1938940403389" y="1196.436860691901"/>
      <point x="844.233104927386" y="1228.887684296916"/>
      <point x="684.529772964616" y="1229.0000651764742" type="curve" smooth="yes"/>
      <point x="426.9847445854831" y="1228.2078803164557"/>
      <point x="205.8625653241262" y="1090.8367390123574"/>
    </contour>
  </outline>
</glyph>
<glyph name="T" format="2">
  <advance width="926"/>
  <unicode hex="0054"/>
  <outline>
    <contour>
      <point x="327.25449842992447" y="1207.0000683413393" type="line" smooth="yes"/>
      <point x="268.98018670128266" y="1206.2098576077888"/>
      <point x="220.47756999897845" y="1172.5846091170242"/>
      <point x="207.51336105671464" y="1118.4813986473405" type="curve" smooth="yes"/>
      <point x="197.89098054989972" y="1065.113109852541"/>
      <point x="239.05351012034123" y="1023.5551216415747"/>
      <point x="301.65719574450395" y="1022.9991443240575" type="curve" smooth="yes"/>
      <point x="524.2786125327314" y="1022.9981769780395" type="line" smooth="yes"/>
      <point x="537.9788461040315" y="1026.5592505735242"/>
      <point x="510.5524861623991" y="1006.4984777667106"/>
      <point x="504.32359595624075" y="998.4224600663889" type="curve" smooth="yes"/>
      <point x="338.5538394103996" y="58.49037120607826" type="line" smooth="yes"/>
      <point x="330.80889413949456" y="9.628199108010449"/>
      <point x="384.2069174089415" y="-30.186073578853424"/>
      <point x="459.73293533431877" y="-30.002132571322733" type="curve" smooth="yes"/>
      <point x="462.5727045336803" y="-30.001542737874367" type="line" smooth="yes"/>
      <point x="535.0978754467651" y="-29.844866757930678"/>
      <point x="592.845667372007" y="2.125130575771238"/>
      <point x="606.7316699417562" y="51.541586042639096" type="curve" smooth="yes"/>
      <point x="772.4961966518871" y="991.4889053170901" type="line" smooth="yes"/>
      <point x="769.8053524831569" y="1008.1206234027649"/>
      <point x="765.4162120501893" y="1025.2223601079031"/>
      <point x="769.5464812929524" y="1022.9989883444194" type="curve" smooth="yes"/>
      <point x="991.9962257547501" y="1022.9994859852249" type="line" smooth="yes"/>
      <point x="1050.128980278594" y="1023.7901423922112"/>
      <point x="1098.6315969808986" y="1057.4153908829758"/>
      <point x="1111.5958059231623" y="1111.5186013526595" type="curve" smooth="yes"/>
      <point x="1121.2181864299773" y="1164.8868901474589"/>
      <point x="1080.0556568595357" y="1206.4448783584255"/>
      <point x="1017.2697392084319" y="1207.000114653638" type="curve" smooth="yes"/>
    </contour>
  </outline>
</glyph>
<glyph name="U" format="2">
  <advance width="1046"/>
  <unicode hex="0055"/>
  <outline>
    <contour>
      <point x="1096.6774215672676" y="1217.0015427378744" type="line" smooth="yes"/>
      <point x="1024.1522506541828" y="1216.8448667579307"/>
      <point x="966.404458728941" y="1184.8748694242288"/>
      <point x="952.5199911251473" y="1135.4537598532224" type="curve" smooth="yes"/>
      <point x="829.2531838495629" y="436.497316702087" type="line" smooth="yes"/>
      <point x="798.2413441263704" y="234.6180911428109"/>
      <point x="709.4688898431037" y="144.91627538847993"/>
      <point x="545.1859895291324" y="146.00001008649215" type="curve" smooth="yes"/>
      <point x="382.27260557591404" y="144.52378887567818"/>
      <point x="333.00928895047304" y="229.1667006236593"/>
      <point x="369.4280364714806" y="429.557413040102" type="curve" smooth="yes"/>
      <point x="492.69809315719067" y="1128.5040646377295" type="line" smooth="yes"/>
      <point x="500.4412319614533" y="1177.3718008919896"/>
      <point x="447.04320869200643" y="1217.1860735788534"/>
      <point x="371.51719076662914" y="1217.0021325713228" type="curve" smooth="yes"/>
      <point x="368.67742156726763" y="1217.0015427378744" type="line" smooth="yes"/>
      <point x="296.15225065418286" y="1216.8448667579307"/>
      <point x="238.40445872894102" y="1184.8748694242288"/>
      <point x="224.51982719928753" y="1135.454256450748" type="curve" smooth="yes"/>
      <point x="97.72261699609615" y="416.50977647537024" type="line" smooth="yes"/>
      <point x="48.32522718284096" y="123.7722363521371"/>
      <point x="237.94226195988233" y="-40.93428880253835"/>
      <point x="519.1012554999647" y="-42.00000395809305" type="curve" smooth="yes"/>
      <point x="797.8545806544532" y="-41.09442744647615"/>
      <point x="1036.1355816433145" y="118.00918716660757"/>
      <point x="1093.9020748282646" y="409.5556698776663" type="curve" smooth="yes"/>
      <point x="1220.6979006414783" y="1128.504658242191" type="line" smooth="yes"/>
      <point x="1228.4412319614532" y="1177.3718008919896"/>
      <point x="1175.0432086920064" y="1217.1860735788534"/>
      <point x="1099.5171907666293" y="1217.0021325713228" type="curve" smooth="yes"/>
    </contour>
  </outline>
</glyph>
<glyph name="V" format="2">
  <advance width="1134"/>
  <unicode hex="0056"/>
  <outline>
    <contour>
      <point x="1078.172731186608" y="1160.607397883002" type="curve" smooth="yes"/>
      <point x="570.9706560452655" y="236.63076478372824" type="line" smooth="yes"/>
      <point x="574.3050942791373" y="240.95038834151072"/>
      <point x="623.6964097974783" y="239.1637618101985"/>
      <point x="648.9823216252764" y="230.89474531283827" type="curve" smooth="yes"/>
      <point x="467.6423966623546" y="1154.8204496799306" type="line" smooth="yes"/>
      <point x="450.5041431512621" y="1202.7425569577103"/>
      <point x="377.2219193935268" y="1226.95052167154"/>
      <point x="303.34924973325406" y="1208.0544952059433" type="curve" smooth="yes"/>
      <point x="232.72983043962392" y="1189.2762512971058"/>
      <point x="187.11555227311496" y="1148.0993527944834"/>
      <point x="196.46780333292415" y="1099.0464792491157" type="curve" smooth="yes"/>
      <point x="408.5766731315217" y="39.0938403047172" type="line" smooth="yes"/>
      <point x="426.65061628681747" y="-13.246401390365328"/>
      <point x="491.4601110533847" y="-41.870925785322896"/>
      <point x="562.918389403163" y="-42.00000377438751" type="curve" smooth="yes"/>
      <point x="632.6420520384929" y="-41.77196209549605"/>
      <point x="697.8912977605424" y="-17.296313269930653"/>
      <point x="733.8939338818352" y="33.33141050066613" type="curve" smooth="yes"/>
      <point x="1319.822428187773" y="1093.3059575031843" type="line" smooth="yes"/>
      <point x="1351.24471902079" y="1140.253981292358"/>
      <point x="1319.9349229199086" y="1188.9831130872049"/>
      <point x="1251.6705889136613" y="1207.8306846093178" type="curve" smooth="yes"/>
      <point x="1183.5653594735852" y="1226.9024805968436"/>
      <point x="1112.156622867285" y="1207.3659599058626"/>
    </contour>
  </outline>
</glyph>
<glyph name="W" format="2">
  <advance width="1195"/>
  <unicode hex="0057"/>
  <outline>
    <contour>
      <point x="1133.8661287803682" y="1144.7942994110465" type="curve" smooth="yes"/>
      <point x="880.9496174593614" y="311.4488462362693" type="line" smooth="yes"/>
      <point x="892.795162247368" y="312.64140465140764"/>
      <point x="953.909541406423" y="311.434557166857"/>
      <point x="975.0569335469106" y="306.80602973858515" type="curve" smooth="yes"/>
      <point x="879.5083938494023" y="848.4196345594474" type="line" smooth="yes"/>
      <point x="866.5254506058925" y="879.6765422625607"/>
      <point x="813.2337130478768" y="904.9147571902957"/>
      <point x="753.5140334281031" y="905.0000084171236" type="curve" smooth="yes"/>
      <point x="695.8144983430951" y="904.7727570037522"/>
      <point x="643.1325843511064" y="883.9726898232442"/>
      <point x="619.4104249841517" y="854.3256561281712" type="curve" smooth="yes"/>
      <point x="332.80786018354155" y="312.64885720396677" type="line" smooth="yes"/>
      <point x="334.10067733942884" y="314.72301056733414"/>
      <point x="395.58123360171845" y="305.2747261200428"/>
      <point x="424.19503380627054" y="304.6730495451381" type="curve" smooth="yes"/>
      <point x="465.20206088805674" y="1137.9968122913704" type="line" smooth="yes"/>
      <point x="464.35388377395606" y="1188.0709352393674"/>
      <point x="402.9224687163742" y="1222.3752722203433"/>
      <point x="326.58895340293327" y="1215.869033412068" type="curve" smooth="yes"/>
      <point x="254.09694545661583" y="1208.4688597049478"/>
      <point x="198.82436256971673" y="1174.029622541398"/>
      <point x="193.3190494089128" y="1122.7376040591478" type="curve" smooth="yes"/>
      <point x="152.05944739482302" y="43.79060540212858" type="line" smooth="yes"/>
      <point x="155.22428505928215" y="-11.241485512197817"/>
      <point x="219.86395137637487" y="-42.08187458861306"/>
      <point x="286.5855727351416" y="-42.00000848267894" type="curve" smooth="yes"/>
      <point x="352.00980682356374" y="-41.64458330126094"/>
      <point x="417.2850041845435" y="-15.21523663377139"/>
      <point x="451.017056278594" y="33.65899168165864" type="curve" smooth="yes"/>
      <point x="737.4463915299095" y="574.3351926499179" type="line" smooth="yes"/>
      <point x="733.4248120793676" y="570.2512366343401"/>
      <point x="682.6306702681593" y="572.5251203051243"/>
      <point x="657.2370211528739" y="580.1527941707504" type="curve" smooth="yes"/>
      <point x="752.9529167157388" y="39.55883693704818" type="line" smooth="yes"/>
      <point x="769.1636609359459" y="-11.113231714340124"/>
      <point x="833.0623980250388" y="-41.72767190454742"/>
      <point x="900.4741418466353" y="-42.00007100888874" type="curve" smooth="yes"/>
      <point x="965.0018774899291" y="-41.87295638002017"/>
      <point x="1030.135180821571" y="-16.888729710657344"/>
      <point x="1055.241254544184" y="37.01639169450206" type="curve" smooth="yes"/>
      <point x="1394.51454030942" y="1115.9770683362892" type="line" smooth="yes"/>
      <point x="1412.162297071209" y="1166.1480581977153"/>
      <point x="1364.0854617181162" y="1208.759371606932"/>
      <point x="1290.3973057825792" y="1215.8619225478226" type="curve" smooth="yes"/>
      <point x="1218.0084810926635" y="1222.1048274455484"/>
      <point x="1155.4838859788676" y="1194.8418350364602"/>
    </contour>
  </outline>
</glyph>
<glyph name="X" format="2">
  <advance width="1049"/>
  <unicode hex="0058"/>
  <outline>
    <contour>
      <point x="981.2743451913867" y="1184.8251653590078" type="curve" smooth="yes"/>
      <point x="640.4458903022326" y="777.6938567357641" type="line" smooth="yes"/>
      <point x="627.688152141545" y="774.9328508866272"/>
      <point x="673.685865283043" y="785.0280202204946"/>
      <point x="687.6366461154624" y="773.6551611937858" type="curve" smooth="yes"/>
      <point x="488.9888549226056" y="1180.7088724603868" type="line" smooth="yes"/>
      <point x="449.5989554403235" y="1226.0584360006924"/>
      <point x="372.3135402148521" y="1228.8869870621008"/>
      <point x="307.4575857621599" y="1205.4699808296373" type="curve" smooth="yes"/>
      <point x="243.15337936736375" y="1183.201754792134"/>
      <point x="204.28404912998917" y="1135.228124214996"/>
      <point x="231.66776867617875" y="1088.8209838571129" type="curve" smooth="yes"/>
      <point x="463.6792860268453" y="635.1747575291556" type="line" smooth="yes"/>
      <point x="467.98149410945484" y="622.3766455521752"/>
      <point x="466.5974506202365" y="593.3934375489231"/>
      <point x="457.7165147124889" y="578.5467743852807" type="curve" smooth="yes"/>
      <point x="39.05205294012795" y="102.21013360966826" type="line" smooth="yes"/>
      <point x="-6.597266985026447" y="58.765863831877134"/>
      <point x="10.735735777499983" y="5.150374064189997"/>
      <point x="71.68006917892336" y="-18.022583660620825" type="curve" smooth="yes"/>
      <point x="129.2599255781362" y="-41.601244506095995"/>
      <point x="203.1076203806957" y="-41.485898583122875"/>
      <point x="253.85858622297906" y="2.0838482890019403" type="curve" smooth="yes"/>
      <point x="620.5908511629639" y="433.8141844729952" type="line" smooth="yes"/>
      <point x="633.6498444352206" y="437.52608095137873"/>
      <point x="587.3218896514514" y="426.6648928354132"/>
      <point x="574.8626105265088" y="437.8090782147331" type="curve" smooth="yes"/>
      <point x="792.6036045143036" y="6.116342395520978" type="line" smooth="yes"/>
      <point x="830.6490015879838" y="-40.0339511756792"/>
      <point x="909.4405871756396" y="-41.83451448433716"/>
      <point x="973.912021829157" y="-18.47419154901556" type="curve" smooth="yes"/>
      <point x="1038.522142241725" y="3.9201246406550716"/>
      <point x="1077.249261933832" y="52.714134883914085"/>
      <point x="1049.3027615706467" y="98.42494667753216" type="curve" smooth="yes"/>
      <point x="797.6275968088054" y="574.1342759561275" type="line" smooth="yes"/>
      <point x="793.3626943211617" y="586.7322191524433"/>
      <point x="794.6231220368452" y="615.6413642787046"/>
      <point x="803.433647502486" y="630.5567769548067" type="curve" smooth="yes"/>
      <point x="1196.536367630419" y="1084.880039484095" type="line" smooth="yes"/>
      <point x="1242.9680695718703" y="1128.1886966673378"/>
      <point x="1224.261629892504" y="1182.0134471114407"/>
      <point x="1163.6359551680082" y="1205.0129181365826" type="curve" smooth="yes"/>
      <point x="1105.449454861132" y="1228.7069067676134"/>
      <point x="1031.9874514552607" y="1227.5069051523485"/>
    </contour>
  </outline>
</glyph>
<glyph name="Y" format="2">
  <advance width="910"/>
  <unicode hex="0059"/>
  <outline>
    <contour>
      <point x="892.0518387564562" y="1183.5154922044721" type="curve" smooth="yes"/>
      <point x="549.9863592163706" y="700.0171204712685" type="line" smooth="yes"/>
      <point x="544.7659610124392" y="703.4492492005135"/>
      <point x="588.6174062855448" y="706.5108623112056"/>
      <point x="610.6279174282862" y="695.2370124124442" type="curve" smooth="yes"/>
      <point x="438.722189445963" y="1178.6002062830173" type="line" smooth="yes"/>
      <point x="414.35972949013706" y="1215.9323048278552"/>
      <point x="338.8087688268426" y="1228.7864493003538"/>
      <point x="279.30409185198613" y="1204.598011498741" type="curve" smooth="yes"/>
      <point x="220.93776791421607" y="1178.5655628063596"/>
      <point x="193.70006592999005" y="1133.731210210512"/>
      <point x="209.50296798260513" y="1089.7621118245381" type="curve" smooth="yes"/>
      <point x="394.7332982412148" y="523.411849782967" type="line" smooth="yes"/>
      <point x="399.8875139145543" y="503.8838583385428"/>
      <point x="401.82299778601583" y="464.6881097513822"/>
      <point x="398.2277459883983" y="442.203287849662" type="curve" smooth="yes"/>
      <point x="330.5466989785951" y="58.512442531147244" type="line" smooth="yes"/>
      <point x="322.80889413949467" y="9.628199108010449"/>
      <point x="376.20691740894154" y="-30.186073578853424"/>
      <point x="451.7329353343188" y="-30.002132571322733" type="curve" smooth="yes"/>
      <point x="454.57270453368034" y="-30.001542737874367" type="line" smooth="yes"/>
      <point x="527.0978754467651" y="-29.844866757930678"/>
      <point x="584.845667372007" y="2.125130575771217"/>
      <point x="598.7255779195664" y="51.5600039782895" type="curve" smooth="yes"/>
      <point x="666.5295695985805" y="435.9691408697268" type="line" smooth="yes"/>
      <point x="668.989512312512" y="458.6909113100561"/>
      <point x="683.1090651401387" y="498.58749153296264"/>
      <point x="694.6640154949239" y="519.0742045321282" type="curve" smooth="yes"/>
      <point x="1079.4904472549688" y="1084.7413548372401" type="line" smooth="yes"/>
      <point x="1113.773233961763" y="1126.8668798634976"/>
      <point x="1106.8873298198528" y="1176.1320568515964"/>
      <point x="1054.1216063732434" y="1203.6738204159847" type="curve" smooth="yes"/>
      <point x="1000.5904576843192" y="1228.5892155941337"/>
      <point x="928.316128824868" y="1219.0597755208898"/>
    </contour>
  </outline>
</glyph>
<glyph name="Z" format="2">
  <advance width="1000"/>
  <unicode hex="005A"/>
  <outline>
    <contour>
      <point x="352.2519419871106" y="1207.0000240413842" type="line" smooth="yes"/>
      <point x="287.5292267789769" y="1206.6333583363496"/>
      <point x="231.7282931179726" y="1173.5747320684113"/>
      <point x="217.510299097092" y="1118.4908015343663" type="curve" smooth="yes"/>
      <point x="208.32643737591087" y="1063.945835091522"/>
      <point x="258.51527648886673" y="1023.0325538274255"/>
      <point x="326.8286199125274" y="1022.9999330283563" type="curve" smooth="yes"/>
      <point x="844.6393549002272" y="1022.999460853924" type="line" smooth="yes"/>
      <point x="878.7382674021909" y="1013.2329331464676"/>
      <point x="857.0325563597576" y="1021.9469563937112"/>
      <point x="812.8821249506896" y="1016.4857268568006" type="curve" smooth="yes"/>
      <point x="42.15364539488544" y="124.07028001267608" type="line" smooth="yes"/>
      <point x="28.711091990589296" y="111.18264182646277"/>
      <point x="13.038263690710185" y="92.72768017763755"/>
      <point x="6.869199798408708" y="71.57461219551197" type="curve" smooth="yes"/>
      <point x="-1.7380017157242058" y="18.768435990000533"/>
      <point x="50.153664896937336" y="-20.152762102808428"/>
      <point x="116.95433099584153" y="-20.000021597066343" type="curve" smooth="yes"/>
      <point x="883.0456011173903" y="-20.000021532906132" type="line" smooth="yes"/>
      <point x="947.770899321971" y="-19.633358336349513"/>
      <point x="1003.5718329829754" y="13.425267931588648"/>
      <point x="1017.789827003856" y="68.5091984656337" type="curve" smooth="yes"/>
      <point x="1026.9736887250372" y="123.054164908478"/>
      <point x="976.7848496120812" y="163.9674461725745"/>
      <point x="908.4658957863653" y="164.0000579532912" type="curve" smooth="yes"/>
      <point x="347.68016495059607" y="164.00046067551764" type="line" smooth="yes"/>
      <point x="313.56361773475413" y="173.76786733333353"/>
      <point x="335.2651507159787" y="165.04301742662173"/>
      <point x="379.42063798471435" y="170.50692692399994" type="curve" smooth="yes"/>
      <point x="1153.841582586765" y="1066.9207385792836" type="line" smooth="yes"/>
      <point x="1168.657823105205" y="1079.3327105226508"/>
      <point x="1180.0775368407753" y="1097.9637131185277"/>
      <point x="1184.453449223739" y="1115.3523384533667" type="curve" smooth="yes"/>
      <point x="1193.0381278166722" y="1168.2315640099994"/>
      <point x="1141.1464612040106" y="1207.1527621028085"/>
      <point x="1074.3483819229866" y="1207.0000241129949" type="curve" smooth="yes"/>
    </contour>
  </outline>
</glyph>
<glyph name="bracketleft" format="2">
  <advance width="681"/>
  <unicode hex="005B"/>
  <outline>
    <contour>
      <point x="385.85438094905453" y="1392.0000454305389" type="line" smooth="yes"/>
      <point x="322.476246795205" y="1391.7802264954641"/>
      <point x="266.0962456666622" y="1360.7433680419479"/>
      <point x="251.8446038985017" y="1307.4647746381834" type="curve" smooth="yes"/>
      <point x="-24.818294617700303" y="-261.5173067707718" type="line" smooth="yes"/>
      <point x="-33.454886291643035" y="-314.23156400999943"/>
      <point x="18.43678032101849" y="-353.1527621028084"/>
      <point x="85.20315565278112" y="-353.00006620571156" type="curve" smooth="yes"/>
      <point x="499.3629568598175" y="-353.0000660098953" type="line" smooth="yes"/>
      <point x="564.0540147460523" y="-352.6333583363495"/>
      <point x="619.8549484070564" y="-319.5747320684114"/>
      <point x="634.0729424279372" y="-264.4908015343663" type="curve" smooth="yes"/>
      <point x="643.2568041491182" y="-209.94583509152193"/>
      <point x="593.0679650361623" y="-169.0325538274255"/>
      <point x="524.8119036003585" y="-168.99980364547912" type="curve" smooth="yes"/>
      <point x="245.33750959700936" y="-168.99882609569843" type="line" smooth="yes"/>
      <point x="231.55439542099785" y="-172.55925057352414"/>
      <point x="258.9807553626301" y="-152.4984777667107"/>
      <point x="265.214463372278" y="-144.43690709812634" type="curve" smooth="yes"/>
      <point x="498.16316911145685" y="1176.4998023930941" type="line" smooth="yes"/>
      <point x="495.47584391422276" y="1193.1206234027647"/>
      <point x="491.0867034812553" y="1210.2223601079031"/>
      <point x="495.27830169922987" y="1207.9993464082072" type="curve" smooth="yes"/>
      <point x="774.641664899162" y="1207.9998697981773" type="line" smooth="yes"/>
      <point x="839.3004316319659" y="1208.3666416636504"/>
      <point x="895.1013652929703" y="1241.4252679315887"/>
      <point x="909.319359313851" y="1296.5091984656337" type="curve" smooth="yes"/>
      <point x="918.5032210350321" y="1351.054164908478"/>
      <point x="868.3143819220761" y="1391.9674461725747"/>
      <point x="800.0187544905971" y="1392.0000997282227" type="curve" smooth="yes"/>
    </contour>
  </outline>
</glyph>
<glyph name="backslash" format="2">
  <advance width="1017"/>
  <unicode hex="005C"/>
  <outline>
    <contour>
      <point x="270.4009464334182" y="1319.4039718214187" type="curve" smooth="yes"/>
      <point x="652.7400683964423" y="-323.51496062591275" type="line" smooth="yes"/>
      <point x="669.117542208987" y="-351.29776785261856"/>
      <point x="719.8840032392935" y="-374.54437480553213"/>
      <point x="769.8007403468489" y="-375.0000032279636" type="curve" smooth="yes"/>
      <point x="850.116537629646" y="-374.55394847490334"/>
      <point x="932.5557706997646" y="-334.4387175983575"/>
      <point x="929.631735218384" y="-280.4039718214188" type="curve" smooth="yes"/>
      <point x="547.2926132553599" y="1362.5149606259126" type="line" smooth="yes"/>
      <point x="530.9151394428154" y="1390.2977678526188"/>
      <point x="480.14867841250873" y="1413.5443748055322"/>
      <point x="430.2319413049534" y="1414.0000032279636" type="curve" smooth="yes"/>
      <point x="349.9161440221563" y="1413.5539484749033"/>
      <point x="267.47691095203777" y="1373.4387175983575"/>
    </contour>
  </outline>
</glyph>
<glyph name="bracketright" format="2">
  <advance width="681"/>
  <unicode hex="005D"/>
  <outline>
    <contour>
      <point x="110.56206805693303" y="-168.9998697981773" type="line" smooth="yes"/>
      <point x="45.90330132412912" y="-169.3666416636505"/>
      <point x="-9.897632336875201" y="-202.42526793158862"/>
      <point x="-24.11562635775585" y="-257.5091984656337" type="curve" smooth="yes"/>
      <point x="-33.299488078936946" y="-312.05416490847807"/>
      <point x="16.889351034018958" y="-352.96744617257457"/>
      <point x="85.18497846549795" y="-353.0000997282228" type="curve" smooth="yes"/>
      <point x="499.3493520070406" y="-353.0000454305389" type="line" smooth="yes"/>
      <point x="562.7274861608901" y="-352.7802264954641"/>
      <point x="619.1074872894329" y="-321.7433680419479"/>
      <point x="633.3591290575935" y="-268.4647746381834" type="curve" smooth="yes"/>
      <point x="910.0220275737954" y="1300.5173067707717" type="line" smooth="yes"/>
      <point x="918.6586192477382" y="1353.2315640099994"/>
      <point x="866.7669526350766" y="1392.1527621028085"/>
      <point x="800.000577303314" y="1392.0000662057116" type="curve" smooth="yes"/>
      <point x="385.84077609627764" y="1392.0000660098954" type="line" smooth="yes"/>
      <point x="321.1497182100429" y="1391.6333583363496"/>
      <point x="265.34878454903856" y="1358.5747320684113"/>
      <point x="251.13079052815803" y="1303.4908015343663" type="curve" smooth="yes"/>
      <point x="241.94692880697684" y="1248.945835091522"/>
      <point x="292.13576791993273" y="1208.0325538274253"/>
      <point x="360.39182935573655" y="1207.9998036454792" type="curve" smooth="yes"/>
      <point x="639.8662233590857" y="1207.9988260956984" type="line" smooth="yes"/>
      <point x="653.6493375350975" y="1211.559250573524"/>
      <point x="626.2229775934652" y="1191.4984777667107"/>
      <point x="619.9892695838172" y="1183.4369070981263" type="curve" smooth="yes"/>
      <point x="387.04056384463826" y="-137.49980239309417" type="line" smooth="yes"/>
      <point x="389.7278890418723" y="-154.12062340276483"/>
      <point x="394.1170294748398" y="-171.2223601079031"/>
      <point x="389.92543125686524" y="-168.99934640820726" type="curve" smooth="yes"/>
    </contour>
  </outline>
</glyph>
<glyph name="asciicircum" format="2">
  <advance width="903"/>
  <unicode hex="005E"/>
  <outline>
    <contour>
      <point x="541.1990267055855" y="1183.4440590993916" type="curve" smooth="yes"/>
      <point x="128.86797031812495" y="592.5285241635052" type="line" smooth="yes"/>
      <point x="94.249736310381" y="548.8917972351768"/>
      <point x="140.04038289858602" y="502.2418525170894"/>
      <point x="191.1167536230711" y="490.0330407531234" type="curve" smooth="yes"/>
      <point x="238.6100563440416" y="477.1852389527546"/>
      <point x="314.5131542497677" y="481.9476825850102"/>
      <point x="357.34389277108136" y="515.9464636002973" type="curve" smooth="yes"/>
      <point x="650.369137756085" y="952.7675438111629" type="line" smooth="yes"/>
      <point x="653.0964869692993" y="948.6060396246314"/>
      <point x="608.9608679548007" y="946.9654668286428"/>
      <point x="585.6761460936447" y="957.7568708150222" type="curve" smooth="yes"/>
      <point x="724.6178090988279" y="521.1823385974373" type="line" smooth="yes"/>
      <point x="760.9329011396004" y="481.3701776609997"/>
      <point x="843.4612102111782" y="476.23542552354104"/>
      <point x="896.3838047746975" y="491.11882553840996" type="curve" smooth="yes"/>
      <point x="943.86834606038" y="504.1640403087988"/>
      <point x="998.4651178949883" y="542.326983221921"/>
      <point x="986.9844988785499" y="587.6432283600589" type="curve" smooth="yes"/>
      <point x="783.0831122511344" y="1178.5178046903454" type="line" smooth="yes"/>
      <point x="767.0879567425388" y="1204.980868108164"/>
      <point x="720.8340135065073" y="1228.8338244667193"/>
      <point x="664.9493482451182" y="1229.0000170969884" type="curve" smooth="yes"/>
      <point x="611.2209488756278" y="1228.6991054800346"/>
      <point x="565.6210885386038" y="1209.1785895518947"/>
    </contour>
  </outline>
</glyph>
<glyph name="underscore" format="2">
  <advance width="1272"/>
  <unicode hex="005F"/>
  <outline>
    <contour>
      <point x="111.05777090872418" y="-228.99998596849318" type="line" smooth="yes"/>
      <point x="46.32368248162123" y="-229.3666416636505"/>
      <point x="-9.477251179383106" y="-262.4252679315886"/>
      <point x="-23.69524520026375" y="-317.5091984656337" type="curve" smooth="yes"/>
      <point x="-32.87910692144483" y="-372.05416490847807"/>
      <point x="17.309732191511056" y="-412.96744617257457"/>
      <point x="85.65819596021835" y="-413.0000212500517" type="curve" smooth="yes"/>
      <point x="1047.7403074764413" y="-413.00001403150685" type="line" smooth="yes"/>
      <point x="1112.4743959035443" y="-412.6333583363495"/>
      <point x="1168.2753295645484" y="-379.5747320684113"/>
      <point x="1182.4933235854292" y="-324.4908015343663" type="curve" smooth="yes"/>
      <point x="1191.6771853066102" y="-269.94583509152204"/>
      <point x="1141.4883461936547" y="-229.03255382742546"/>
      <point x="1073.1398824249472" y="-228.99997874994827" type="curve" smooth="yes"/>
    </contour>
  </outline>
</glyph>
<glyph name="b" format="2">
  <advance width="1033"/>
  <unicode hex="0062"/>
  <outline>
    <contour>
      <point x="374.71829415582573" y="1342.0015427378744" type="line" smooth="yes"/>
      <point x="302.19312324274097" y="1341.8448667579307"/>
      <point x="244.44533131749913" y="1309.8748694242288"/>
      <point x="230.55832971601762" y="1260.4614479927634" type="curve" smooth="yes"/>
      <point x="18.60595472107716" y="58.48387252628365" type="line" smooth="yes"/>
      <point x="10.605765463790235" y="10.35474547648606"/>
      <point x="60.999337249420115" y="-30.180525322003803"/>
      <point x="134.69617083874044" y="-30.003026112414865" type="curve" smooth="yes"/>
      <point x="137.69223988058178" y="-30.002148720408968" type="line" smooth="yes"/>
      <point x="208.18474800369512" y="-29.813686147973954"/>
      <point x="263.50744736720947" y="2.6888958381854877"/>
      <point x="276.7501201975937" y="51.63547916565571" type="curve" smooth="yes"/>
      <point x="286.45910684871643" y="104.90770675624256" type="line" smooth="yes"/>
      <point x="260.38961963765377" y="97.47716344898198"/>
      <point x="217.5052890430697" y="90.78507728768955"/>
      <point x="200.32949791639095" y="106.47106891404117" type="curve" smooth="yes"/>
      <point x="256.05607893658146" y="26.64809680862674"/>
      <point x="382.2371713070133" y="-41.352992903018745"/>
      <point x="531.198240508808" y="-42.00006208928262" type="curve" smooth="yes"/>
      <point x="800.3540717978575" y="-40.66152035223277"/>
      <point x="1045.558612598219" y="150.4253599617386"/>
      <point x="1105.5550134962127" y="458.5163753792907" type="curve" smooth="yes"/>
      <point x="1158.4099440310392" y="767.6562095883522"/>
      <point x="974.2990043976447" y="964.3240137746311"/>
      <point x="701.9367718264695" y="966.0001789215239" type="curve" smooth="yes"/>
      <point x="553.9187538866594" y="965.4013932076159"/>
      <point x="418.81319498899666" y="899.1718176811686"/>
      <point x="348.4526379739238" y="832.77906875453" type="curve" smooth="yes"/>
      <point x="338.4271520094548" y="838.5518111934132"/>
      <point x="388.2145935875394" y="826.6648405278364"/>
      <point x="423.22831258595215" y="825.6322386819737" type="curve" smooth="yes"/>
      <point x="498.7431339806433" y="1253.49117509504" type="line" smooth="yes"/>
      <point x="506.4821045500114" y="1302.3718008919896"/>
      <point x="453.08408128056453" y="1342.1860735788534"/>
      <point x="377.55806335518724" y="1342.0021325713228" type="curve" smooth="yes"/>
    </contour>
    <contour>
      <point x="833.3781160026824" y="465.4622505562869" type="curve" smooth="yes"/>
      <point x="803.7859895178838" y="275.02324963677455"/>
      <point x="703.9443079464803" y="144.14467480513719"/>
      <point x="547.2314459976697" y="146.00000210166445" type="curve" smooth="yes"/>
      <point x="393.1212354056774" y="144.11476540904886"/>
      <point x="320.9841448633719" y="254.6590262819143"/>
      <point x="358.54569800615076" y="458.54478003571404" type="curve" smooth="yes"/>
      <point x="389.33668973193215" y="663.976238779624"/>
      <point x="509.4356556064587" y="779.373336057891"/>
      <point x="665.8542216386157" y="777.9997814089586" type="curve" smooth="yes"/>
      <point x="819.2907625003154" y="780.6227020835297"/>
      <point x="867.4491088991721" y="654.727985298133"/>
    </contour>
  </outline>
</glyph>
<glyph name="c" format="2">
  <advance width="1046"/>
  <unicode hex="0063"/>
  <outline>
    <contour>
      <point x="82.37042777562888" y="465.4857388749321" type="curve" smooth="yes"/>
      <point x="34.09370700510874" y="181.05254359846893"/>
      <point x="220.38358673800496" y="-40.25426497186403"/>
      <point x="537.9662482800379" y="-42.000247365410125" type="curve" smooth="yes"/>
      <point x="699.4748848594068" y="-41.764212461320795"/>
      <point x="875.455270571813" y="8.797302501063337"/>
      <point x="1005.2957281376893" y="89.15597083790504" type="curve" smooth="yes"/>
      <point x="1058.3598934290653" y="116.9547138533588"/>
      <point x="1086.3755690658088" y="169.25244334684672"/>
      <point x="1061.9087742644745" y="221.45932206872118" type="curve" smooth="yes"/>
      <point x="1021.1171970201767" y="277.91115532497855"/>
      <point x="932.2707991324833" y="276.03064125390625"/>
      <point x="886.1649858418233" y="253.53039131433536" type="curve" smooth="yes"/>
      <point x="786.0640922666307" y="182.0897021715691"/>
      <point x="677.2324483764289" y="145.75948888678474"/>
      <point x="563.9678260172873" y="146.0006439647793" type="curve" smooth="yes"/>
      <point x="393.9536969332848" y="143.88630559142882"/>
      <point x="324.003455074089" y="271.5701798746504"/>
      <point x="358.5452866238466" y="458.5460265874835" type="curve" smooth="yes"/>
      <point x="386.3895125454479" y="647.0306347041675"/>
      <point x="509.83909028604245" y="779.532505161981"/>
      <point x="682.514022030968" y="777.9996066136054" type="curve" smooth="yes"/>
      <point x="786.8920825103952" y="778.1943126995122"/>
      <point x="870.1509628434508" y="751.1472909499993"/>
      <point x="947.5467375637794" y="685.3507943167847" type="curve" smooth="yes"/>
      <point x="990.5454495742299" y="662.9254158986666"/>
      <point x="1075.3819732929253" y="662.303231332381"/>
      <point x="1127.55718528688" y="717.59159705918" type="curve" smooth="yes"/>
      <point x="1170.0589111334195" y="768.8778088669916"/>
      <point x="1161.8753602051104" y="824.4724787606293"/>
      <point x="1113.1012243424796" y="852.2304696068436" type="curve" smooth="yes"/>
      <point x="1004.3846927368115" y="926.9666339558358"/>
      <point x="859.0890751672184" y="965.8232886181269"/>
      <point x="708.6838978578684" y="966.0001526779498" type="curve" smooth="yes"/>
      <point x="394.35515839772125" y="964.6188137064873"/>
      <point x="138.2739581638061" y="748.777236283238"/>
    </contour>
  </outline>
</glyph>
<glyph name="d" format="2">
  <advance width="1033"/>
  <unicode hex="0064"/>
  <outline>
    <contour>
      <point x="1121.7182941558258" y="1342.0015427378744" type="line" smooth="yes"/>
      <point x="1049.193123242741" y="1341.8448667579307"/>
      <point x="991.4453313174992" y="1309.8748694242288"/>
      <point x="977.564433236638" y="1260.4429719612956" type="curve" smooth="yes"/>
      <point x="902.0609575826783" y="832.5526193048272" type="line" smooth="yes"/>
      <point x="922.6274543697324" y="835.5155860869254"/>
      <point x="969.7807251961617" y="841.0072042665495"/>
      <point x="981.4815708988249" y="829.5880096476714" type="curve" smooth="yes"/>
      <point x="932.0763897407862" y="897.2594247691823"/>
      <point x="814.1967498025675" y="965.306638097438"/>
      <point x="664.7331088968016" y="966.0000540014287" type="curve" smooth="yes"/>
      <point x="395.5720583767643" y="964.6615203522329"/>
      <point x="150.3675175764025" y="773.5746400382615"/>
      <point x="90.37111667840884" y="465.4836246207093" type="curve" smooth="yes"/>
      <point x="37.51618614358233" y="156.34379041164777"/>
      <point x="221.62712577697698" y="-40.324013774631105"/>
      <point x="493.98529990536423" y="-42.000190140517425" type="curve" smooth="yes"/>
      <point x="641.5792783067695" y="-41.43795693246395"/>
      <point x="784.9406317876006" y="24.77624589812165"/>
      <point x="865.7569274302315" y="103.1466717066007" type="curve" smooth="yes"/>
      <point x="869.0884510276511" y="92.19463896322905"/>
      <point x="822.330152943451" y="107.03400591830025"/>
      <point x="785.405653917557" y="111.66299028477297" type="curve" smooth="yes"/>
      <point x="775.5690731627318" y="58.59988572573055" type="line" smooth="yes"/>
      <point x="767.6057654637902" y="10.354745476486034"/>
      <point x="817.9993372494203" y="-30.180525322003803"/>
      <point x="891.6961708387405" y="-30.003026112414865" type="curve" smooth="yes"/>
      <point x="894.6922398805818" y="-30.002148720408968" type="line" smooth="yes"/>
      <point x="965.1847480036952" y="-29.813686147973954"/>
      <point x="1020.5074473672095" y="2.688895838185503"/>
      <point x="1033.7834028243667" y="51.536320841059606" type="curve" smooth="yes"/>
      <point x="1245.735978965124" y="1253.513257187701" type="line" smooth="yes"/>
      <point x="1253.4821045500114" y="1302.3718008919896"/>
      <point x="1200.0840812805645" y="1342.1860735788534"/>
      <point x="1124.5580633551874" y="1342.0021325713228" type="curve" smooth="yes"/>
    </contour>
    <contour>
      <point x="837.380432168471" y="465.45521996428596" type="curve" smooth="yes"/>
      <point x="806.5894404426895" y="260.02376122037606"/>
      <point x="686.4904745681629" y="144.62666394210885"/>
      <point x="530.0719085360058" y="146.00021859104146" type="curve" smooth="yes"/>
      <point x="376.63536767430617" y="143.37729791647024"/>
      <point x="328.4770212754497" y="269.27201470186685"/>
      <point x="362.54801417193926" y="458.5377494437131" type="curve" smooth="yes"/>
      <point x="392.14014065673786" y="648.9767503632255"/>
      <point x="491.98182222814125" y="779.8553251948628"/>
      <point x="648.6946841769519" y="777.9999978983356" type="curve" smooth="yes"/>
      <point x="802.8048947689442" y="779.8852345909511"/>
      <point x="874.9419853112497" y="669.3409737180857"/>
    </contour>
  </outline>
</glyph>
<glyph name="e" format="2">
  <advance width="1077"/>
  <unicode hex="0065"/>
  <outline>
    <contour>
      <point x="90.37612170009649" y="465.46832092143404" type="curve" smooth="yes"/>
      <point x="37.26269340357595" y="158.19176558426966"/>
      <point x="202.6749514165374" y="-40.50115289710715"/>
      <point x="518.9771255084042" y="-42.000213772992126" type="curve" smooth="yes"/>
      <point x="681.1394950010649" y="-41.86583664663581"/>
      <point x="852.8079317881839" y="-4.052049080192255"/>
      <point x="971.9722562633259" y="46.69725923811387" type="curve" smooth="yes"/>
      <point x="1031.1812232752793" y="68.77996463002013"/>
      <point x="1069.7050007834955" y="114.50577325975448"/>
      <point x="1060.5216097656842" y="165.72847929744248" type="curve" smooth="yes"/>
      <point x="1043.8807195159764" y="216.78230433012757"/>
      <point x="967.8221200507422" y="251.09926033763338"/>
      <point x="892.7842730883561" y="226.64435041475943" type="curve" smooth="yes"/>
      <point x="799.3000098960291" y="174.84842857623087"/>
      <point x="671.5932353932117" y="142.85361236158496"/>
      <point x="544.524547326227" y="143.0002773963328" type="curve" smooth="yes"/>
      <point x="379.5139816259453" y="141.51622364885597"/>
      <point x="329.90775709960707" y="230.93824485365525"/>
      <point x="350.4160369993074" y="374.5262044392051" type="curve" smooth="yes"/>
      <point x="347.34312265352037" y="390.3531073715346"/>
      <point x="340.1722158936813" y="407.4135453155605"/>
      <point x="344.8287418513162" y="404.9998741905932" type="curve" smooth="yes"/>
      <point x="1020.9741715819919" y="404.9999871662128" type="line" smooth="yes"/>
      <point x="1083.0290652971294" y="405.1304287469905"/>
      <point x="1143.0467052928552" y="434.8208368006822"/>
      <point x="1154.4536311692432" y="484.652365454429" type="curve" smooth="yes"/>
      <point x="1185.5697459306953" y="756.4275458996575"/>
      <point x="1032.523948667353" y="964.2822574979544"/>
      <point x="709.8457502795469" y="966.0000169232793" type="curve" smooth="yes"/>
      <point x="409.3073526518707" y="964.747828128654"/>
      <point x="149.02385129168263" y="762.9386866394104"/>
    </contour>
    <contour>
      <point x="886.1415394196489" y="612.0409368154826" type="curve" smooth="yes"/>
      <point x="889.8839597383204" y="599.5137498494785"/>
      <point x="905.836374983397" y="581.9982385430491"/>
      <point x="898.779779248823" y="585.00024889464" type="curve" smooth="yes"/>
      <point x="379.4100482137355" y="585.0004773162225" type="line" smooth="yes"/>
      <point x="348.269049370319" y="587.6918270461649"/>
      <point x="384.17293921745664" y="602.7126643727063"/>
      <point x="405.946969241148" y="604.581227771922" type="curve" smooth="yes"/>
      <point x="435.65747395265043" y="698.5834774543866"/>
      <point x="535.3202341425663" y="781.9103261102092"/>
      <point x="684.2580163590264" y="780.9999958144607" type="curve" smooth="yes"/>
      <point x="842.4089026792078" y="782.1650123739361"/>
      <point x="889.9747205883206" y="706.1055858419531"/>
    </contour>
  </outline>
</glyph>
<glyph name="g" format="2">
  <advance width="1017"/>
  <unicode hex="0067"/>
  <outline>
    <contour>
      <point x="86.77857682424516" y="490.485817076538" type="curve" smooth="yes"/>
      <point x="36.829465701298176" y="195.9656666193652"/>
      <point x="223.65372544065337" y="9.493650970676127"/>
      <point x="494.81361637743726" y="7.999841961631425" type="curve" smooth="yes"/>
      <point x="641.506416050839" y="8.491486778908543"/>
      <point x="776.4826137570057" y="68.49413957846886"/>
      <point x="846.1266924354329" y="132.37734772588493" type="curve" smooth="yes"/>
      <point x="856.4131717816367" y="126.49765719274913"/>
      <point x="807.0243531385373" y="138.2460204178022"/>
      <point x="771.9910283782453" y="139.1878682506924" type="curve" smooth="yes"/>
      <point x="744.8878604558192" y="-13.445890257088191" type="line" smooth="yes"/>
      <point x="724.910023856117" y="-154.1203657781295"/>
      <point x="653.5752200913143" y="-243.13287035003816"/>
      <point x="482.94369773471345" y="-241.9997930579851" type="curve" smooth="yes"/>
      <point x="381.1647097790728" y="-242.11612520825642"/>
      <point x="275.5313984438057" y="-218.7597829977736"/>
      <point x="185.27821726077335" y="-183.37686242370458" type="curve" smooth="yes"/>
      <point x="129.30894317006323" y="-169.93191990528524"/>
      <point x="58.913247334958925" y="-190.53988391714842"/>
      <point x="23.013957708226783" y="-243.8829055256801" type="curve" smooth="yes"/>
      <point x="-8.512832115949031" y="-297.6552871971725"/>
      <point x="12.053542301111104" y="-348.2163339657978"/>
      <point x="68.81343290267066" y="-364.7268204195288" type="curve" smooth="yes"/>
      <point x="183.1391976996277" y="-407.3187306101165"/>
      <point x="325.57168927703714" y="-429.92954769738594"/>
      <point x="456.7956240751608" y="-430.00008329204974" type="curve" smooth="yes"/>
      <point x="745.8975521285481" y="-429.15684416536874"/>
      <point x="961.069151776487" y="-278.98854961970335"/>
      <point x="1010.7902703830174" y="-33.447494175464186" type="curve" smooth="yes"/>
      <point x="1169.3213051411801" y="865.5126590765266" type="line" smooth="yes"/>
      <point x="1177.3203647108314" y="913.645254523514"/>
      <point x="1126.9267929252014" y="954.1805253220039"/>
      <point x="1053.2299593358812" y="954.0030261124149" type="curve" smooth="yes"/>
      <point x="1050.2338902940398" y="954.002148720409" type="line" smooth="yes"/>
      <point x="979.7413821709265" y="953.813686147974"/>
      <point x="924.4186828074122" y="921.3111041618146"/>
      <point x="911.1760099770279" y="872.3645208343443" type="curve" smooth="yes"/>
      <point x="901.4670233259052" y="819.0922932437574" type="line" smooth="yes"/>
      <point x="927.536510536968" y="826.5228365510181"/>
      <point x="970.4208411315519" y="833.2149227123105"/>
      <point x="987.5966322582306" y="817.5289310859589" type="curve" smooth="yes"/>
      <point x="931.8700512380402" y="897.3519031913733"/>
      <point x="805.6889588676084" y="965.3529929030187"/>
      <point x="656.7417056077951" y="966.0000419096431" type="curve" smooth="yes"/>
      <point x="388.54275634384" y="964.7884625431781"/>
      <point x="144.5973858758123" y="783.8454584870849"/>
    </contour>
    <contour>
      <point x="833.790534421718" y="490.4493842683098" type="curve" smooth="yes"/>
      <point x="806.3261685625758" y="300.4313529766968"/>
      <point x="688.7656962406097" y="194.79893501517088"/>
      <point x="530.906233009966" y="196.00016784837987" type="curve" smooth="yes"/>
      <point x="375.604450488321" y="193.6759343433934"/>
      <point x="327.3502794263855" y="309.80652244416945"/>
      <point x="358.95495616082025" y="483.541493311442" type="curve" smooth="yes"/>
      <point x="385.3865554359488" y="658.6047778483745"/>
      <point x="482.5578981508077" y="779.6593308063733"/>
      <point x="640.6886842475582" y="777.9999957553174" type="curve" smooth="yes"/>
      <point x="796.6388955263182" y="779.6309684012012"/>
      <point x="869.0557070255514" y="678.7359821573266"/>
    </contour>
  </outline>
</glyph>
<glyph name="h" format="2">
  <advance width="994"/>
  <unicode hex="0068"/>
  <outline>
    <contour>
      <point x="382.71829415582573" y="1342.0015427378744" type="line" smooth="yes"/>
      <point x="310.19312324274097" y="1341.8448667579307"/>
      <point x="252.44533131749913" y="1309.8748694242288"/>
      <point x="238.55832971601762" y="1260.4614479927634" type="curve" smooth="yes"/>
      <point x="26.60501972438183" y="58.48674281229913" type="line" smooth="yes"/>
      <point x="18.858894139494588" y="9.628199108010431"/>
      <point x="72.25691740894148" y="-30.186073578853424"/>
      <point x="147.7829353343188" y="-30.002132571322733" type="curve" smooth="yes"/>
      <point x="150.6227045336803" y="-30.001542737874367" type="line" smooth="yes"/>
      <point x="223.1478754467651" y="-29.84486675793068"/>
      <point x="280.8956673720069" y="2.125130575771217"/>
      <point x="294.7742496701101" y="51.56400082908196" type="curve" smooth="yes"/>
      <point x="354.2295591916296" y="388.46227023977985" type="line" smooth="yes"/>
      <point x="385.903619399847" y="609.1234843447743"/>
      <point x="580.4060456167598" y="779.8289442638207"/>
      <point x="726.7188137946331" y="777.9999989885473" type="curve" smooth="yes"/>
      <point x="832.7734251507868" y="780.359031380176"/>
      <point x="835.1184873295123" y="716.6551748486811"/>
      <point x="815.597907101409" y="608.447000041462" type="curve" smooth="yes"/>
      <point x="718.6002005016068" y="58.501593094884214" type="line" smooth="yes"/>
      <point x="710.8588941394946" y="9.628199108010396"/>
      <point x="764.2569174089415" y="-30.186073578853424"/>
      <point x="839.7829353343188" y="-30.002132571322733" type="curve" smooth="yes"/>
      <point x="842.6227045336803" y="-30.001542737874367" type="line" smooth="yes"/>
      <point x="915.147875446765" y="-29.84486675793068"/>
      <point x="972.895667372007" y="2.1251305757712364"/>
      <point x="986.7787622663121" y="51.55039456921483" type="curve" smooth="yes"/>
      <point x="1086.4224699510528" y="616.4923448267829" type="line" smooth="yes"/>
      <point x="1121.559369684616" y="822.85342643715"/>
      <point x="996.2273699408253" y="964.593332278495"/>
      <point x="767.8960088438305" y="966.0000851578085" type="curve" smooth="yes"/>
      <point x="615.2914887845642" y="965.1413845176415"/>
      <point x="432.59950220443113" y="870.9043600035238"/>
      <point x="341.30157706723054" y="772.774454429129" type="curve" smooth="yes"/>
      <point x="333.1036276951455" y="777.7338020150195"/>
      <point x="386.200620994821" y="764.8653939953335"/>
      <point x="420.48019841239056" y="764.6092383977664" type="curve" smooth="yes"/>
      <point x="506.7418360157716" y="1253.4951964754318" type="line" smooth="yes"/>
      <point x="514.4821045500114" y="1302.3718008919896"/>
      <point x="461.08408128056453" y="1342.1860735788534"/>
      <point x="385.55806335518724" y="1342.0021325713228" type="curve" smooth="yes"/>
    </contour>
  </outline>
</glyph>
<glyph name="k" format="2">
  <advance width="972"/>
  <unicode hex="006B"/>
  <outline>
    <contour>
      <point x="867.3695280941897" y="939.8334073989615" type="curve" smooth="yes"/>
      <point x="296.59577492848604" y="500.4589606783162" type="line" smooth="yes"/>
      <point x="280.83274167853097" y="507.90546403380216"/>
      <point x="323.1344611470683" y="499.733408561522"/>
      <point x="359.3418679278864" y="497.24738317147524" type="curve" smooth="yes"/>
      <point x="492.73843898239323" y="1253.5056885060765" type="line" smooth="yes"/>
      <point x="500.4821045500114" y="1302.3718008919896"/>
      <point x="447.08408128056453" y="1342.1860735788534"/>
      <point x="371.55806335518724" y="1342.0021325713228" type="curve" smooth="yes"/>
      <point x="368.71829415582573" y="1342.0015427378744" type="line" smooth="yes"/>
      <point x="296.19312324274097" y="1341.8448667579307"/>
      <point x="238.44533131749913" y="1309.8748694242288"/>
      <point x="224.55832971601765" y="1260.4614479927634" type="curve" smooth="yes"/>
      <point x="12.60501972438183" y="58.48674281229913" type="line" smooth="yes"/>
      <point x="4.858894139494588" y="9.628199108010431"/>
      <point x="58.256917408941476" y="-30.186073578853424"/>
      <point x="133.7829353343188" y="-30.002132571322733" type="curve" smooth="yes"/>
      <point x="136.6227045336803" y="-30.001542737874367" type="line" smooth="yes"/>
      <point x="209.1478754467651" y="-29.84486675793068"/>
      <point x="266.8956673720069" y="2.125130575771217"/>
      <point x="280.76355457495674" y="51.59594324494671" type="curve" smooth="yes"/>
      <point x="308.2408548935997" y="207.00386627512003" type="line" smooth="yes"/>
      <point x="308.4807294172673" y="227.77850711887524"/>
      <point x="322.9339686411699" y="260.68687869295024"/>
      <point x="335.4763167133206" y="274.38859447809205" type="curve" smooth="yes"/>
      <point x="460.98299279554203" y="369.5181564184493" type="line" smooth="yes"/>
      <point x="468.52472253615895" y="381.72351223575185"/>
      <point x="446.8668745655288" y="380.0452781604782"/>
      <point x="443.35004981288654" y="369.7929108208649" type="curve" smooth="yes"/>
      <point x="720.1565470884311" y="-8.704674473762637" type="line" smooth="yes"/>
      <point x="762.0921515832952" y="-41.337604323367"/>
      <point x="835.0797346164819" y="-40.46168257963195"/>
      <point x="896.7035074545078" y="-12.777336733824868" type="curve" smooth="yes"/>
      <point x="965.2835074270243" y="16.651708643161925"/>
      <point x="990.5259033864419" y="68.06449585207838"/>
      <point x="955.1076191478905" y="106.92356058850147" type="curve" smooth="yes"/>
      <point x="670.2450256211181" y="492.59569132154496" type="line" smooth="yes"/>
      <point x="666.1899975139611" y="498.9232799777563"/>
      <point x="663.3475668344983" y="523.2068260466426"/>
      <point x="673.842572581074" y="532.0824893476162" type="curve" smooth="yes"/>
      <point x="1048.2811601033109" y="817.0357588444101" type="line" smooth="yes"/>
      <point x="1105.6276577603198" y="850.9146415468655"/>
      <point x="1099.338979652529" y="909.7689946109908"/>
      <point x="1040.2565258892866" y="940.6844825807592" type="curve" smooth="yes"/>
      <point x="985.1287623700366" y="967.987912289546"/>
      <point x="912.7450202043858" y="964.4248140036724"/>
    </contour>
  </outline>
</glyph>
<glyph name="l" format="2">
  <advance width="491"/>
  <unicode hex="006C"/>
  <outline>
    <contour>
      <point x="113.69620947996657" y="164.11608482988117" type="line" smooth="yes"/>
      <point x="64.11229988776373" y="157.03259890028028"/>
      <point x="39.828912349055514" y="127.96995657584146"/>
      <point x="29.60697024019378" y="75.47329090961699" type="curve" smooth="yes"/>
      <point x="19.76700419081164" y="23.299694603073586"/>
      <point x="31.023896400806063" y="-8.919883478239601"/>
      <point x="90.42298723452198" y="-20.01550689576534" type="curve" smooth="yes"/>
      <point x="399.89657658550476" y="-20.00651257772358" type="line" smooth="yes"/>
      <point x="452.0287853342552" y="-13.032598900280266"/>
      <point x="476.3121728729634" y="16.03004342415854"/>
      <point x="486.5341149818252" y="68.526709090383" type="curve" smooth="yes"/>
      <point x="496.3740810312073" y="120.70030539692641"/>
      <point x="485.1171888212129" y="152.91988347823963"/>
      <point x="429.33238531794154" y="164.244475028329" type="curve" smooth="yes"/>
      <point x="376.25501461444077" y="164.04151922494862" type="line" smooth="yes"/>
      <point x="350.6257543660835" y="177.27188319782238"/>
      <point x="372.04568710820047" y="182.61642366469547"/>
      <point x="409.7502897931981" y="174.05518662028416" type="curve" smooth="yes"/>
      <point x="597.8254034436645" y="1240.5129614232446" type="line" smooth="yes"/>
      <point x="606.4605793525988" y="1293.2315640099994"/>
      <point x="554.5689127399371" y="1332.1527621028085"/>
      <point x="487.9014166785804" y="1332.0003311930002" type="curve" smooth="yes"/>
      <point x="331.49475728403087" y="1332.0210972232014" type="line" smooth="yes"/>
      <point x="279.99642388156667" y="1325.0325989002802"/>
      <point x="255.7130363428584" y="1295.9699565758415"/>
      <point x="245.49109423399665" y="1243.4732909096172" type="curve" smooth="yes"/>
      <point x="235.65112818461455" y="1191.2996946030735"/>
      <point x="246.90802039460894" y="1159.0801165217604"/>
      <point x="302.28892403617346" y="1147.7125531670663" type="curve" smooth="yes"/>
      <point x="349.34392447589414" y="1147.935709633123" type="line" smooth="yes"/>
      <point x="368.83884650241697" y="1130.6320601105322"/>
      <point x="356.58386280789483" y="1134.1004290577118"/>
      <point x="311.23836275521234" y="1142.946702289011" type="curve" smooth="yes"/>
      <point x="141.42886190985098" y="180.15929635957724" type="line" smooth="yes"/>
      <point x="143.23765457939493" y="175.63089392746483"/>
      <point x="166.65238444864386" y="161.19496285469458"/>
      <point x="163.61746397122272" y="164.0231189777322" type="curve" smooth="yes"/>
    </contour>
  </outline>
</glyph>
